<svg xmlns:svg="http://www.w3.org/2000/svg" xmlns="http://www.w3.org/2000/svg" version="1.1" viewBox="0 0 1240.7 1298" height="366.3" width="350"><style>.s0{fill:#fff;}.s1{fill:#000;}.s2{fill:none;}.s3{fill:#ececec;}</style><style>.s0{fill:#000;}.s1{fill:#fff;}</style><style>.s0{fill:#000;}.s1{fill:#fff;}.s2{fill:none;stroke-width:0.1;stroke:#1a1a1a;}</style><path d="m740.7 117.6 0 0c-2.5 0-5 0.4-8.4 0.8-4.2 0.4-8.8 1.7-13.4 3.8-4.6 1.7-9.2 4.2-13.4 7.5-4.2 2.9-8 6.7-10.9 10.9-1.7 2.1-2.9 4.6-3.8 6.7-1.3 2.5-2.1 5-2.5 7.5-0.8 4.6-1.3 9.2 0 14.2 0.8 5.4 2.9 11.3 6.3 18.9 3.4 7.5 8 16.8 14.7 28.1 6.7 11.3 14.7 24.7 25.1 41.5 11.7 18.4 23.5 36 31.9 48.6 4.2 6.3 7.5 11.7 10.1 15.5 2.1 3.8 3.4 5.9 2.9 6.3-2.5 1.7-5.9 4.2-8 5.9-2.5 1.7-4.2 3.4-4.6 2.5-8.4-7.5-28.9-22.6-56.6-45.3-18.9-15.9-35.2-28.9-49.9-39.4-7.1-5.4-14.2-10.1-20.5-14.2-6.3-4.2-12.6-7.5-18.4-10.5-5.9-2.9-11.3-5.4-16.3-7.1-5-1.7-10.1-2.9-14.7-3.8-4.6-0.8-9.2-0.8-13.4-0.4-4.2 0.4-8.8 1.3-13 2.5-5 1.7-9.6 3.8-13.8 6.3-4.2 2.5-8 5.4-11.3 8.8-3.4 3.4-6.3 6.7-8.4 10.5-2.1 3.8-4.2 8-5.4 12.2-1.3 4.2-2.1 8.8-2.1 13.8 0 4.6 0.4 9.6 1.3 14.7 1.3 5 2.9 10.1 5 15.5 2.5 5 5.4 10.5 9.2 15.9 5.9 8.4 11.7 16.8 17.2 24.3 5.9 7.5 11.3 15.1 17.2 21.8 5.9 6.7 11.7 13.4 18.4 19.3 6.3 5.9 13.4 11.7 20.5 17.2 8 5.9 14.7 10.5 21 14.2 6.3 3.8 11.3 6.7 16.8 9.6l15.1 8.8c5 2.9 10.5 6.7 16.3 10.9-2.5 8-5 15.5-6.7 23.1-3.8 14.7-5.9 29.3-6.7 43.6-0.4 13.8 0 27.2 1.7 40.2 0.8 6.3 2.1 13 3.8 19.3 3.4 13 7.5 26 12.6 37.3 10.1 23.5 17.6 43.2 23.5 60.8 5.9 17.6 10.1 32.7 12.6 46.1 2.5 12.6 4.2 25.1 5 36.9 0.4 11.3 0 21.8-0.8 33.1-2.5 23.9-5.4 48.2-6.7 70.4-1.3 24.3-1.7 39-2.9 48.6-0.8 17.6-15.5 24.3-26.8 31.4-21.8 23.9-26 54.9-18.9 81.7 0.4 0.8 0.8 1.3 1.3 1.7-0.8 0-1.7 0-2.5 0.4l-559.9 172.3 197.4 90.1 754-167.6c10.1 0.8 21 1.3 30.2-2.1 21.8-3.4 36-26.4 51.1-29.8 4.6-0.8 9.6-2.5 14.2-5 4.6-2.5 8.8-5.4 12.6-9.2 3.8-3.4 6.7-7.5 8.8-11.3 1.3-2.1 2.1-3.8 2.5-5.9 0.4-2.1 0.8-3.8 0.8-5.9 0-2.9-0.8-7.5-1.7-12.6-2.1-8.4-5.4-15.9-7.1-23.9-1.3-7.1 1.3-13.8 3.8-19.7 5.9-10.5 13.4-20.1 18.4-30.6 6.3-11.7 10.5-24.7 14.2-36.5 6.3-23.5 8.8-49.9 9.6-71.2 0.8-19.3 1.3-41.1 1.3-66.2 0.4-18.4 0-36.9 2.9-53.6 1.7-12.2 6.7-23.1 8.4-34.4 2.9-23.1 6.3-46.5 8-70.4 0.8-12.2 1.7-24.3 2.1-36.5 0.4-25.6-0.8-50.3-5.9-74.2-6.3-29.8-20.5-58.7-36.9-81.7-26.4-38.6-59.1-72.5-96.4-95.1-41.1-24.7-87.2-36.9-131.6-41.5-21.4-1.7-40.7-1.7-62-1.3-3.8-2.9-7.5-7.5-11.7-13-4.2-5.9-8.8-12.6-13.8-19.7-5-7.1-10.1-15.1-15.5-22.6-5.4-7.5-11.3-15.1-17.2-21.4-8.4-10.9-16.8-21.4-25.1-31-8.4-9.6-16.3-18.4-23.9-26.4-7.5-8-14.7-14.7-20.5-20.1-6.3-5.4-11.7-9.6-15.9-12.6-5.9-3.8-10.1-5.9-14.2-7.1-2.1-0.4-4.2-0.8-6.7-0.8z" fill="#666"/><g transform="matrix(4.2255125,0,0,4.2255125,-2.9765752,-3187.5648)"><g transform="translate(-1.6610183,-56.474619)"><g transform="translate(-29.898328,-80.282547)"><path d="m84.7 1153.3c0 1.9-0.2 2.8-0.4 3.6 0 0-0.9 0-1.3 1.3-0.4 1.3-1.5 14.6-1.4 14.7 0.1 0.2 0.2 1.4 0.4 2.6 0.3 1.1 4.7 4.6 11.2 4.6 2.5 0 8 1.3 8.8 2.1-0.7 0.8 9.2 6.6 15.8 6.3 2.8 0.8 14.4-1.8 16.5-3.3 3.3-1.2 7.1-4.2 7.5-5.5 0.2-1.1 0.5-3.8-0.8-5.9-1.2-1.7-3.2-2.9-4.8-3-6-1.4-8.3-2.8-11.8-4.8l-1.6-1 0.2-0.5-0.7-0.5-0.5 0.4-1.2-1 0-0.5-1.5-1-0.4 0.2-0.9-1 0.4-0.6-2.1-1.5-0.5 0.4-0.8-0.9 0-0.9-2.1-1.8-0.5 0.3-1-1.2-1.1-2.1-1.9-1.3-2.2-0.1-1.5 0.4-2.6-0.4-2.5 1.7c-1 1.8-2.2 2.4-2.9 2.3-2.4-1.7-4.8-3.8-6.3-4.6l-3.7 1c-0.6 0.6-1.2 1.1-1.8 1.7z" fill="#1a1a1a"/><path d="m116.7 1161.5c-0.8 0.6-2.1 0.4-3.3 0.6-0.2 0.7-0.6 1.6-1 2.1-0.1 0.4-0.8-0.2-0.6-0.7 0.1-0.4 0.3-1 0.3-1-1.7 0.7-3.7 1.9-4.2 2.5-0.6 0.5-1-0.9-0.9-1.5 0.4-0.1 0.6-1.3 0.2-1.2l-10.5 12.8 3.5 1.6c0.9-5.8 10-12.9 10.2-12.7 1.2-0.1 1.2 0.4 3.4 0.6 0.4 0.1 0.9-0.2 1.4-0.5 0.4-1 1.6-1.8 2.5-2.8l1 1c-0.2 0.1-0.3 0.2-0.4 0.6 0 0.6 0.6 0.6 1.4 0.6 0 0.2 0.3 0.3 0 0.7-2.9 1.1-4.7 1-6.9 2.3l-0.7 2.2 2.4 1.3c0 0 1.3-0.3 1.3-0.8 0-0.5 0.4-0.9 0.4-0.9l1.3 0.3 1.6-2.1-2.6 1.1-1.9 1.3c-0.7-0.2-0.5-0.8-0.5-1.4l1-0.5c0.3-0.8 1.7-1.3 3.1-1.6l1.9-0.7 0.6-0.9 3.5 2.3c0 0.3-2.6 2.1-3.6 2.8l-0.4 0.6 1.9 0.1 1.5-1.4c0.2-0.3 0.5-0.6 0.8-1 0-0.3 0-0.7-0.2-0.8-0.1-0.1 0-0.1 0-0.2l2.6 1.5c3.5 1.9 7 3.1 11.9 4.2 1.6 1.4 3.5 2.8 1.6 4.3-3.1 2.6-5.6 2.6-8.4 3.7l-6.9 2c-2.8 0.2-5.4 0.7-8.2 0.5-0.1-0.4 0.4-1 0.8-1.6l2.6-3.1c0.2-0.6-0.2-0.1-0.7 0.2-0.7 0.9-1.2 1.2-1.6 1.4l-1.5 1.5c-0.3 0.6-1.5 0.9-1.7 0.7 0.7 0.4 0.9 1.8 0.6 2.9-0.2 0.7-0.5 0.6-1.5 0.5-45.9-13.2-13.8-39.2 2.9-23.4z" fill="#fff"/></g><g transform="translate(-29.898328,-80.282547)"><path d="m55.9 1163.1c-0.3 0.9-0.3 0.9-0.6 3.6 0 0-0.6 0.1-1.3 1.2-0.7 1.1-1.5 14.6-1.4 14.7 0.1 0.2 0.2 1.4 0.4 2.6 0.3 1.1 4.7 4.7 11.2 4.6 2.2-0.1 7.4 1.2 8.8 2.1 0.9 1.6 9.2 7 15.8 6.3 2.8 0.8 14.4-1.8 16.5-3.3 3.3-1.2 7.1-4.2 7.5-5.5 0.2-1.1 0.5-3.8-0.8-5.9-1.2-1.7-3.2-2.9-4.8-3-6-1.4-8.3-2.8-11.8-4.8l-1.6-1 0.2-0.5-0.7-0.5-0.5 0.4-1.2-1 0-0.5-1.5-1-0.4 0.2-0.9-1 0.4-0.6-2.1-1.5-0.5 0.4-0.8-0.9 0-0.9-2.1-1.8-0.5 0.3-1-1.2c-0.2-1.2-0.8-1.9-1.7-2.2-1.1-1.1-1.6-1.2-2.9-1.2-1.2-0.3-1.2 0.2-1.5 0.5-1.6-0.4-3.6-0.6-4.3 0.3-2 1.1-3.1 4.3-4.7 2.7-2.4-1.8-3.2-3.3-6.5-4.3-2.3 0.3-3.7 1.3-4.7 2.7z" fill="#000"/><path d="m54 1167.7c-0.3 0.9 3.7 7.1 5.6 6.8 1 0.5 5.8-3 5.8-3 7.4-9.5 15.6-2 20.7-1.5 0.1 0.5 0.9 0.8 1.5 0.8 0.3 0 0.1 0.6 0.1 0.6-0.8 0.6-2.1 0.4-3.3 0.6-0.2 0.7-0.6 1.6-1 2.1-0.1 0.4-0.8-0.2-0.6-0.7 0.1-0.4 0.3-1 0.3-1-1.7 0.7-3.7 1.9-4.2 2.5-0.6 0.5-1-0.9-0.9-1.5l3.1-1.9c-0.4 0.2-1.3 0.2-1.4-0.3 0-2.4-2.1-0.6-3.6-0.1 0.8-0.1 1.3 0 1.6 0.2l0.5 0.9-6.2 6.8-4.4 5.9 3.5 1.6c0.9-5.8 10-12.9 10.2-12.7 1.2-0.1 1.2 0.4 3.4 0.6 0.4 0.1 0.9-0.2 1.4-0.5 0.4-1 1.6-1.8 2.5-2.8l1 1c-0.2 0.1-0.3 0.2-0.4 0.6 0 0.6 0.6 0.6 1.4 0.6 0 0.2 0.3 0.3 0 0.7-2.9 1.1-4.7 1-6.9 2.3l-0.7 2.2 2.4 1.3c0 0 1.3-0.3 1.3-0.8 0-0.5 0.4-0.9 0.4-0.9l1.3 0.3 1.6-2.1-2.6 1.1-1.9 1.3c-0.7-0.2-0.5-0.8-0.5-1.4l1-0.5c0.3-0.8 1.7-1.3 3.1-1.6l1.9-0.7 0.6-0.9 3.5 2.3c0 0.3-2.6 2.1-3.6 2.8l-0.4 0.6 1.9 0.1 1.5-1.4c0.2-0.3 0.5-0.6 0.8-1 0-0.3 0-0.7-0.2-0.8-0.1-0.1 0-0.1 0-0.2l2.6 1.5c3.5 1.9 7 3.1 11.9 4.2 1.6 1.4 3.5 2.8 1.6 4.3-3.1 2.6-5.6 2.6-8.4 3.7l-6.9 2c-2.8 0.2-5.4 0.7-8.2 0.5-0.1-0.4 0.4-1 0.8-1.6l2.6-3.1c0.2-0.6-0.2-0.1-0.7 0.2-0.7 0.9-1.2 1.2-1.6 1.4l-1.5 1.5c-0.3 0.6-1.5 0.9-1.7 0.7 0.7 0.4 0.9 1.8 0.6 2.9-0.2 0.7-0.5 0.6-1.5 0.5-2.6-1-4.7-2.7-7.9-2.9-1.8-0.3-2.1-0.7-2.7-1.1-2.7-1.5-5.4-3-9.1-4.3-1-0.2-2.4-0.7-3-0.5-0.8 0.8 0.6 1.1 1.3 1.9-0.5 0.5-1.8-0.2-2.7-0.3-3.9 0.3-6.6-1.6-6.3-2.1-1.2-1.2-1-2.1-1.4-3.2 0.7-7.4 0.6-9.2 1.1-14.5z" fill="#fff"/><path d="m71.6 1186.1c-0.3-1.3 4-8.3 9.6-12 0.9-0.4 0.1-0.3 2.2 0.4" style="fill:none;stroke-dasharray:0.4;stroke-width:0.1;stroke:#333"/><path d="m60.9 1176.2c1.2 0.1 8.1-5.3 9.7-5.4 4 1.3 2.9 2.7 3.2 2.7-1.5 1.3-6.9 6.2-7.2 10.5" style="fill:none;stroke-dasharray:0.3;stroke-width:0.2;stroke:#000"/><path d="m60.7 1174.9c3-2.2 6.5-2.7 5.6-5.8" style="fill:none;stroke-dasharray:0.4;stroke-width:0.1;stroke:#000"/><path d="m80.7 1181.8c0 0-3.4 3-3.2 3.9 0.1 0.7 2.2-1.4 2.2-1.4 0.7-1.1 1.2-1.6 1.6-2.1m1.8 0.9 0 0c-0.2-0.1-3.4 5-2.5 5.5 1.2 0.1 1.3-3.1 2.7-4.4 0.1-0.3 0.2-0.5 0.4-0.7m1.8 0.3c0 0-1.6 6.3-1.1 6.5 0.5 0.7 1.4-4.6 1.5-4.7l0.3-1.3" class="s2" style="fill:none;stroke-width:0.1;stroke:#1a1a1a"/><path d="m82.7 1177.5c-0.2 1.3-0.5 2 0.4 2.2 3.3 2.7 5.4-1.7 5.3-1.1" style="fill:none;stroke-dasharray:0.3;stroke-width:0.1;stroke:#333"/><path d="m60.6 1181.8c-0.9-0.6-5.2-8-6.1-9.8 1.1 1.6 3.6 5 4.8 6.6 0.3 0.5 1.1 2.4 1.2 3.2zm29.3-1.5 0 0c-0.2 1.7 0.6 5.8 6.8 5.5 1.9 0.2 10.6-0.9 12.2-3.8-5.7 4.3-17.5 5.2-18.7 0z" fill="#000"/></g></g><path d="m24.2 853.8c32.7 6.7 47.2 14.4 67.9-2.3 2.3 0.6 4.6 1.2 7 1.8 19.3 5-3.3 87.8-1.9 86.8-2.6 37.4 1.9 86.8 1.9 86.8-7.6-4-37.8-1.5-38.4 5-4.3 1.6-27.9 6-46.4-1.3 3.1-2 7.1-31.2 2-85.7 0 0-32.4-30.4-3.8-87.9 2.9-1.5 9.3-3.1 11.7-3.2z" fill="#000"/></g><path d="m298.9 512.4c-16.3 1.7-33.5 6.3-41.5 15.5-8.4 9.6-15.1 32.7-19.3 67.5-4.2 36-2.5 69.6 12.6 88 14.7 17.6 36.9 15.9 50.3 12.2 13-3.8 20.5-10.1 27.7-21 8-11.7 18.9-33.9 23.1-64.5 4.2-30.6 0.4-61.2-9.6-78.8-10.5-18-25.6-20.5-43.2-18.4zm-17.2 19.3c2.5 0 3.8 1.7 4.6 4.2 0.4 1.7 0.4 8 0 20.5-0.4 13-0.4 20.1 1.3 20.1 0.4 0 1.3 0 2.1-0.4 0.4 0 0.8-0.4 1.3-0.4 1.3-0.8 2.5-1.3 3.4-1.7 0.8-0.4 3.4-0.4 6.7-0.4 6.7 0 11.3 5.9 12.6 18.9 2.1 16.8-0.4 27.7-0.8 60.4 0 2.9 0 5.4-0.4 6.7-0.4 1.7-1.3 2.1-2.9 2.1-1.3 0-2.9-2.5-3.4-8.4-0.4-3.4-0.8-11.3-0.4-26 0.4-15.1 0.8-23.5 0.4-28.1-2.1-6.7-4.6-10.9-7.5-12.2 0 0 0 0 0 0-5 0-8.8 4.2-11.7 12.6-1.3 3.8-2.9 14.2-3.8 28.9-0.8 14.7-1.3 24.3-1.7 27.2-0.4 6.7-1.7 10.1-3.8 10.5-1.7 0.4-2.5 0-3.4-1.3-0.8-1.3-1.3-4.2-1.3-9.6 0-0.8 0-2.1 0-2.9 0-2.1 0-4.2 0-6.3 0-3.4 0.4-8.4 0.4-9.6 0-2.1 0.4-4.2 0.4-6.3 0-2.1 0.4-4.2 0.4-6.3 0.4-4.2 0.4-8.8 0.8-13 0-1.3 0-2.1 0.4-3.4 0-2.1 0.4-4.2 0.4-6.7 0-1.3 0-2.1 0.4-3.4 0-2.1 0.4-4.2 0.4-6.3 0-1.3 0-2.1 0.4-3.4 0-2.1 0.4-4.2 0.4-6.3 0-0.8 0-2.1 0.4-2.9 0-2.1 0.4-4.2 0.4-5.9 0-2.9 0.4-5.9 0.4-8.8 0.8-15.9 0.8-23.9 1.7-27.7 0.4-3.4 1.7-4.6 3.4-4.6 0 0 0 0 0 0z" fill="#800000"/><path d="" style="fill:#f00;stroke-width:32.4;stroke:#000"/><rect transform="matrix(0.99093801,-0.13431999,0.13431999,0.99093801,0,0)" y="143.3" x="-8.3" height="175.8" width="438.2" fill="none"/><path d="m299.7 371.1c-5.3-3.2-14.7-9.8-20.9-14.7-11.1-8.7-26.2-22.8-26.4-24.6-0.1-0.5 1.4-3.1 3.2-5.7 6.4-9 8.1-18.2 6.2-32.6-1.9-14.5-6.1-24.3-19.6-46.3-14-22.9-14.4-23.9-15.5-44-0.6-10.5-1.2-14.4-2.3-17-1.9-4.1-1.9-4.1 7.1-13.9 7.1-7.7 9.2-11.1 8.1-13.1-0.5-1-1.2-1-2.8-0.1-1.2 0.6-2.2 0.9-2.2 0.6-0.2-1.3 5.7-10.4 9.5-14.8 2.3-2.6 4.1-5.1 4.1-5.6-0.2-1.3-5.3-0.3-8 1.7-9.6 6.7 3.8-8.7 21.1-24.3 10.2-9.2 15.9-12.8 23.6-14.8 6.1-1.6 6.8-1.7 24.2-2.4 19.6-0.8 22.6-0.3 32.9 5 17.3 9 32.6 26.4 39.6 45 2.6 6.9 4.3 18.4 3.1 20.8-0.9 1.6-1.2 1.6-5.1 0.8-10.2-2.2-18.3-0.9-23.5 3.8-3.2 2.8-4 4.8-2.4 6 0.6 0.4 6.4 1 13 1.2 18.2 0.6 24.7 4.4 25.3 14.9 0.2 2.6 0.1 4.9-0.1 5.2-0.2 0.3-3.9-0.8-8.3-2.3-7.9-2.8-7.9-2.8-17.8-1.4-8.6 1.2-10.4 1.7-13.4 3.9-4.3 3.1-4.6 3.1-4.5 0.7 0.1-5.1 14.4-9.8 25.8-8.4 9.7 1.1 11.2 0.3 6.3-3.4-3.6-2.7-10.5-3.6-19.3-2.6-9.1 1.1-13.8 3.1-16.2 6.9-2 3.1-2.1 4.8-0.8 11.8 1.8 9.7 8.1 26.1 10 25.9 0.5-0.1 0.3-4.1-0.4-9.5-0.8-5.8-0.9-9.4-0.3-9.5 0.5-0.1 2.4 0.3 4.3 0.8 4.9 1.3 9.4 0.4 12.7-2.5 4.2-3.7 5.4-4.1 7.3-2.5 1.2 1 1.8 2.6 1.9 5.3l0.2 3.9 8.4-0.9 8.4-0.9 1.1 11.8c1.2 13.2 1.2 28.5-0.1 35.6-1.7 9.8-22 64.8-29.7 80.8-5 10.2-11.4 18.7-14 18.5-20.9-2.1-30.5-2.4-30.3-1.1 0 0.3 1.3 1.6 2.7 2.9 5.4 4.9 1.1 3.7-14.2-3.7-11-5.4-15.9-7.3-16.5-6.5-0.7 0.9 2.8 3.5 13.2 9.8 9.9 6 12.6 9 4.2 4.6-6.8-3.5-13.1-7.5-26.4-16.6-6.5-4.5-12.4-8.1-13.2-8-3 0.4 3.8 6.3 21.7 18.4 18.5 12.6 18.3 12.4 16.5 12.7-0.8 0.1-5.9-2.4-11.2-5.6l0 0zm53.5-46.7c0.8-0.7 2.7-4.1 4.2-7.5 2.4-5.7 5.1-8.8 8-9.2 1.6-0.2 3.9-3.4 3.6-5.1-0.1-0.9-1.2-2-2.4-2.4-1.2-0.4-3.7-1.8-5.6-3.1l-3.5-2.3-13.8 2c-12.8 1.8-14.2 2.2-19 5.1-5.4 3.2-10 4.4-11.2 3-0.4-0.4-1.5-0.7-2.4-0.6-1.8 0.2-3.4 4.4-2.4 6.3 0.3 0.6 3.4 1.4 6.8 1.8 5.1 0.7 6.5 1.2 8 3.3 7.5 10.4 22.3 14.8 29.7 8.9l0 0zm2.6-39.6c7.1-3.2 12.2-7.1 14.4-10.9 1.8-3.2 1.9-4 0.7-9.6-1-4.9-2.1-7.2-5.4-11.7-3.9-5.3-5.5-6.8-7-6.6-1.3 0.2 0 4.3 3.6 11.7 2.1 4.1 3.9 8.4 4 9.5 0.3 2.6-3.5 6.8-9.9 10.8-5.3 3.3-8.3 6.7-7.1 8.1 0.9 1.1 1.2 1.1 6.7-1.4l0 0zm-9.6-6.9c11.9-4.8 8.5-10.4-3.8-6.1-5.2 1.8-7.8 3.4-11 6.7-4.5 4.7 2.3 4.4 14.8-0.6l0 0zM266.9 226.7c-0.7-2.4-0.8-4.6-0.4-4.9 0.4-0.3 3.1-0.1 6 0.6 6.6 1.5 10.5 0.4 13.2-3.8 1.1-1.7 1.8-3.7 1.7-4.5-0.4-2.8 1.9-5.8 4.7-6.2 2-0.3 4.1 0.6 8.5 3.8 5.9 4.3 7 4.4 6.5 0.8-0.4-3.2-6-7.4-12.7-9.6-6.1-2-6.2-2-16-0.1-5.5 1.1-11.2 2.4-12.7 2.9-4.6 1.5-3.5-0.7 1.8-3.6 2.7-1.4 7.4-3.4 10.4-4.4 7-2.2 10.7-1.8 20.8 2.3 8.7 3.5 11.4 3.7 10 0.7-3.1-6.8-16-10.3-31.1-8.2-9.1 1.2-14.4 3.6-18.5 8.5-4.1 4.8-8.8 13.8-8.4 16.4 0.6 4.5 11.7 14.4 15.6 13.8 1.7-0.2 1.8-0.6 0.7-4.6zm-0.6-37.4c6.5-2.3 11.6-3.4 20.7-4.6 13.5-1.7 15.1-2.2 14.8-4.5-0.3-1.9-2.4-3.4-7-5.1-2.5-0.9-5.3-1-11.4-0.1-12.7 1.7-23.2 6.7-29.3 13.9-5.4 6.4-5.1 6.5 12.2 0.4z" fill="#fff"/><g transform="translate(1621.6911,-42.981684)"><path d="m-1434.4 303.3c-16.5 2.7-25.7 3.5-32.5 2.2-9.1-1.9-13.7-6.1-19.8-18.6-4.3-9.2-6.4-11.5-9.8-13.3-3.8-1.7-6.1-2.3-15.3-1.5-10.1 0.9-34.3 2-48.5 2.1-13.3 0-16.8 0.5-21.5 1.6-3.9 0.5-3.9 1-4.6 2-1.1 1.9-0.5 3.2 4.1 14.1 4.7 11.8 6 15.2 6.7 19.9 0.6 4.8 0.7 5.2-0.5 6.3-1.6 1.1-3 0.8-5-0.7-3.1-3.6-5.1-8.2-4.5-10.5 0.3-0.9 0.3-1.4-2.5-9-6.9-18.1-7.7-24.2-4.4-29.1 5.1-8.2 37.7-22.9 69.4-31.2 6-1.7 12.4-3.5 14.1-4.1 1.7-0.7 12.2-5.2 23.5-10.3 34.3-15.3 41.1-17.6 65.6-23.5 19.3-4.8 27.2-5.9 44.8-7 11-0.6 16.2-1.3 22.2-3.4 5.1-1.6 8.9-3.4 21.2-10.9 17.7-10.4 33.5-17.9 46.4-20.9 3.9-1 8.2-2 9.9-2.2 3-0.4 20.3-0.5 22.1-0.3 0.4-0.1 1 0.8 1.5 1.6 1.2 2.1 8.4 32.1 8.6 33.9 0.1 0.9 0 3.1-0.2 5.3-0.2 1.8-0.1 5.8 0.3 8.4 0.8 22.1-1.5 31.7-10.3 38.7-4.8 3.8-9.3 6.6-17 9-5.5 2.1-20.7 4.1-27.8 4.2-11.1 0.2-26.2-10.2-35.2-24.1-2.2-2.8-2.3-4.1-3.2-7.5-1-3.9-1-4.3-0.5-6.6 0.5-2.7 0.2-4.9-1.4-6.9-1-1.2-1.5-1.1-2.9-1.4-3.5 0-8.5 2.9-9.9 5.8-0.7 1.4-1.2 4.6-2.1 13.6-3.1 35.9-8.8 46.4-29.5 57.2-12.9 6.6-35.4 13.7-51 16.7z" fill="none"/><rect width="438.2" height="175.8" x="-1621" y="-32" transform="matrix(0.99093801,-0.13431999,0.13431999,0.99093801,0,0)" fill="none"/><path d="m-1369.2 374.7c-0.1-0.5 1.4-3.1 3.2-5.7 6.4-9 8.1-18.2 6.2-32.6-1.9-14.5-6.1-24.3-19.6-46.3-14-22.9-14.4-23.9-15.5-44-0.6-10.5-1.2-14.4-2.3-17-1.9-4.1-1.9-4.1 7.1-13.9 7.1-7.7 9.2-11.1 8.1-13.1-0.5-1-1.2-1-2.8-0.1-1.2 0.6-2.2 0.9-2.2 0.6-0.2-1.3 5.7-10.4 9.5-14.8 2.3-2.6 4.1-5.1 4.1-5.6-0.2-1.3-5.3-0.3-8 1.7-9.6 6.7 3.8-8.7 21.1-24.3 10.2-9.2 15.9-12.8 23.6-14.8 6.1-1.6 6.8-1.7 24.2-2.4 19.6-0.8 22.6-0.3 32.9 5 17.3 9 32.6 26.4 39.6 45 2.6 6.9 4.3 18.4 3.1 20.8-0.9 1.6-1.2 1.6-5.1 0.8-10.2-2.2-18.3-0.9-23.5 3.8-3.2 2.8-4 4.8-2.4 6 0.6 0.4 6.4 1 13 1.2 18.2 0.6 24.7 4.4 25.3 14.9 0.2 2.6 0.1 4.9-0.1 5.2-0.2 0.3-3.9-0.8-8.3-2.3-7.9-2.8-7.9-2.8-17.8-1.4-8.6 1.2-10.4 1.7-13.4 3.9-4.3 3.1-4.6 3.1-4.5 0.7 0.1-5.1 14.4-9.8 25.8-8.4 9.7 1.1 11.2 0.3 6.3-3.4-3.6-2.7-10.5-3.6-19.3-2.6-9.1 1.1-13.8 3.1-16.2 6.9-2 3.1-2.1 4.8-0.8 11.8 1.8 9.7 8.1 26.1 10 25.9 0.5-0.1 0.3-4.1-0.4-9.5-0.8-5.8-0.9-9.4-0.3-9.5 0.5-0.1 2.4 0.3 4.3 0.8 4.9 1.3 9.4 0.4 12.7-2.5 4.2-3.7 5.4-4.1 7.3-2.5 1.2 1 1.8 2.6 1.9 5.3l0.2 3.9 8.4-0.9 8.4-0.9 1.1 11.8c1.2 13.2 1.2 28.5-0.1 35.6-1.7 9.8-22 64.8-29.7 80.8-5 10.2-31.6 26.4-34.2 26.1-3.1 8.5-4.7 14.7-7.8 17.4-22.6-9.6-28-19.1-34.2-22.2-12.4-6.2-27.8-19.4-38.6-35.2zm100.9-7.4c0.8-0.7 2.7-4.1 4.2-7.5 2.4-5.7 5.1-8.8 8-9.2 1.6-0.2 3.9-3.4 3.6-5.1-0.1-0.9-1.2-2-2.4-2.4-1.2-0.4-3.7-1.8-5.6-3.1l-3.5-2.3-13.8 2c-12.8 1.8-14.2 2.2-19 5.1-5.4 3.2-10 4.4-11.2 3-0.4-0.4-1.5-0.7-2.4-0.6-1.8 0.2-3.4 4.4-2.4 6.3 0.3 0.6 3.4 1.4 6.8 1.8 5.1 0.7 6.5 1.2 8 3.3 7.5 10.4 22.3 14.8 29.7 8.9zm2.6-39.6c7.1-3.2 12.2-7.1 14.4-10.9 1.8-3.2 1.9-4 0.7-9.6-1-4.9-2.1-7.2-5.4-11.7-3.9-5.3-5.5-6.8-7-6.6-1.3 0.2 0 4.3 3.6 11.7 2.1 4.1 3.9 8.4 4 9.5 0.3 2.6-3.5 6.8-9.9 10.8-5.3 3.3-8.3 6.7-7.1 8.1 0.9 1.1 1.2 1.1 6.7-1.4zm-9.6-6.9c11.9-4.8 8.5-10.4-3.8-6.1-5.2 1.8-7.8 3.4-11 6.7-4.5 4.7 2.3 4.4 14.8-0.6zm-79.4-51.2c-0.7-2.4-0.8-4.6-0.4-4.9 0.4-0.3 3.1-0.1 6 0.6 6.6 1.5 10.5 0.4 13.2-3.8 1.1-1.7 1.8-3.7 1.7-4.5-0.4-2.8 1.9-5.8 4.7-6.2 2-0.3 4.1 0.6 8.5 3.8 5.9 4.3 7 4.4 6.5 0.8-0.4-3.2-6-7.4-12.7-9.6-6.1-2-6.2-2-16-0.1-5.5 1.1-11.2 2.4-12.7 2.9-4.6 1.5-3.5-0.7 1.8-3.6 2.7-1.4 7.4-3.4 10.4-4.4 7-2.2 10.7-1.8 20.8 2.3 8.7 3.5 11.4 3.7 10 0.7-3.1-6.8-16-10.3-31.1-8.2-9.1 1.2-14.4 3.6-18.5 8.5-4.1 4.8-8.8 13.8-8.4 16.4 0.6 4.5 11.7 14.4 15.6 13.8 1.7-0.2 1.8-0.6 0.7-4.6zm-0.6-37.4c6.5-2.3 11.6-3.4 20.7-4.6 13.5-1.7 15.1-2.2 14.8-4.5-0.3-1.9-2.4-3.4-7-5.1-2.5-0.9-5.3-1-11.4-0.1-12.7 1.7-23.2 6.7-29.3 13.9-5.4 6.4-5.1 6.5 12.2 0.4z" fill="#fff"/><path d="m-1343.2 398.1c9 7.8 50.7 23.9 56.8 16 0.6-0.8-10.3 13.5-7.8 18.4-7.3-0.6-64.8-39.8-64.8-39.8l7.1-0.5z" fill="#f2f2f2"/><path d="m-1235.1 453.5c-27.1-7.4-57.9-13.7-56.3-25.1 1.6-10.6 4.4-13.3 15.1-14.2 15.3-1.4 19.1-5.8 31.1-35.7 5.3-13.3 7.6-11.8 18.7-17 8-3.7 13.6-8.2 18.4-14.6 3.8-5.1 11.4-13 16.9-17.5 5.8-4.8 12.8-13.4 16.8-20.5 3.8-6.9 14.1-19.6 23.5-29 12.4-12.4 17.6-19.3 20.5-26.9 3.6-9.7 3.7-11 0.8-25.5-2.9-14.8-6.6-22-16.8-32.7-17.2-18-53.8-21.9-70.8-7.5-3.9 3.3-7.3 5.6-7.7 5.2-0.4-0.4-3.3-6-6.5-12.3-8.3-16.3-12.7-22.2-30.9-41-16.9-17.5-31.6-28.8-39.9-30.7-2.8-0.6-10.3-3.8-16.9-7-19.1-9.5-38.1-12.8-64.3-11.3-19 1.1-23.4 0.7-28.7-2.1-3.6-1.9-12.9-3.8-21.7-4.4-11.5-0.8-15.4-1.7-15.4-3.8 0.1-4.4-7.1-3.4-13.6 2-3.3 2.7-6.6 4.9-7.2 4.8-0.7 0-1.1-3.6-1.1-7.9 0.1-4.3-0.7-8.4-1.8-9.1-3.4-2.2-10 2.8-16.1 12.1l-5.9 9.1-3-7.5c-2.1-5.3-4-7.4-6.5-6.9-2.8 0.5-3.6 2.6-3.7 9.6-0.1 4.9 0.5 12.4 1.3 16.7l1.5 7.7-6.8-4.4c-3.7-2.4-8.4-4.4-10.3-4.4-3.4-0.1-3.4-0.2 0-3.8 1.9-2.1 3.2-5.4 2.8-7.4-0.8-3.8-1.6-4-9-1.9-6.5 1.8-8-4-2.6-9.7 2.8-2.9 4.4-7 4.5-11.8 0.2-9.2-3.7-9.7-10.5-1.3l-5 6.1-0.8-10.3c-1-12.6-4.2-16.9-8.5-11.3-1.6 2.1-3 6.6-3.1 9.9l-0.2 6.1-3-6c-4.4-8.8-12.5-17.2-16.7-17.2-5.9-0.1-4.4 6.8 3.1 14.6 7.8 8.1 10 16.8 2.4 9.4-5.2-5-10.6-4.6-10.2 0.8 0.2 2.1-2.2 6.7-5.2 10.2-11.5 13.5-14.6 18.1-14.7 21.6 0 2-1.6 7.4-3.5 12-2.6 6.5-4.3 8.3-7.5 7.9-6.6-0.8-6.6 6 0 13.2 3.2 3.5 6.8 8.5 8.1 11.1 2.1 4.3 2 4.5-1.7 2.5-6.1-3.4-8.2-2.7-8.3 2.5-0.1 5.3 8.8 14.2 18.6 18.7 5 2.3 5.2 2.7 1.6 2.7-6.3 0-10.7 1.9-10.7 4.7-0.1 3.5 8.8 8 13.5 6.9 3.5-0.9 3.3 0-1.9 7.9-6.8 10.3-11.1 27-9.5 36.8 1 5.8 0.5 7-3 7.9-5.9 1.4-5.3 6.7 1.1 10.3 3 1.7 4.4 3.1 3.2 3.1-7.6 0.1-17.5 17.7-10.1 17.8 4.5 0.1 3.6 2.7-3.2 8.9-3.5 3.2-6.1 7.7-6.2 10.5-0.1 4.5 0.4 4.8 7.7 3.8l7.7-1.1-1.2 8.9c-1 7.3-0.5 9.2 2.4 10.3 2.6 1 5.1-0.3 8.9-4.8l5.4-6.2 3 6.6c7 15.4 16.9 23.1 22.6 17.5 1.7-1.6 3.9-1 8.3 2.3 3.3 2.5 6 5.3 6 6.3-0.1 3.4 12.1 16.1 21.6 22.5l11.6-0.3-4 9.7c-2.2 5.3-5.1 16.1-6.4 24-5.4 32.4 3.9 67-5.6 80.2 70.9 10 227.5 87.7 295.2-10.9zm-117-20.2c0-0.9 1.4-1.2 3-0.5 1.6 0.7 3 2 2.9 2.9 0 0.9-1.4 1.2-3 0.5-1.6-0.7-3-2-2.9-2.9zm-142.3-12.3c5.8-11 9.3-12.8 9.1-4.7-6.2 14.1-20.6 26.6-9.1 4.7zm129.5 6.3c-0.6-1.1 0.7-5.3 3-9.4 8.4-15.6 2.9 18.3-3 9.4zm-11.8-11.7c4.6-13 5.3-13.6 4.1-3.8-1.3 10.5-2.7 13.8-5.2 12.2-0.9-0.6-0.4-4.4 1-8.5zm-139.7-0.6c1.6-3 5.4-7.6 8.5-10.3l5.5-4.9-2.6 4.9c-2.4 4.6-12.1 15.7-13.7 15.7-0.4 0 0.7-2.5 2.3-5.4zm183.6-7.2c-9.7-6.8-22.1-17-27.6-22.7l-10.1-10.2 4.7-6.7c12.2-17.3 7.8-44.6-12.2-75.1-15.5-23.7-17.2-28.2-17.3-46.4 0-9.1-1.1-16.1-2.7-18.1-2.3-2.9-1.4-4.5 6.8-13 8.9-9.1 11.5-13.8 7.9-13.9-0.9 0-2.8 1.1-4.2 2.4-1.5 1.3-0.8-1.1 1.5-5.5 2.3-4.3 6-9.5 8.4-11.6 7-6.1 2.7-7.6-5.2-1.8-11.3 8.3-5.6 0.6 13.8-18.4 22.7-22.3 27.2-24.3 56.1-25.1 22.8-0.6 23.3-0.6 34.9 5.7 24.2 13 43.7 43.4 41.8 65.2-0.2 2.7-1.5 3-7.7 1.4-8.6-2.1-15.9-1-21 3.3-6.7 5.6-4.3 7.5 8.9 7 17.1-0.8 26 4.1 26.7 14.7 0.3 4 0.1 7.3-0.4 7.3-0.5 0-4.3-1.5-8.5-3.4-9.6-4.2-23.1-3.1-30.9 2.5-5.7 4-5.8 4-5.8 0.3 0.1-5.8 15.4-10.8 27.5-8.9 9 1.4 9.2 1.3 5.9-2.1-4.5-4.7-21.8-4.9-30.8-0.4-7.9 4-8.5 9.1-2.9 26.3 4.2 13.1 9.1 20.2 6.8 10-3.3-14.9-3.2-15.4 1.6-13.8 2.5 0.8 5 1.5 5.5 1.5 4.2 0.1 6.5-0.9 10.2-4.4 3.4-3.2 4.8-3.6 7-1.6 1.7 1.4 2.3 4 1.6 6.3-1.2 3.5-0.6 3.7 7.7 2.6l9-1.2 1.4 7.7c0.8 4.2 1.2 15.8 1 25.6-0.4 19.1 1.2 14-24.9 82.8-3.6 9.5-8.4 20.7-11.6 24.6 0 0-4.3 6.7-7.4 8.6-10 2.5-17 3.2-19.3 4-8.9 4-8.5 15.7-10.4 17.9-2.3 0-26.4-16.6-36.1-23.5zm61.6-39.2c3.2-1.5 5.7-5 7-9.7 1.4-5.2 3.3-7.6 6.6-8.3 4.7-1.1 6.8-6.9 2.5-7-1.3 0-3.9-1.5-5.9-3.4-3-2.8-4.4-3-9.6-0.9-3.3 1.3-8.2 1.8-10.9 1-3.5-1-7.6 0.3-14.4 4.5-6.5 3.9-10.2 5.2-11.8 3.8-2.6-2.2-4.9-0.7-5 3.2 0 1.7 2.4 2.7 6.9 2.8 4.9 0.1 7.5 1.3 9 4.1 4 7.8 18.5 13.3 25.7 9.9zm-18.7-7.7c-2.8-1.1-5.1-3.1-5-4.3 0-1.5 1.1-1.4 3.4 0.5 2.3 1.9 2.9 2 1.9 0.3-1-1.7-0.1-2.5 2.6-2.4 2.9 0.1 3.7 1 2.7 3.4-1 2.4-0.6 2.9 1.3 1.7 1.8-1.1 2.2-0.8 1.2 0.7-1.8 2.8-1.7 2.7-8 0.2zm26.4-34.8c15.3-7.7 17.2-16.1 7.1-30.3-7.9-11.2-9.5-7.5-2.4 5.7 5.3 9.9 5.3 10 1.5 14.1-2.1 2.3-6.1 5.2-8.9 6.4-4.9 2.3-8.4 7.3-5.1 7.2 0.9 0 4.4-1.4 7.7-3.1zm-14.4-4.7c5.2-1.7 9.5-4.3 9.6-5.8 0.1-4.4-13.9-1.4-19.8 4.3-5.9 5.7-3.9 6 10.3 1.5zm-76.6-49.9c-0.8-1.4-1.6-4-1.7-5.8-0.2-2.8 0.7-3 5.6-1.2 8.6 3.2 15.4-0.4 15.6-8.1 0.2-8.2 7.6-8.8 15.5-1.2 3.8 3.7 4.4 3.8 4.5 0.9 0.1-4.7-11.4-11.5-19.7-11.5-3.8 0-10.6 1.2-15 2.7-9.7 3.3-11.7 3.4-9.8 0.5 2.2-3.4 17.3-9.3 23.6-9.3 3.1 0 9.2 1.9 13.7 4.2 8.8 4.4 11.5 4.1 7.6-0.8-6.1-7.6-29-9.2-41.9-2.8-5.6 2.8-14.2 15.4-14.3 21.1-0.1 3.6 10.7 13.7 14.6 13.8 2.1 0 2.8-0.8 1.8-2.4zm-1-39.7c8.9-3.4 17.9-5.3 24.5-5.2 11.5 0.1 14.3-3.5 5.8-7.5-9.5-4.5-31.5 1.7-41 11.6-2.7 2.8-4.5 5.4-4.1 5.8 0.5 0.4 7.1-1.7 14.9-4.6zm-93.5 182.5c-0.4-1.3 1.4-1.7 4.6-1 3.8 0.8 4.5 1.5 2.5 2.7-3.2 1.9-6.2 1.2-7.1-1.7zm62-4c0.6-1.4 1-0.2 1 2.5-0.1 2.7-0.5 3.9-1.1 2.5-0.5-1.4-0.5-3.6 0.1-5zm-33.6-6.7-3-6.4 5 5.7c2.7 3.1 5 6.6 4.9 7.7-0.1 3.5-3.9-0.3-7-7zm12.2 3.7c-0.6-1.8-0.3-2.6 0.8-1.9 1.1 0.7 1.9 2.1 1.9 3.1-0.1 2.9-1.5 2.2-2.7-1.3zm-65-9.5c1.9-3.2 2.1-3.1 2.1 0.8 0 2.4-0.7 6-1.6 7.9-1.4 3.3-1.6 3.2-2.1-0.8-0.3-2.4 0.4-6 1.6-7.9zm-17.7 1.9c2.1-6 2.9-6.8 4.4-4 1.2 2.3 0.7 4.7-1.9 8-4.8 6.2-5.6 5-2.5-4zm-20.3-4.6c4.5-6.3 9.7-12.8 11.7-14.4 3.2-2.6 3.4-2.4 1.9 2.1-1.6 4.7-19.7 25.7-21.1 24.4-0.4-0.3 3-5.8 7.5-12.1zm76.9 4.5c-8.1-9.6-9.5-12-6.3-10.7 1.6 0.6 6.2 5.3 10.3 10.4 7.4 9.2 3.7 9.5-4 0.3zm-21.7 3.7c-2.9-2.4-4.9-4.7-4.4-5.2 1.3-1.3 14.5 4.8 16 7.4 2.3 3.9-6.1 2.3-11.6-2.2zm47.5-20.9c-14-4.8-14.4-5.8-1.9-4.4 13.6 1.5 16.6 3.3 21.2 12.8 6 12.4 4.4 15.5-2.6 4.8-5.2-8-8.1-10.3-16.8-13.2zm-29.4 1.9c0.6-0.6 3.1 1 5.5 3.6l4.3 4.7-5.5-3.6c-3-2-5-4.1-4.3-4.7zm-25.5 5.8c1.4-0.5 3.6-0.5 5 0.1 1.4 0.6 0.2 1-2.5 1-2.7-0.1-3.9-0.5-2.5-1.1zm-44.4-14.4c4.1-6 8.4-10.8 9.5-10.8 2.6 0-1 6.7-9 16.3-8.9 10.7-9.3 7.2-0.5-5.5zm94.5-4.6c1.4-0.5 4-0.5 6 0 1.9 0.5 0.8 1-2.5 0.9-3.3 0-4.9-0.5-3.5-1zm-37.5-3.9c-2.1-4.1-2-4.3 1-1.7 1.8 1.5 3.2 3.6 3.2 4.5-0.1 3-1.8 1.9-4.2-2.8zm-23.6-12c-2.4-1.4-10-3.3-16.9-4.2-10.6-1.5-13.3-2.8-18.4-8.6-3.3-3.7-6-7.7-6-8.8 0-1.1 2.2 0.9 4.9 4.5 3.8 5.1 6.9 6.8 14.3 7.9 15.3 2.3 27.2 7.2 32.4 13.1 9.3 10.7 10.3 13.5 2.3 6.1-4.5-4.1-10.1-8.6-12.6-9.9zm0.3-9.8c-6-3.4-9.2-6.2-7.2-6.2 6.7 0.1 25.5 13.6 27.9 20.1 0.7 1.9-1.1 1-4.3-2.2-3-3-10.4-8.3-16.4-11.7zm42.6 10.6c-0.5-0.9 0.9-1.1 3.1-0.5 2.2 0.6 4.4 1.8 4.9 2.7 0.5 0.9-0.9 1.1-3.1 0.5-2.2-0.6-4.4-1.8-4.9-2.7zm43.6-0.8c3.6-3.9 4.7-11.5 1.7-12.6-1-0.4-0.5-2.9 1-5.6 2.1-3.6 2.9-4 2.9-1.5 0 2.1 1.1 3 2.8 2.4 1.5-0.6 3.5 0.1 4.3 1.5 1.1 1.8 1.9 1.5 3.1-1.3 1.4-3.5 1.6-3.4 1.6 0.8 0.1 5.9-5.8 16.7-8.2 15.1-1-0.7-3.9 0.1-6.4 1.8-6 4-7 3.8-2.8-0.6zm-42.6-8.2c-4.4-2.9-7.6-5.6-7.2-6.1 1.7-1.6 17.3 6.5 17.3 8.9 0 3.5-1 3.2-10.1-2.8zm-50-13.7c-5.9-0.2-19.2-3.1-31.5-7-4.2-1.3-7.6-3.8-8.2-6-1.1-4.6-0.7-4.6 7.2-0.3 6.4 3.5 12.6 5.2 34.1 9.4 7 1.4 15.8 4.9 21.3 8.6 5.1 3.4 9.3 6.5 9.3 6.8 0 0.3-6-2.1-13.4-5.4-7.3-3.3-15.9-6.1-18.9-6.1zm-64.8-15.8c-3.2-5.9-5.8-12-5.7-13.6 0-1.6 2.7 2 5.8 8 3.1 5.9 8.6 14.6 12.2 19.2 10 12.8 10.7 15.3 1.7 5.8-4.5-4.7-10.7-13.4-13.9-19.4zm141.5 19.3c2.9-4.5 0.8-7.9-2.7-4.5-1.3 1.3-3.6 2.3-5 2.3-1.6 0 0.1-3.8 4.3-9.4 3.8-5.2 8.4-12 10.2-15.3 4.3-7.6 4.6-1.5 0.3 8.1-3.1 7-0.7 12.3 2.9 6.8 1.3-2 1.8-1.4 1.7 2.2-0.1 7.4 4 2.3 7.3-9.1 2.6-9.1 2.8-9.2 2.8-2.7 0 9.4-7.4 23.4-12.9 24.4-10.4 1.8-11.6 1.4-8.9-2.7zm-58-8.2c0-2.1 3.9-0.6 8.2 3.3l4.6 4.2-6.4-3.3c-3.5-1.8-6.4-3.7-6.4-4.2zm-10.9-3.1c-1.4-2.4 0.5-2.3 6 0.1 3.8 1.7 3.8 1.8-0.4 1.8-2.4 0-4.9-0.8-5.6-2zm-17.9-4.4c-2.8-1.3-1.5-1.5 4-0.5 4.4 0.7 8.3 1.7 8.8 2.1 1.7 1.5-9 0.2-12.8-1.6zm66.6-13.2c2-5.1 4.4-9.3 5.4-9.3 1 0 3.6-1.5 5.8-3.4 3.9-3.3 3.9-3.3 1.5 1.2-3.1 5.7-1.5 7.8 3.1 4.2 3.1-2.5 3.2-2.3 0.7 2.2-1.5 2.7-4.4 7-6.5 9.6l-3.8 4.7 0-4.8 0-4.8-4.3 5.4c-2.4 3-4.6 5.1-4.9 4.8-0.3-0.3 1.1-4.7 3-9.9zm-19.4-5.5c0.2-10.4 1.2-13.1 8.6-23.8 4.6-6.6 9.3-12 10.5-12 1.2 0 0.6 1.7-1.2 3.6-4.7 5-4.7 9.9 0.1 5.9 7.6-6.3 9.1-5.8 3.6 1.1-3.9 5-4.8 7.2-2.9 7.3 1.6 0 4-1 5.5-2.4 1.5-1.3 0.4 1.1-2.3 5.3-5.4 8.4-9.8 11.1-9.7 6.1 0-1.7-0.9-3.2-2-3.2-2.7-0.1-8.1 12.2-8.2 18.7-0.1 2.8-0.5 5-1.1 5-0.5 0-0.9-5.3-0.8-11.7zm-137.3-8.6c0.2-6.2 2.7-2.3 4.6 6.9 1.1 5.7 1 5.8-1.8 2.1-1.6-2.2-2.9-6.2-2.8-9zm67.7 5.2c-2.5-1.6-2.2-2.6 1.5-6.4 2.4-2.5 5-7 5.8-10 3.2-11.9-12.1-17.7-20.5-7.7-3.2 3.8-4.7 4.3-6.5 2.5-1.8-1.9-1.2-3.7 2.9-8.5 2.9-3.3 4.9-7.2 4.4-8.6-0.5-1.4 1.3-3.7 4-5.1 4.4-2.2 5.6-2 10.1 1.7 2.8 2.3 6.4 3.8 7.8 3.3 1.4-0.5 3.1 0.5 3.8 2.2 0.7 2 3.6 3.2 8.2 3.3 5 0.1 7 1 7 3.2 0 1.7 1.7 6.7 3.9 11.1 4.1 8.3 3.6 12.5-1.2 10.5-1.5-0.6-3.8 0.7-5 3-3.6 6.5-5.5 4.7-5.2-4.8 0.2-4.9-0.7-10-2.1-11.4-2-2-2.5-0.7-2.6 6.7-0.1 7-1.3 10.3-4.6 13.3-4.9 4.4-7.2 4.8-11.6 1.9zm-11.7-6.1c-2.1-1.4-1.7-2.1 1.7-3.1 2.6-0.8 6.1-4.8 8.4-9.5l3.9-8.2-0.1 6.2c0 3.4-2 8.5-4.3 11.4-4.6 5.6-5.6 6-9.6 3.3zm77.4-12.4c3.8-9.5 3.9-12.2 0.4-12.3-1.7 0-7.5 14.3-8.9 21.8-0.6 3.4-0.9 2.5-1-2.6-0.1-4.1 1.3-10.7 3-14.6 3.6-8.2 3.9-10.6 1.4-10.6-1 0-3.7 3.7-6 8.4l-4.3 8.4 0-7.5c0-5.8 1.6-9.1 6.8-14.6 5.9-6.2 8.1-7.2 17.6-7.7 10.7-0.6 10.8-0.6 4 1.8-3.8 1.3-7.3 3.6-7.8 5.2-0.8 2.2 0.6 2.5 6.8 1.4l7.8-1.3-5.6 4.2c-6.9 5.3-7.4 9.1-0.6 4.8 2.8-1.7 5-2.3 5-1.2 0 1.1-2.3 3.4-5.1 5.2-2.8 1.8-7.6 8.1-10.7 14.1-6.7 13-8.4 11.2-2.7-2.9zm237.8-7.5c-1.9-0.6-2.4 0.1-1.7 2.2 2.7 7.4 3.6 18 1.5 16.6-1.2-0.8-2.7-4.7-3.4-8.8-1-5.9-1.5-6.6-2.7-3.6-1.2 3.1-1.6 2.6-2.6-2.9-1-5.3-0.3-7.7 2.9-10.9 2.7-2.8 4.1-6.9 4.2-12.5 0.2-9.3 1.8-10.2 7.1-4.2 1.9 2.2 4.3 4.1 5.2 4.1 2.8 0.1 2-6.7-1.3-11.7-4.7-7-1.6-7.6 4.9-0.9 4.4 4.6 5.7 7.9 5.9 14.8 0.1 4.9 0.3 10.7 0.4 12.9 0.5 10.3-1.1 23-2.6 22-1-0.6-2.3-4.5-3-8.5-0.7-4.1-2.5-9.3-4.1-11.6-2.6-3.7-2.7-2.8-2 9.8l0.8 14-3.3-9.9c-1.8-5.4-4.6-10.3-6.1-10.8zm-368.7 3.9c3.2-8.4 6.7-8.2 6.9 0.5 0.2 4.9-0.7 6.4-4.1 6.8-5.9 0.8-6 0.6-2.9-7.4zm53.4 4c2.2-4 6.2-7.2 6.1-5-0.1 2.7-4.4 8.9-6.3 8.8-1.3 0-1.2-1.4 0.2-3.9zm-39.6-12.2c0.1-4.4 1.6-2.9 3.7 3.9 1.9 6 1.8 6.2-0.8 2.6-1.6-2.2-2.9-5.1-2.8-6.5zm97.8-14c2.4-3.9 4-7.6 3.4-8.2-2.1-2.2-6.6 1.3-10.1 7.6-3.2 5.9-3.5 6.1-2.3 1.2 2.1-8.9 4.7-14.3 8.7-17.6 4.9-4.2 12.8-6.4 12.8-3.6 0 1.2 2.9 2.3 6.4 2.5 5.4 0.3 5.7 0.5 1.5 1.2-7.7 1.2-9.8 4.4-3 4.6l5.9 0.2-6.1 4.8c-3.3 2.6-7.5 4.8-9.3 4.7-1.8 0-4.8 2.2-6.6 4.9-5.2 7.6-6.2 5.8-1.3-2.3zm-83.1-12.2c2.5-4.3 4.9-7.5 5.3-7.1 1.1 1.2-6.5 14.9-8.3 15-0.9 0 0.5-3.5 3-7.8zm9.5 0.7c3.2-5.6 8.3-11.4 8.3-9.6 0.1 2.7-6.8 13.1-8.6 13.1-0.9 0-0.7-1.6 0.3-3.5zm366.9-11.7c-1.2 0-1.6 1.3-1 3 3.9 10.3 3.9 10.2-0.9 6l-4.6-4.1 1 4.2c0.7 3.1-1.5 1.8-8.6-5.1l-9.5-9.3 6.5-0.9 6.5-0.9-4.9-3.6c-2.7-2-6-3.6-7.4-3.6-1.4 0-2.5-0.8-2.5-1.8 0-2.5 12.6 0.9 20 5.4 7.7 4.7 13 12 14.4 19.9 1 5.8 0.9 5.7-2.9-1.5-2.2-4.2-5-7.6-6.1-7.6zm-389.7 1.8c-2.6 3.4-2.8 3.3-2.7-1.5 0.1-3.8 2.8-7.4 10-13.1 10.2-8.2 15.3-10.5 9.9-4.5-5.7 6.4-6.7 9.1-3 7.8 3.8-1.4 3.3-0.2-3.7 9.1-3.6 4.8-4.3 5-5.9 2.1-1.7-3.1-2-3.1-4.6 0.3zm-24.3-14c0.2-13.8-3-15.2-5-2.1-2.3 15.3-2.8 16-2.8 3.9 0-11.8 3.4-20.6 12.2-31.1 4.8-5.8 5.4-4 1.1 3.9-2.9 5.3-2.8 5.6 0.8 4.7 2.1-0.5 5.4-3.1 7.2-5.8 6.2-9.1 5.4-2.8-1 8-3.5 5.9-6.4 12.8-6.5 15.4-0.1 3.7 1.3 2.5 6.2-5.8 3.5-5.8 6.8-10 7.5-9.3 0.7 0.7-0.7 3.7-3 6.7-2.3 3-4.9 9.2-5.8 13.8-1.6 8.7-5.3 11.5-5.1 4 0.1-6.7-2.2-2.9-2.5 4.2-0.5 11.2-3.5 1.8-3.3-10.4zm115.5 4.5c-2.2-1.5-1.4-1.8 3-0.9 3.3 0.6 4.6 0.6 3-0.2-1.6-0.7-3.5-2.2-4.1-3.1-0.6-1-3.8 0.1-7 2.3-4.2 3-3.9 2.4 1.2-2 8.9-7.7 21.5-11.2 24.7-7 1.2 1.6 4 3.9 6.2 5.2 3.4 2 2.9 2.3-4 2.3-4.4 0-6.8 0.6-5.3 1.2 2.3 1 2.3 1.4-0.1 2.8-3.7 2.3-14 1.9-17.7-0.6zm-35.6-1.6c-3.3 1-4.7-0.4-8-8.1-5.8-13.5-6.7-26.9-2.4-37.3l3.5-8.5-4.4 4.1c-3.2 3-4.7 7.5-5.7 16.3-1.4 12.6-2.6 14.3-6.6 9.3-1.7-2.2-1.7-4 0-7 1.3-2.2 1.8-4.1 1.2-4.1-0.6 0 0.8-3.6 3.1-7.9 2.3-4.3 3.3-7.9 2.1-7.9-1.2 0-2.6 1.3-3.3 2.9-2.8 6.8-4.4 2-3.8-11 0.6-11.8 1.5-14.7 5.9-19.3 2.8-3 5.7-6.9 6.4-8.7 0.7-1.8 3.3-3.6 5.8-3.9 2.7-0.3 5.7-2.9 7.3-6 1.8-3.7 4.3-5.4 7.4-5.3 2.6 0 5.1-1 5.5-2.2 0.5-1.3 3.9-2.5 7.6-2.7 3.7-0.2 7.8-1.7 9.1-3.5 3.3-4.4 10.9-3.9 10.8 0.7-0.1 6 2.5 6.8 6.4 2l3.6-4.5 3.4 4.5c2.4 3.1 4.7 4.2 7.7 3.4 3.2-0.8 4.6 0 5.6 3.3 1.7 5.8 0.2 6.9-10.1 6.8-9.4-0.1-17.8 5.6-25.5 17.5-3.6 5.5-3.8 5.6-3.8 1.3 0-2.6-0.8-4.1-1.9-3.4-1.1 0.7-2.1 4.6-2.2 8.8-0.1 5.9 0.7 7.9 3.8 8.7 2.2 0.6 4 0.3 4-0.7 0-2.3 16-13.5 19-13.4 1.2 0.1 0.1 1.8-2.4 3.8-6.1 4.9-5.8 8.3 0.6 7.7 8.3-0.8 7.7 3.9-0.8 5.8l-7.6 1.7 5.9 3.9c3.2 2.1 7.2 5.5 8.8 7.4 1.6 2 4.3 3.9 5.9 4.2 1.6 0.4 4.1 2 5.5 3.7 2.2 2.6 2.2 2.4 0.5-1.3-1.1-2.4-4.2-6.2-6.9-8.4-5.6-4.6-6.2-7.5-1.8-9.1 3.9-1.4 4-8 0.1-11.3-2-1.7-2.6-4.3-1.8-7.3 1-3.6 0.3-5-3.1-6.3l-4.3-1.7 4.8-3.2c2.6-1.8 6.4-3.2 8.3-3.2 1.9 0 5.3-1.6 7.5-3.7 3-2.9 5.2-3.4 9.5-2.2 4.8 1.4 5.6 2.6 5.5 8.7-0.1 3.9 1.3 8.8 3.1 10.9 3.6 4.2 5.3 10.4 2.9 10.7-0.9 0.1-3.8-2.6-6.5-6-2.8-3.4-6.9-6.1-9.3-6.1-4.1 0-4 0.2 1.1 4.6 6.7 5.7 6.8 7.5 0.2 7.3-6.4-0.1-5.5 4.3 1.2 6 2.9 0.7 5 2.9 5.3 5.4 0.3 2.3 2.7 5.3 5.4 6.8 6 3.4 6 8-0.1 12.3-4.5 3.2-4.9 3.1-9.2-1.7-2.5-2.7-5.4-5-6.5-5-1.1 0-0.1 1.8 2.2 4.1 5 4.8 7.1 12 5.1 17.8-2 6-4.6 5-3.5-1.4 0.8-5.3-3.7-14.7-6-12.4-0.6 0.6-0.1 4 1.1 7.5 1.8 5 1.7 6.9-0.2 8.7-1.9 1.9-2.4 1.4-2.4-2.1 0.2-8.4-9.6-23-13.1-19.6-0.8 0.7-0.5 2 0.7 2.8 2.8 1.9 8.4 13.5 8.4 17.4-0.1 5.5-3.7 3.2-5.8-3.7-1.1-3.7-4.3-8.8-6.9-11.4-5.9-5.8-6.1-4.5-0.8 4.9 2.2 3.9 3.6 8.4 3 9.9-1 2.5-17 6.1-18.8 4.2-0.5-0.5 1.1-3.8 3.4-7.5 2.3-3.6 4.3-9 4.3-11.8 0.1-6.7-7-17.7-14.9-23-8.3-5.6-13.9-26.5-8-30 1.1-0.7 2-2.3 2-3.6 0-2.5-7.1 4.9-8.6 8.9-0.6 1.7-1.8 1.4-4.3-1.1-4.7-4.9-21-4.7-21.1 0.2 0 0.9 2.6 0.7 5.8-0.5 6.8-2.4 16.1 0.8 16 5.6 0 1.5 1.3 3.4 2.9 4 1.6 0.7 4.3 4.7 5.9 9 1.6 4.3 5.1 8.8 7.7 10.1 12.9 6.2 14.3 26.6 2.5 36.7-3.5 3-6.3 6.4-6.3 7.7-0.1 3.6-12.5 0.1-16.2-4.5-3.5-4.3-2.8-10 2.2-17.4 4.2-6.2-0.2-5.7-5.4 0.7-7.7 9.4-3.9 22 7.7 25.9 4.6 1.5 4.6 4.2 0 6.6-2.3 1.2-4.3 1.2-5.9-0.2-1.3-1.1-4.2-1.5-6.4-0.9zm26-19.9c7.7-7.2 12.5-16.2 8.6-16.3-1.1 0-4 3.2-6.5 7.1-2.6 4-7.6 8.3-11.6 9.9-5.4 2.1-6.4 3.2-4.3 4.6 4.4 2.9 5.4 2.5 13.8-5.4zm-29.8-7.3c0.4-11.6 15.3-21.7 21.9-14.8 3.3 3.4 2.8 7.6-1.1 11.9-3.7 4-2.6 6.7 2.1 5 4.2-1.5 6.3-10.5 3.7-16.4-3.4-7.8-9.7-9.3-19-4.4-9.2 4.8-13.4 13.9-9.9 21.6 1.9 4.1 2.1 3.9 2.3-2.8zm-1.2-33.5c0-1-0.9-2.4-1.9-3.1-1.1-0.7-1.9-3-1.9-5.1 0.1-3.9 3.2-4.7 13.9-3.6 4.3 0.4 4.6 0.1 2.3-2.7-6.3-7.9-23.8-0.5-21.1 9 1.7 6 8.6 10.5 8.7 5.7zm329.4 46.1-8.3-4.2 6.5 0c3.6 0 6.5-0.8 6.5-1.8 0.1-3.6-7.7-4.4-15-1.5-9.7 3.9-11 3.6-5.1-1.1 2.6-2.1 7.1-3.8 10-3.8 2.9 0 6.5-0.7 8-1.6 2.2-1.4 2.1-2.1-0.9-3.9-3.5-2.1-3.5-2.2 0.5-2.2 11.3 0 34.4 14.4 34.2 21.3 0 1.1-1.3 0.1-2.9-2.2-3-4.5-16.4-12-18.2-10.3-0.6 0.6 2.5 5 6.9 9.8 4.4 4.8 8 9.8 8 11.2 0 3.3-0.6 3.2-5.9-1.6-6-5.4-8.7-3.3-5.1 3.9 4.3 8.8 3.5 8.8-4.1 0.1-3.8-4.4-10.6-9.8-15.2-12.1zm-356.2 7c2.4-3.3 4.9-5.5 5.5-4.9 1 1-7.4 10.9-9.2 10.9-0.4 0 1.2-2.7 3.7-6zm-18.5-4.7c2.3-2.4 5.3-6.6 6.8-9.3l2.6-4.9-5.3 3.4c-2.9 1.8-5.3 2.9-5.3 2.3 0.1-5.8 15.1-26.6 17.4-24.2 0.6 0.7-0.7 4.6-3 8.7-4.5 8.1-3.9 12.2 0.9 5.9 3.4-4.5 3.8-0.7 0.6 5.5-2 3.9-15.8 16.9-17.9 16.9-0.5 0 1-2 3.3-4.4zm6.5-37.3c12-15.2 12.1-11.2 0.1 6.6-4.5 6.7-6.8 8.7-7.2 6.5-0.3-1.8 2.9-7.7 7.1-13.1zm347.2 17.7c3.1-2.8 14-5.9 14-3.9 0 1.3-12 6.5-15 6.6-1.1 0-0.6-1.2 1-2.6zm-206.9-22.8c0.1-2.7 4.4-5.4 13.1-8 4.4-1.3 17.3-6.6 28.6-11.7 34.3-15.5 41.9-17.3 65.2-16.1 17.5 0.9 21.2 1.7 26.8 5.9 8.1 6 6.9 7.9-2 3.1-8.7-4.7-36-5.3-52.9-1.1-13 3.2-62.9 22.7-69.8 27.2-4.5 3-9.1 3.3-9 0.8zm-166.3-9.5c-1.4-2.3-0.8-2.3 6.8 0.5 3.4 1.3 6.2 3.1 6.2 4 0 2-11.5-1.9-13-4.5zm29-0.3c2.6-2.7 5.6-4.9 6.7-4.9 1.1 0-0.5 2.2-3.5 4.9-3 2.7-6 4.9-6.7 4.9-0.7 0 0.9-2.2 3.5-4.9zm-36.3-7.6c-3.3-4-3.2-4 9.7-3.4 13.5 0.6 20.2 3.6 7.6 3.4-3.9-0.1-8.2 0.8-9.4 2-3.1 3-4 2.7-7.9-1.9zm114.1-3.8c2.3-4.1 6.2-7.1 6.1-4.8 0 1.5-6.2 8.6-7.5 8.6-0.4 0 0.2-1.7 1.4-3.8zm-78.7 0.4c0.7-1.1 2.3-1.9 3.6-1.9 1.4 0 1.2 0.8-0.7 2-3.9 2.4-4.6 2.4-3-0.1zm-12.8-8.2c-2.2-1.5-1.3-2 3.6-1.9 3.9 0.1 6.1 0.9 5.3 2.1-1.6 2.5-5.1 2.4-9-0.2zm-22.9-2c0.6-0.6 2.2 0 3.5 1.4 1.9 2 1.7 2.2-1.1 1.1-2-0.8-3-1.9-2.4-2.5zm171.5-2.3c0.1-2.7 2.1-4.1 7.6-5.1 4.1-0.8 10.9-3.1 15-5.1 18.9-9.1 61.3-15.3 75-10.9 4.6 1.5 11.3 3.6 14.9 4.8 11.4 3.6 4.9 4.4-12.1 1.5-14.8-2.5-18.1-2.4-34.4 0.9-9.9 2-27.9 7.1-40.1 11.2-12.1 4.1-23 7.3-24 7-1.1-0.3-2-2.2-1.9-4.2zm-132.7-4.5c1.8-3.9 3.6-6 4-4.8 0.6 2-5 11.9-6.7 11.9-0.4 0 0.8-3.2 2.6-7zm-53.4-7.9c0.1-7.8 1.4-7.4 4.9 1.4 3.7 9.2 3.6 9.4-1.1 6.7-2.6-1.4-3.9-4.2-3.8-8.1zm38.8 4.8c0.7-1.1 2.6-1.9 4.3-1.9 1.6 0 2.4 0.9 1.7 2-0.7 1.1-2.6 1.9-4.3 1.9-1.6 0-2.4-0.9-1.7-2zm-20.8-4.3c0.1-4 5.5-7.9 11-7.8 1.9 0 3.1 1.8 3 4.7-0.1 6-1.6 7.3-8.4 7.2-4.3-0.1-5.6-1-5.6-4zm20.1-7.8c0.1-4.9 4.7-4.1 5.6 0.9 0.3 2-0.7 3.3-2.6 3.3-1.8 0-3.1-1.8-3.1-4.2zm-29.4-0.9c-2.3-3-2.4-17-0.1-18.4 1.3-0.8 2.5 1.5 4.6 9 0.2 0.6 1 2.2 1.9 3.6 1.8 3 0.2 8.4-2.5 8.3-1 0-2.7-1.2-3.8-2.6zm11.7-10.5c0-1.4 2.3-4.1 5.1-5.8 3.9-2.4 5.7-2.6 7.8-0.8 3.2 2.8 1.8 10.1-2.7 13.5-2.5 2-3.8 1.8-6.7-0.9-2-1.8-3.5-4.5-3.5-6zm20.3 1c-0.3-2 0.7-3.3 2.6-3.3 1.8 0 3.1 1.8 3.1 4.2-0.1 4.9-4.7 4.1-5.6-0.9zm115.3-2c0-0.4 1.4-1.3 3.1-1.9 1.8-0.6 2.6-0.3 1.9 0.8-1.2 1.9-5 2.7-5 1.1zm-15-4.5c2.2-1.6 4.9-2.8 6-2.7 1.2 0.1-0.2 1.3-2.9 2.9-6.5 3.6-8.1 3.5-3.1-0.1zM-1566.9 86.5c0-1.7 0.6-3.7 1.4-4.5 2.3-2.3 8.5 5.2 8.4 10.2-0.1 4.7-0.1 4.7-4.9 1.1-2.7-2-4.9-5.1-4.9-6.8zm-20.1 4.7c0-1.6 0.9-2.9 1.8-2.8 2.2 0 4.2 5.2 2.7 6.8-1.8 1.7-4.6-0.7-4.5-3.9zm7.9-5.1c-1.8-3.6-1.6-4.8 1.3-6.9 4.4-3.1 6.2-2.1 7.3 4.3 1.4 8.2-4.8 10.1-8.7 2.6z" fill="#000"/><path d="m-1499.8 223.7c-0.4-0.2-1-0.5-1.4-0.8-1.4-1-3.8-1.3-6.3-0.8-2.9 0.6-4-0.2-6.2-4.5-2.8-5.5-5.3-13.1-6.3-19.5-0.4-2.6-0.6-7.3-0.3-9.9 0.5-5.4 1.1-7.9 4.1-15.1 1-2.5 1.8-4.6 1.8-4.7 0-0.1-1.3 1-2.8 2.4-3 2.9-4.1 4.5-5.2 7.3-0.8 2.1-1.6 6.1-2.1 10.7-0.6 5.1-1 7.6-1.5 9.2-0.4 1.4-1.2 2.4-1.8 2.4-0.5 0-2.8-2.1-3.4-3.2-1.2-2.1-1.2-3 0.5-6.5 0.9-1.9 1-2.3 1.1-3.6 0-1.8 0-1.7 2.5-6.9 2.3-4.8 3.2-7.1 3.2-8.3 0-0.9-0.3-1.1-1.2-0.8-1 0.3-2 1.4-3.1 3.6-1.2 2.3-1.7 2.7-2.2 1.7-0.7-1.1-1-3.7-1-8.7 0-9.3 0.8-15.3 2.4-18.8 0.9-1.9 1.4-2.7 4.2-5.8 2.5-2.8 4.5-5.5 5.4-7.4 0.4-0.7 0.9-1.6 1.3-2 0.9-1 2.9-2.1 4.8-2.5 3.1-0.7 5.4-2.6 7.5-6.1 2.3-3.9 3.8-5 7.6-5.3 2.8-0.2 4.4-0.9 5.2-2.1 1-1.5 3.2-2.3 7.4-2.8 4.8-0.5 7.4-1.5 9.8-3.8 1.9-1.8 3.1-2.4 5.2-2.5 2-0.1 2.9 0.1 3.9 0.9 1 0.9 1.1 1.2 1.4 3.9 0.2 2.4 0.7 3.5 1.6 3.8 1.3 0.5 2.9-0.6 5.4-3.6 1-1.2 2.1-2.6 2.5-3l0.7-0.7 1.8 2.4c3.4 4.6 5.1 5.8 8.1 5.5 4.2-0.4 4.1-0.4 4.8 0.1 1.6 1 3.1 5.9 2.2 7.5-0.8 1.5-2.5 1.9-9.6 2.2-3.8 0.1-5.3 0.3-6.6 0.7-2 0.5-5.6 2.2-7.5 3.5-3.8 2.6-7.7 6.8-11.9 12.9-2.5 3.7-3.3 4.6-3.5 4.6-0.1 0-0.2-1.1-0.3-2.4-0.2-2.7-0.6-3.8-1.4-4-1.7-0.2-2.8 3.6-2.8 9.9 0 2.9 0.1 3.9 0.4 4.8 0.7 1.9 2.2 3 4.5 3.3 1.9 0.2 2.6 0 3-1 0.4-1 1.2-1.9 3.5-3.8 3.9-3.3 9.5-7 12.7-8.5 1.9-0.9 2.7-1.1 2.8-0.5 0.1 0.4-0.7 1.2-4.3 4.7-2.5 2.4-3.3 4.2-2.3 5.4 0.6 0.7 1.7 0.9 5.2 0.9 3 0 4.2 0.2 4.9 0.8 0.9 0.8 0 2.2-2.1 3.3-1.3 0.7-4.6 1.6-8.7 2.4-1.7 0.4-3 0.7-3 0.8 0 0.1 1.6 1.2 3.6 2.5 4.9 3.2 6.8 4.8 10.3 8.2 3.4 3.3 4.5 4.1 6.6 4.9 2.3 0.9 3.3 1.6 5.3 3.6 1 1 1.9 1.8 2 1.8 0.3 0-0.1-1.4-0.9-2.9-1.2-2.5-3.4-5.1-7-8.6-5.6-5.3-6-7-2.1-8.8 1.6-0.8 2-1.1 2.5-2.3 1.4-2.9 0.5-6.4-2.1-9.2-2-2.2-2.6-4-1.9-6.9 0.5-2.3 0.5-3.9 0-4.7-0.5-0.9-1.8-1.7-4.6-2.7-1.3-0.5-2.4-1-2.4-1 0-0.2 4.7-3.2 6.4-4.2 2.1-1.1 4.1-1.8 6.3-2 2.4-0.3 4.8-1.5 7.1-3.4 2-1.7 3-2.3 4.1-2.7 2.4-0.8 7.6 0.4 9.5 2.2 1.1 1 1.3 1.8 1.5 5.8 0.3 6 1.2 9.2 3.7 12.5 2.1 2.8 3.4 5.8 3.4 7.9 0 1.4-0.4 2-1.2 1.8-0.7-0.2-3.4-2.7-6-5.7-2.4-2.7-4.6-4.5-6.9-5.6-1.4-0.7-1.7-0.7-3.4-0.7-3.1 0.1-3 0.5 1 4.1 3.2 2.8 5.2 5 5.6 5.9 0.2 0.6 0 1.3-0.6 1.5-0.2 0.1-1.7 0.2-3.4 0.3-2.3 0.1-3.2 0.3-3.9 0.6-2.5 1.3-0.8 3.9 3.6 5.3 3.8 1.3 5.4 2.7 6.2 5.7 0.7 2.7 2.3 4.8 5.4 6.8 2.3 1.5 3 2.1 3.7 3.3 1.4 2.3 0.7 4.6-2.1 7.2-1.9 1.8-4.5 3.5-5.6 3.7-1.2 0.2-1.9-0.3-5.3-3.8-4.2-4.2-7-6-7-4.5 0 0.7 0.8 1.9 2.6 3.7 2 2.1 3.1 3.7 4.1 5.8 1.3 2.8 1.6 4.3 1.6 7.3 0 2.3-0.1 2.9-0.6 4.5-0.6 1.9-1.5 3.4-2.2 3.8-0.3 0.2-0.5 0.1-0.8-0.2-0.3-0.3-0.4-0.9-0.4-4.9 0-5-0.2-5.9-1.8-9.3-1.2-2.4-2.4-3.7-3.5-3.7-0.7 0-1 0.6-1 2 0 1.6 0.2 2.4 1.5 6.6 1.5 4.7 1.3 6.3-0.6 8.1-0.9 0.8-1.4 1-1.7 0.5-0.1-0.2-0.2-1.5-0.3-2.9-0.2-4.1-1.5-7.9-4.1-12.3-2.7-4.6-5.9-7.7-7.8-7.7-0.8 0-1.7 0.9-1.7 1.6 0 0.4 0.5 1.1 1.5 2.2 2.5 2.7 5.3 7.9 7 12.9 1 2.8 1.1 5.3 0.4 6.3-1.1 1.7-3-0.5-5-5.8-1.2-3.3-2.3-5.4-4.3-8.3-1.9-2.9-6-6.8-7-6.8-0.9 0-0.5 1.3 2.2 6.5 3.4 6.7 4.6 10.2 3.9 11.6-0.9 1.8-9.2 4.3-15 4.6-2.7 0.1-3.5 0-3.5-0.7 0-0.5 1.7-4 3.5-7.1 2.5-4.3 3.9-8.2 4.2-11.2 0.5-6.4-5.9-16.8-14.3-23.2-1.3-1-2.7-2.2-3.2-2.7-4.4-5.1-7.7-14.1-7.7-20.9 0-3.4 0.4-4.8 2.2-6.4 1.5-1.4 2.1-2.4 2.1-3.5 0-1-0.2-1.2-1.1-0.7-2.1 1.1-6.1 5.9-7.5 9-0.8 1.7-1.4 1.7-3.8-0.5-1.6-1.5-3.8-2.6-6-3.1-4.6-1.1-9.3-1.1-12.8 0.1-2 0.7-3.3 2.1-2.8 3.2 0.2 0.6 2.8 0.3 5.7-0.6 2.1-0.7 2.6-0.7 5.1-0.7 3.3 0 5.6 0.5 7.7 1.8 2.2 1.3 3 2.3 3.3 4.4 0.2 1.6 0.9 2.7 1.9 3.4 2 1.4 2.3 1.6 3 2.6 1.2 1.6 2.3 3.5 3.8 6.9 2.5 5.6 4.8 8.5 8.4 10.6 2.4 1.4 5.6 4.4 6.8 6.5 3.7 6.3 4.1 14.6 1 21.6-1.4 3.2-2.7 4.9-6.5 8.6-3.8 3.8-5.1 5.4-5.7 7-0.3 1-0.5 1.1-1.4 1.4-2.6 0.8-9.4-1.5-13.3-4.5-1-0.8-2.3-2.7-2.9-4.1-0.8-2.3-0.7-4.9 0.4-8 0.7-1.9 0.9-2.3 3-5.9 2-3.3 2.4-4.7 1.5-5-1.9-0.6-7.5 4.9-9.4 9.2-2.2 5-1.8 10.6 1.2 15 2 3 4.6 5 8.5 6.6 2.8 1.1 3.8 2 3.8 3.1 0 2.3-5.3 5.1-7.7 4.1l0 0zm11.2-15.2c1.9-1.1 4.4-3.3 8.1-7.1 5.6-5.6 8.9-10.7 9-13.7 0-1.2-0.4-1.7-1.5-1.7-0.9 0-3.4 2.6-6.1 6.4-3.6 5.1-7.1 8.2-12 10.4-4 1.9-4.7 2.3-5.2 2.9-0.6 0.8-0.3 1.3 1.1 2.3 2.5 1.7 4.3 1.8 6.5 0.5l0 0zm-23.1-8.3c0.1-0.2 0.2-1.8 0.4-3.6 0.1-1.8 0.4-3.9 0.6-4.8 1.8-6.5 7.9-12.4 14.1-13.6 3.6-0.7 6.9 1 8.5 4.1 0.6 1.3 0.7 1.5 0.6 3.1-0.1 2.2-0.8 3.6-2.8 6.1-0.8 1-1.7 2.2-2 2.7-0.5 1-0.6 2.6-0.2 3 1.2 1 5 0 6.2-1.7 3.1-4.2 3.5-10.9 1.1-15.9-3.4-6.9-9.5-8.1-18.3-3.8-4.6 2.3-8 5.6-9.9 9.5-1.1 2.3-1.6 4.4-1.6 6.9 0 2.4 0.4 4 1.6 6.5 0.9 1.8 1.3 2.2 1.6 1.4l0 0zm-1.5-36.9c0.6-0.4 0.8-1.6 0.5-2.7-0.2-0.5-0.8-1.4-1.5-2.2-1.5-1.5-2-2.9-2-5.1 0-3.8 2.8-4.6 12.7-3.8 5 0.4 5.5 0.2 4.1-1.9-0.9-1.5-2.1-2.5-3.9-3.3-1.4-0.7-1.7-0.7-4.1-0.8-2.3-0.1-2.8 0-4.6 0.5-2.9 0.8-4.9 1.9-6.7 3.8-1.8 1.8-2.5 3.1-2.8 5-0.3 2.3 0.4 4.7 2.4 7.2 1.1 1.4 2.1 2.3 3.5 3.1 1.1 0.6 1.8 0.6 2.5 0.1l0 0zM-1511.4 298.6c-2.1-1.5-1.9-2.1 2.3-8.3 2.5-3.7 4.5-8 4.5-9.6 0-4.5-2.4-8.9-5.8-10.4-5.9-2.7-10.5-1.4-17.1 4.7-2.8 2.6-3.7 2.9-4.6 1.5-0.7-1.2 0.3-3.8 3.2-7.9 2.3-3.4 4.3-7.1 4.3-8.3 0-1.2 1.7-3.1 3.8-4.4 3.8-2.2 3.9-2.2 8.7 1 2.7 1.8 5.9 3.2 7.2 3.2 1.3 0 3.3 1.1 4.6 2.5 1.4 1.5 4.7 2.8 8.3 3.3 5.4 0.7 6.2 1.2 7.2 4.7 0.6 2.1 2.3 6.9 3.8 10.6 3 7.4 2.6 9-1.7 9-1.8 0-3.9 1.4-5.4 3.4l-2.5 3.4-0.9-8.7c-1-9.3-2.5-13.6-4.4-12.4-0.7 0.4-1.2 2.8-1.2 5.3 0 7.6-2.3 13.7-6.2 16.4-4.2 3-5.1 3.1-8.1 0.9l0 0zM-1412.1 134.5c0-1.9 1.7-3 7.8-4.9 4.3-1.3 12.2-4.2 17.5-6.3 14.6-5.8 38.7-10.4 55.3-10.4 12.2 0 14.9 0.4 24.4 3.8 12.5 4.5 12 4.7-5.9 2-20.2-3-32.4-1-73.7 11.9-22.6 7.1-25.4 7.5-25.4 3.9zM-1409.6 167.1c0-2 3.1-3.7 13.2-7.5 5.5-2 18.4-7.3 28.7-11.8 32.7-14 37.4-15.3 56.3-15.3 19.2 0 26.1 1 31.8 4.4 4.9 3 4.5 4.3-0.6 2.3-12.9-4.9-42.4-3.6-61.8 2.7-15.3 5-46.3 17.3-56.1 22.2-7.7 3.9-11.4 4.8-11.4 2.7zM-1586.5 221.7c-0.8-11-2.1-15-4.1-13-0.4 0.4-1.5 4-2.4 7.9l-1.7 7.2 0.7-6.9c0.7-7.5 3.9-15.6 8.9-22.8 3.8-5.5 5.2-5.4 2.3 0.2-1.1 2.1-2 4.1-2 4.5 0 1.9 5.2 0.3 8.7-2.5 2.1-1.8 3.8-2.9 3.8-2.6 0 0.4-2.3 5.3-5 11-2.8 5.7-5 11.1-5 12 0 3 3.2 1.7 5.5-2.2 3.4-5.8 3.5-3.9 0.2 5.6-3.5 10.1-4.4 11.3-4.4 6 0-5.5-2.2-5-3.2 0.7-0.4 2.6-0.9 5.3-1.1 5.9-0.2 0.7-0.8-4.2-1.3-10.9zM-1560.1 212.9c0.4-0.5 1.9-2.3 3.3-3.9 1.4-1.7 3.2-3.9 4-5.1 1.6-2.5 4.7-7.9 4.5-8.1-0.1-0.1-1.5 0.7-3.2 1.8-3.2 2-6.5 3.8-7 3.8-0.5 0-0.4-0.6 0.8-3.4 3.2-7.7 13-20.7 15.7-20.7 1 0 0.2 2.7-2.9 8.9-3 6.2-3.7 8.9-2.1 8.9 0.3 0 1.6-1.1 3-2.6 2-2.1 2.5-2.5 2.7-2.1 0.4 0.7-0.4 3.7-1.8 6.3-0.9 1.8-2.2 3.2-6.6 7.7-5.1 5.1-9.9 9.3-10.7 9.3-0.2 0 0-0.4 0.4-0.9zM-1558.2 185.8c-0.9-2.2 5.9-12.6 13-20 1.8-1.9 2.4-2.4 2.5-2 0.3 1.6-9.1 16.6-13.3 21.2-1.2 1.3-1.9 1.6-2.2 0.8zM-1565.5 233.1c0-1.3 0.2-2.9 0.5-3.7 1.1-3.3 5.3-7.5 13.7-13.8 3.3-2.5 6.6-4.6 7.3-4.6 0.5 0-0.1 0.8-2.5 3.8-3.4 4.1-4.5 5.8-4.5 6.8 0 0.7 0.1 0.8 1.5 0.6 0.8-0.1 1.8-0.3 2.2-0.4 1.1-0.3 0.9 0.4-0.6 2.7-1.9 2.9-6.8 9.3-7.6 9.8-1.1 0.8-1.4 0.6-2.8-1.6-1.7-2.7-2.2-2.7-4.7 0.3-1.1 1.3-2.1 2.3-2.2 2.3-0.1 0-0.3-1-0.3-2.3zM-1542.5 219.9c0.4-0.9 3.8-5.9 5.3-7.5 1.6-1.8 3.3-3 3.3-2.3 0 1.1-5.7 8.1-7.9 9.7-0.8 0.6-0.9 0.6-0.8 0.1zM-1580.2 124c-1.7-4.4 5.2-9.7 10.1-7.8 2.2 0.9 2.5 5.9 0.4 8.1-2.1 2.1-9.7 1.9-10.5-0.3zM-1589.9 113c-2.1-3-2.8-14.2-0.9-15.3 1-0.6 6.5 11 6.5 13.8 0 0.8-0.8 2-1.8 2.8-1.4 1.2-2.2 0.9-3.8-1.4l0 0zM-1575.7 107.6c-3.4-3.6-2.8-5.5 2.9-9.8 2.7-2 3.6-2.2 5.2-0.8 2.7 2.2 2.4 6.6-0.7 10.5-3.2 4.1-3.7 4.1-7.5 0.1l0 0zM-1576.7 87.6c-3.3-4.2-3.4-6.3-0.1-8.1 3.3-1.8 4.6-0.8 5.6 3.9 0.6 2.7 0.3 4.4-1 5.7-1.6 1.6-2.2 1.4-4.5-1.6zM-1562.2 92c-3.4-2.7-4.7-7.9-2.3-9.4 1.7-1.1 6.6 6.4 6.1 9.4l-0.4 2.6-3.4-2.7zM-1556.4 107.9c-1.2-0.5-2.4-2.7-2.4-4.5 0-1 0.1-1.2 0.7-1.7 0.6-0.5 0.9-0.6 1.7-0.6 0.9 0 1.1 0.1 1.7 0.7 1.2 1.2 1.6 3.3 0.9 4.9-0.5 1.3-1.4 1.7-2.7 1.2zM-1585.1 95c-0.3-0.3-0.9-1-1.2-1.6-0.8-1.8-0.6-3.6 0.6-4.6 0.4-0.4 0.5-0.4 1.2-0.1 1.4 0.7 2.8 3.7 2.5 5.3-0.3 1.4-1.8 1.9-3.1 1zM-1594.5 130.4c-2.9-1.5-4.2-3.3-4.7-6.5-0.3-1.8 0-6.2 0.5-7 0.3-0.6 0.7-0.5 1.4 0.6 1.2 1.8 5 11.1 5.2 12.8 0.1 0.8 0.1 1-0.3 0.9-0.2 0-1.2-0.4-2.1-0.9l0 0zM-1548.6 136.3c0-0.5 1.1-3.3 2.4-6 1.1-2.3 2.5-4.5 3.3-5.3 0.4-0.4 0.5-0.4 0.6 0 0.5 1.2-2.7 7.7-5.1 10.5-0.8 1-1.3 1.2-1.3 0.8zM-1558.9 140c-0.6-0.2-1.6-0.7-2.1-1-2.8-1.7-2.6-2 1.1-2.1 2.8-0.1 5.2 0.2 6.2 0.8 0.9 0.4 0.7 1.1-0.3 1.9-0.7 0.6-1.1 0.7-2.3 0.7-1 0-1.8-0.1-2.6-0.3zM-1580.8 153.6c-1.3-0.5-5.4-5.4-5.3-6.3 0.1-0.6 0.7-0.8 3.7-0.8 7.2-0.1 16.7 0.8 20 1.9 2.8 0.9 2 1.2-3.7 1.4-7 0.3-9.1 0.8-11.3 2.6-1.4 1.2-2.4 1.5-3.4 1.1zM-1568.2 162.5c-2.9-0.8-6.8-2.6-8.2-3.7-0.6-0.5-1.3-1.6-1.3-2 0-0.4 0.9-0.2 4 0.8 5.3 1.8 9.7 4.3 9.2 5.2-0.2 0.4-2 0.3-3.7-0.2zM-1549.7 148.3c0-0.5 0.7-1.5 1.4-2.2 0.9-0.8 2.3-1.3 3.1-1.1l0.6 0.2-0.6 0.6c-0.5 0.5-4 2.7-4.4 2.7-0.1 0-0.1-0.1-0.1-0.2zM-1551.5 161.8c1.5-2.4 5.7-6.4 8.3-8 1.5-0.9 1.7-1 1.7-0.5 0 1.1-5.2 6-8.7 8.4-1.6 1-1.9 1.1-1.3 0.1zM-1471.6 149.5c0-1 3.5-6.2 5-7.5 1.8-1.5 2.5-1.3 1.6 0.5-0.8 1.5-6.6 7.6-6.6 6.9zM-1531.2 336.4c-2.2-2.4-5.7-6.9-7.9-9.9-4.1-5.7-11.1-19-10.7-20.3 0.1-0.4 2.3 2.8 4.8 7 5.4 9.2 9.5 15.4 14.6 22 2 2.7 3.6 5 3.4 5.2-0.2 0.2-2.1-1.7-4.2-4.1l0 0zM-1460.5 339.7c-10.4-4.5-14.6-5.8-22.8-6.9-7.5-1-23.5-4.9-29.4-7.1-4.4-1.6-7.2-4.2-7.2-6.5 0-0.9 0.3-1.6 0.6-1.6 0.4 0 3.1 1.2 6.1 2.7 7 3.5 10.8 4.7 25.9 7.8 13.5 2.8 17.4 4 24.1 7.3 4.9 2.4 12.9 7.8 11.5 7.7-0.5 0-4.4-1.6-8.7-3.4zM-1464.6 362.5c-9.2-8-10.8-8.7-25.6-11.5-10.1-1.9-13.4-3.2-16.8-6.4-2.9-2.8-7.6-8.8-7.2-9.2 0.2-0.2 1.8 1.4 3.6 3.5 1.8 2.1 4.5 4.3 5.9 5.1 1.4 0.7 6.4 2.1 11.1 3.1 10 2.1 18.1 4.8 22.9 7.5 3 1.7 12.2 10.8 12.2 12 0 1-1.1 0.3-5.9-4l0 0z" fill="#ececec"/></g><path d="" transform="matrix(3.5448571,0,0,3.5448571,0,-0.1855767)" fill="#ececec"/><path d="m-471.5 260.7c-16.5 2.7-25.7 3.5-32.5 2.2-9.1-1.9-13.7-6.1-19.8-18.6-4.3-9.2-6.4-11.5-9.8-13.3-3.8-1.7-6.1-2.3-15.3-1.5-10.1 0.9-34.3 2-48.5 2.1-13.3 0-16.8 0.5-21.5 1.6-3.9 0.5-3.9 1-4.6 2-1.1 1.9-0.5 3.2 4.1 14.1 4.7 11.8 6 15.2 6.7 19.9 0.6 4.8 0.7 5.2-0.5 6.3-1.6 1.1-3 0.8-5-0.7-3.1-3.6-5.1-8.2-4.5-10.5 0.3-0.9 0.3-1.4-2.5-9-6.9-18.1-7.7-24.2-4.4-29.1 5.1-8.2 37.7-22.9 69.4-31.2 6-1.7 12.4-3.5 14.1-4.1 1.7-0.7 12.2-5.2 23.5-10.3 34.3-15.3 41.1-17.6 65.6-23.5 19.3-4.8 27.2-5.9 44.8-7 11-0.6 16.2-1.3 22.2-3.4 5.1-1.6 8.9-3.4 21.2-10.9 17.7-10.4 33.5-17.9 46.4-20.9 3.9-1 8.2-2 9.9-2.2 3.1-0.4 20.3-0.5 22.1-0.3 0.4-0.1 1 0.8 1.5 1.6 1.2 2.1 8.4 32.1 8.6 33.9 0.1 0.9 0 3.1-0.2 5.3-0.2 1.8-0.1 5.8 0.3 8.4 0.8 22.1-1.5 31.7-10.3 38.7-4.8 3.8-9.3 6.6-17 9-5.5 2.1-20.7 4.1-27.8 4.2-11.1 0.2-26.2-10.2-35.2-24.1-2.2-2.8-2.3-4.1-3.2-7.5-1-3.9-1-4.3-0.5-6.6 0.5-2.7 0.2-4.9-1.4-6.9-1-1.2-1.5-1.1-2.9-1.4-3.5 0-8.5 2.9-9.9 5.8-0.7 1.4-1.2 4.6-2.1 13.6-3.1 35.9-8.8 46.4-29.5 57.2-12.9 6.6-35.4 13.7-51 16.7z" fill="none"/><rect width="438.2" height="175.8" x="-661.2" y="55.2" transform="matrix(0.99093801,-0.13431999,0.13431999,0.99093801,0,0)" fill="none"/><path d="m-359.1 371.5c-5.3-3.2-14.7-9.8-20.9-14.7-11.1-8.7-26.2-22.8-26.4-24.6-0.1-0.5 1.4-3.1 3.2-5.7 6.4-9 8.1-18.2 6.2-32.6-1.9-14.5-6.1-24.3-19.6-46.3-14-22.9-14.4-23.9-15.5-44-0.6-10.5-1.2-14.4-2.3-17-1.9-4.1-1.9-4.1 7.1-13.9 7.1-7.7 9.2-11.1 8.1-13.1-0.5-1-1.2-1-2.8-0.1-1.2 0.6-2.2 0.9-2.2 0.6-0.2-1.3 5.7-10.4 9.5-14.8 2.3-2.6 4.1-5.1 4.1-5.6-0.2-1.3-5.3-0.3-8 1.7-9.6 6.7 3.8-8.7 21.1-24.3 10.2-9.2 15.9-12.8 23.6-14.8 6.1-1.6 6.8-1.7 24.2-2.4 19.6-0.8 22.6-0.3 32.9 5 17.3 9 32.6 26.4 39.6 45 2.6 6.9 4.3 18.4 3.1 20.8-0.9 1.6-1.2 1.6-5.1 0.8-10.2-2.2-18.3-0.9-23.5 3.8-3.2 2.8-4 4.8-2.4 6 0.6 0.4 6.4 1 13 1.2 18.2 0.6 24.7 4.4 25.3 14.9 0.2 2.6 0.1 4.9-0.1 5.2-0.2 0.3-3.9-0.8-8.3-2.3-7.9-2.8-7.9-2.8-17.8-1.4-8.6 1.2-10.4 1.7-13.4 3.9-4.3 3.1-4.6 3.1-4.5 0.7 0.1-5.1 14.4-9.8 25.8-8.4 9.7 1.1 11.2 0.3 6.3-3.4-3.6-2.7-10.5-3.6-19.3-2.6-9.1 1.1-13.8 3.1-16.2 6.9-2 3.1-2.1 4.8-0.8 11.8 1.8 9.7 8.1 26.1 10 25.9 0.5-0.1 0.3-4.1-0.4-9.5-0.8-5.8-0.9-9.4-0.3-9.5 0.5-0.1 2.4 0.3 4.3 0.8 4.9 1.3 9.4 0.4 12.7-2.5 4.2-3.7 5.4-4.1 7.3-2.5 1.2 1 1.8 2.6 1.9 5.3l0.2 3.9 8.4-0.9 8.4-0.9 1.1 11.8c1.2 13.2 1.2 28.5-0.1 35.6-1.7 9.8-22 64.8-29.7 80.8-5 10.2-11.4 18.7-14 18.5-20.9-2.1-30.5-2.4-30.3-1.1 0 0.3 1.3 1.6 2.7 2.9 5.4 4.9 1.1 3.7-14.2-3.7-23.1-11.5-16.7-4.8-3.3 3.4 9.9 6 12.6 9 4.2 4.6-67.2-41.5 20.9 21-12.5 0.9l0 0zm53.5-46.7c0.8-0.7 2.7-4.1 4.2-7.5 2.4-5.7 5.1-8.8 8-9.2 1.6-0.2 3.9-3.4 3.6-5.1-0.1-0.9-1.2-2-2.4-2.4-1.2-0.4-3.7-1.8-5.6-3.1l-3.5-2.3-13.8 2c-12.8 1.8-14.2 2.2-19 5.1-5.4 3.2-10 4.4-11.2 3-0.4-0.4-1.5-0.7-2.4-0.6-1.8 0.2-3.4 4.4-2.4 6.3 0.3 0.6 3.4 1.4 6.8 1.8 5.1 0.7 6.5 1.2 8 3.3 7.5 10.4 22.3 14.8 29.7 8.9zm2.6-39.6c7.1-3.2 12.2-7.1 14.4-10.9 1.8-3.2 1.9-4 0.7-9.6-1-4.9-2.1-7.2-5.4-11.7-3.9-5.3-5.5-6.8-7-6.6-1.3 0.2 0 4.3 3.6 11.7 2.1 4.1 3.9 8.4 4 9.5 0.3 2.6-3.5 6.8-9.9 10.8-5.3 3.3-8.3 6.7-7.1 8.1 0.9 1.1 1.2 1.1 6.7-1.4zm-9.6-6.9c11.9-4.8 8.5-10.4-3.8-6.1-5.2 1.8-7.8 3.4-11 6.7-4.5 4.7 2.3 4.4 14.8-0.6zm-79.4-51.2c-0.7-2.4-0.8-4.6-0.4-4.9 0.4-0.3 3.1-0.1 6 0.6 6.6 1.5 10.5 0.4 13.2-3.8 1.1-1.7 1.8-3.7 1.7-4.5-0.4-2.8 1.9-5.8 4.7-6.2 2-0.3 4.1 0.6 8.5 3.8 5.9 4.3 7 4.4 6.5 0.8-0.4-3.2-6-7.4-12.7-9.6-6.1-2-6.2-2-16-0.1-5.5 1.1-11.2 2.4-12.7 2.9-4.6 1.5-3.5-0.7 1.8-3.6 2.7-1.4 7.4-3.4 10.4-4.4 7-2.2 10.7-1.8 20.8 2.3 8.7 3.5 11.4 3.7 10 0.7-3.1-6.8-16-10.3-31.1-8.2-9.1 1.2-14.4 3.6-18.5 8.5-4.1 4.8-8.8 13.8-8.4 16.4 0.6 4.5 11.7 14.4 15.6 13.8 1.7-0.2 1.8-0.6 0.7-4.6zm-0.6-37.4c6.5-2.3 11.6-3.4 20.7-4.6 13.5-1.7 15.1-2.2 14.8-4.5-0.3-1.9-2.4-3.4-7-5.1-2.5-0.9-5.3-1-11.4-0.1-12.7 1.7-23.2 6.7-29.3 13.9-5.4 6.4-5.1 6.5 12.2 0.4z" fill="#fff"/><path d="m-536.9 181.2c-0.4-0.2-1-0.5-1.4-0.8-1.4-1-3.8-1.3-6.3-0.8-2.9 0.6-4-0.2-6.2-4.5-2.8-5.5-5.3-13.1-6.3-19.5-0.4-2.6-0.6-7.3-0.3-9.9 0.5-5.4 1.1-7.9 4.1-15.1 1-2.5 1.8-4.6 1.8-4.7 0-0.1-1.3 1-2.8 2.4-3 2.9-4.1 4.5-5.2 7.3-0.8 2.1-1.6 6.1-2.1 10.7-0.6 5.1-1 7.6-1.5 9.2-0.4 1.4-1.2 2.4-1.8 2.4-0.5 0-2.8-2.1-3.4-3.2-1.2-2.1-1.2-3 0.5-6.5 0.9-1.9 1-2.3 1.1-3.6 0-1.8 0-1.7 2.5-6.9 2.3-4.8 3.2-7.1 3.2-8.3 0-0.9-0.3-1.1-1.2-0.8-1 0.3-2 1.4-3.1 3.6-1.2 2.3-1.7 2.7-2.2 1.7-0.7-1.1-1-3.7-1-8.7 0-9.3 0.8-15.3 2.4-18.8 0.9-1.9 1.4-2.7 4.2-5.8 2.5-2.8 4.5-5.5 5.4-7.4 0.4-0.7 0.9-1.6 1.3-2 0.9-1 2.9-2.1 4.8-2.5 3.1-0.7 5.4-2.6 7.5-6.1 2.3-3.9 3.8-5 7.6-5.3 2.8-0.2 4.4-0.9 5.2-2.1 1-1.5 3.2-2.3 7.4-2.8 4.8-0.5 7.4-1.5 9.8-3.8 1.9-1.8 3.1-2.4 5.2-2.5 2-0.1 2.9 0.1 3.9 0.9 1 0.9 1.1 1.2 1.4 3.9 0.2 2.4 0.7 3.5 1.6 3.8 1.3 0.5 2.9-0.6 5.4-3.6 1-1.2 2.1-2.6 2.5-3l0.7-0.7 1.8 2.4c3.4 4.6 5.1 5.8 8.1 5.5 4.2-0.4 4.1-0.4 4.8 0.1 1.6 1 3.1 5.9 2.2 7.5-0.8 1.5-2.5 1.9-9.6 2.2-3.8 0.1-5.3 0.3-6.6 0.7-2 0.5-5.6 2.2-7.5 3.5-3.8 2.6-7.7 6.8-11.9 12.9-2.5 3.7-3.3 4.6-3.5 4.6-0.1 0-0.2-1.1-0.3-2.4-0.2-2.7-0.6-3.8-1.4-4-1.7-0.2-2.8 3.6-2.8 9.9 0 2.9 0.1 3.9 0.4 4.8 0.7 1.9 2.2 3 4.5 3.3 1.9 0.2 2.6 0 3-1 0.4-1 1.2-1.9 3.5-3.8 3.9-3.3 9.5-7 12.7-8.5 1.9-0.9 2.7-1.1 2.8-0.5 0.1 0.4-0.7 1.2-4.3 4.7-2.5 2.4-3.3 4.2-2.3 5.4 0.6 0.7 1.7 0.9 5.2 0.9 3 0 4.2 0.2 4.9 0.8 0.9 0.8 0 2.2-2.1 3.3-1.3 0.7-4.6 1.6-8.7 2.4-1.7 0.4-3 0.7-3 0.8 0 0.1 1.6 1.2 3.6 2.5 4.9 3.2 6.8 4.8 10.3 8.2 3.4 3.3 4.5 4.1 6.6 4.9 2.3 0.9 3.3 1.6 5.3 3.6 1 1 1.9 1.8 2 1.8 0.3 0-0.1-1.4-0.9-2.9-1.2-2.5-3.4-5.1-7-8.6-5.6-5.3-6-7-2.1-8.8 1.6-0.8 2-1.1 2.5-2.3 1.4-2.9 0.5-6.4-2.1-9.2-2-2.2-2.6-4-1.9-6.9 0.5-2.3 0.5-3.9 0-4.7-0.5-0.9-1.8-1.7-4.6-2.7-1.3-0.5-2.4-1-2.4-1 0-0.2 4.7-3.2 6.4-4.2 2.1-1.1 4.1-1.8 6.3-2 2.4-0.3 4.8-1.5 7.1-3.4 2-1.7 3-2.3 4.1-2.7 2.4-0.8 7.6 0.4 9.5 2.2 1.1 1 1.3 1.8 1.5 5.8 0.3 6 1.2 9.2 3.7 12.5 2.1 2.8 3.4 5.8 3.4 7.9 0 1.4-0.4 2-1.2 1.8-0.7-0.2-3.4-2.7-6-5.7-2.4-2.7-4.6-4.5-6.9-5.6-1.4-0.7-1.7-0.7-3.4-0.7-3.1 0.1-3 0.5 1 4.1 3.2 2.8 5.2 5 5.6 5.9 0.2 0.6 0 1.3-0.6 1.5-0.2 0.1-1.7 0.2-3.4 0.3-2.3 0.1-3.2 0.3-3.9 0.6-2.5 1.3-0.8 3.9 3.6 5.3 3.8 1.3 5.4 2.7 6.2 5.7 0.7 2.7 2.3 4.8 5.4 6.8 2.3 1.5 3 2.1 3.7 3.3 1.4 2.3 0.7 4.6-2.1 7.2-1.9 1.8-4.5 3.5-5.6 3.7-1.2 0.2-1.9-0.3-5.3-3.8-4.2-4.2-7-6-7-4.5 0 0.7 0.8 1.9 2.6 3.7 2 2.1 3.1 3.7 4.1 5.8 1.3 2.8 1.6 4.3 1.6 7.3 0 2.3-0.1 2.9-0.6 4.5-0.6 1.9-1.5 3.4-2.2 3.8-0.3 0.2-0.5 0.1-0.8-0.2-0.3-0.3-0.4-0.9-0.4-4.9 0-5-0.2-5.9-1.8-9.3-1.2-2.4-2.4-3.7-3.5-3.7-0.7 0-1 0.6-1 2 0 1.6 0.2 2.4 1.5 6.6 1.5 4.7 1.3 6.3-0.6 8.1-0.9 0.8-1.4 1-1.7 0.5-0.1-0.2-0.2-1.5-0.3-2.9-0.2-4.1-1.5-7.9-4.1-12.3-2.7-4.6-5.9-7.7-7.8-7.7-0.8 0-1.7 0.9-1.7 1.6 0 0.4 0.5 1.1 1.5 2.2 2.5 2.7 5.3 7.9 7 12.9 1 2.8 1.1 5.3 0.4 6.3-1.1 1.7-3-0.5-5-5.8-1.2-3.3-2.3-5.4-4.3-8.3-1.9-2.9-6-6.8-7-6.8-0.9 0-0.5 1.3 2.2 6.5 3.4 6.7 4.6 10.2 3.9 11.6-0.9 1.8-9.2 4.3-15 4.6-2.7 0.1-3.5 0-3.5-0.7 0-0.5 1.7-4 3.5-7.1 2.5-4.3 3.9-8.2 4.2-11.2 0.5-6.4-5.9-16.8-14.3-23.2-1.3-1-2.7-2.2-3.2-2.7-4.4-5.1-7.7-14.1-7.7-20.9 0-3.4 0.4-4.8 2.2-6.4 1.5-1.4 2.1-2.4 2.1-3.5 0-1-0.2-1.2-1.1-0.7-2.1 1.1-6.1 5.9-7.5 9-0.8 1.7-1.4 1.7-3.8-0.5-1.6-1.5-3.8-2.6-6-3.1-4.6-1.1-9.3-1.1-12.8 0.1-2 0.7-3.3 2.1-2.8 3.2 0.2 0.6 2.8 0.3 5.7-0.6 2.1-0.7 2.6-0.7 5.1-0.7 3.3 0 5.6 0.5 7.7 1.8 2.2 1.3 3 2.3 3.3 4.4 0.2 1.6 0.9 2.7 1.9 3.4 2 1.4 2.3 1.6 3 2.6 1.2 1.6 2.3 3.5 3.8 6.9 2.5 5.6 4.8 8.5 8.4 10.6 2.4 1.4 5.6 4.4 6.8 6.5 3.7 6.3 4.1 14.6 1 21.6-1.4 3.2-2.7 4.9-6.5 8.6-3.8 3.8-5.1 5.4-5.7 7-0.3 1-0.5 1.1-1.4 1.4-2.6 0.8-9.4-1.5-13.3-4.5-1-0.8-2.3-2.7-2.9-4.1-0.8-2.3-0.7-4.9 0.4-8 0.7-1.9 0.9-2.3 3-5.9 2-3.3 2.4-4.7 1.5-5-1.9-0.6-7.5 4.9-9.4 9.2-2.2 5-1.7 10.6 1.2 15 2 3 4.6 5 8.5 6.6 2.8 1.1 3.8 2 3.8 3.1 0 2.3-5.3 5.1-7.7 4.1l0 0zm11.2-15.2c1.9-1.1 4.4-3.3 8.1-7.1 5.6-5.6 8.9-10.7 9-13.7 0-1.2-0.4-1.7-1.5-1.7-0.9 0-3.4 2.6-6.1 6.4-3.6 5.1-7.1 8.2-12 10.4-4 1.9-4.7 2.3-5.2 2.9-0.6 0.8-0.3 1.3 1.1 2.3 2.5 1.7 4.3 1.8 6.5 0.5l0 0zm-23.1-8.3c0.1-0.2 0.2-1.8 0.4-3.6 0.1-1.8 0.4-3.9 0.6-4.8 1.8-6.5 7.9-12.4 14.1-13.6 3.6-0.7 6.9 1 8.5 4.1 0.6 1.3 0.7 1.5 0.6 3.1-0.1 2.2-0.8 3.6-2.8 6.1-0.8 1-1.7 2.2-2 2.7-0.5 1-0.6 2.6-0.2 3 1.2 1 5 0 6.2-1.7 3.1-4.2 3.5-10.9 1.1-15.9-3.4-6.9-9.5-8.1-18.3-3.8-4.6 2.3-8 5.6-9.9 9.5-1.1 2.3-1.6 4.4-1.6 6.9 0 2.4 0.4 4 1.6 6.5 0.9 1.8 1.3 2.2 1.6 1.4l0 0zm-1.5-36.9c0.6-0.4 0.8-1.6 0.5-2.7-0.2-0.5-0.8-1.4-1.5-2.2-1.5-1.5-2-2.9-2-5.1 0-3.8 2.8-4.6 12.7-3.8 5 0.4 5.5 0.2 4.1-1.9-0.9-1.5-2.1-2.5-3.9-3.3-1.4-0.7-1.7-0.7-4.1-0.8-2.3-0.1-2.8 0-4.6 0.5-2.9 0.8-4.9 1.9-6.7 3.8-1.8 1.8-2.5 3.1-2.8 5-0.3 2.3 0.4 4.7 2.4 7.2 1.1 1.4 2.1 2.3 3.5 3.1 1.1 0.6 1.8 0.6 2.5 0.1l0 0zM-548.5 256.1c-2.1-1.5-1.9-2.1 2.3-8.3 2.5-3.7 4.5-8 4.5-9.6 0-4.5-2.4-8.9-5.8-10.4-5.9-2.7-10.5-1.4-17.1 4.7-2.8 2.6-3.7 2.9-4.6 1.5-0.7-1.2 0.3-3.8 3.2-7.9 2.3-3.4 4.3-7.1 4.3-8.3 0-1.2 1.7-3.1 3.8-4.4 3.8-2.2 3.9-2.2 8.7 1 2.7 1.8 5.9 3.2 7.2 3.2 1.3 0 3.3 1.1 4.6 2.5 1.4 1.5 4.7 2.8 8.3 3.3 5.4 0.7 6.2 1.2 7.2 4.7 0.6 2.1 2.3 6.9 3.8 10.6 3 7.4 2.6 9-1.7 9-1.8 0-3.9 1.4-5.4 3.4l-2.5 3.4-0.9-8.7c-1-9.3-2.5-13.6-4.4-12.4-0.7 0.4-1.2 2.8-1.2 5.3 0 7.6-2.3 13.7-6.2 16.4-4.2 3-5.1 3.1-8.1 0.9l0 0zM-449.3 92c0-1.9 1.7-3 7.8-4.9 4.3-1.3 12.2-4.2 17.5-6.3 14.6-5.8 38.7-10.4 55.3-10.4 12.2 0 14.9 0.4 24.4 3.8 12.5 4.5 12 4.7-5.9 2-20.2-3-32.4-1-73.7 11.9-22.6 7.1-25.4 7.5-25.4 3.9zM-446.8 124.6c0-2 3.1-3.7 13.2-7.5 5.5-2 18.4-7.3 28.7-11.8 32.7-14 37.4-15.3 56.3-15.3 19.2 0 26.1 1 31.8 4.4 4.9 3 4.5 4.3-0.6 2.3-12.9-4.9-42.4-3.6-61.8 2.7-15.3 5-46.3 17.3-56.1 22.2-7.7 3.9-11.4 4.8-11.4 2.7zM-623.7 179.2c-0.8-11-2.1-15-4.1-13-0.4 0.4-1.5 4-2.4 7.9l-1.7 7.2 0.7-6.9c0.7-7.5 3.9-15.6 8.9-22.8 3.8-5.5 5.2-5.4 2.3 0.2-1.1 2.1-2 4.1-2 4.5 0 1.9 5.2 0.3 8.7-2.5 2.1-1.8 3.8-2.9 3.8-2.6 0 0.4-2.3 5.3-5 11-2.8 5.7-5 11.1-5 12 0 3 3.2 1.7 5.5-2.2 3.4-5.8 3.5-3.9 0.2 5.6-3.5 10.1-4.4 11.3-4.4 6 0-5.5-2.2-5-3.2 0.7-0.4 2.6-0.9 5.3-1.1 5.9-0.2 0.7-0.8-4.2-1.3-10.9zM-597.3 170.4c0.4-0.5 1.9-2.3 3.3-3.9 1.4-1.7 3.2-3.9 4-5.1 1.6-2.5 4.7-7.9 4.5-8.1-0.1-0.1-1.5 0.7-3.2 1.8-3.2 2-6.5 3.8-7 3.8-0.5 0-0.4-0.6 0.8-3.4 3.2-7.7 13-20.7 15.7-20.7 1 0 0.2 2.7-2.9 8.9-3 6.2-3.7 8.9-2.1 8.9 0.3 0 1.6-1.1 3-2.6 2-2.1 2.5-2.5 2.7-2.1 0.4 0.7-0.4 3.7-1.8 6.3-0.9 1.8-2.2 3.2-6.6 7.7-5.1 5.1-9.9 9.3-10.7 9.3-0.2 0 0-0.4 0.4-0.9zM-595.3 143.3c-0.9-2.2 5.9-12.6 13-20 1.8-1.9 2.4-2.4 2.5-2 0.3 1.6-9.1 16.6-13.3 21.2-1.2 1.3-1.9 1.6-2.2 0.8zM-602.6 190.6c0-1.3 0.2-2.9 0.5-3.7 1.1-3.3 5.3-7.5 13.7-13.8 3.3-2.5 6.6-4.6 7.3-4.6 0.5 0-0.1 0.8-2.5 3.8-3.4 4.1-4.5 5.8-4.5 6.8 0 0.7 0.1 0.8 1.5 0.6 0.8-0.1 1.8-0.3 2.2-0.4 1.1-0.3 0.9 0.4-0.6 2.7-1.9 2.9-6.8 9.3-7.6 9.8-1.1 0.8-1.4 0.6-2.8-1.6-1.7-2.7-2.2-2.7-4.7 0.3-1.1 1.3-2.1 2.3-2.2 2.3-0.1 0-0.3-1-0.3-2.3zM-579.7 177.4c0.4-0.9 3.8-5.9 5.3-7.5 1.6-1.8 3.3-3 3.3-2.3 0 1.1-5.7 8.1-7.9 9.7-0.8 0.6-0.9 0.6-0.8 0.1zM-617.3 81.5c-1.7-4.4 5.2-9.7 10.1-7.8 2.2 0.9 2.5 5.9 0.4 8.1-2.1 2.1-9.7 1.9-10.5-0.3zM-627.1 70.5c-2.1-3-2.8-14.2-0.9-15.3 1-0.6 6.5 11 6.5 13.8 0 0.8-0.8 2-1.8 2.8-1.4 1.2-2.2 0.9-3.8-1.4l0 0zM-612.9 65.1c-3.4-3.6-2.8-5.5 2.9-9.8 2.7-2 3.6-2.2 5.2-0.8 2.7 2.2 2.4 6.6-0.7 10.5-3.2 4.1-3.7 4.1-7.5 0.1l0 0zM-613.9 45c-3.3-4.2-3.4-6.3-0.1-8.1 3.3-1.8 4.6-0.8 5.6 3.9 0.6 2.7 0.3 4.4-1 5.7-1.6 1.6-2.2 1.4-4.5-1.6zM-599.4 49.5c-3.4-2.7-4.7-7.9-2.3-9.4 1.7-1.1 6.6 6.4 6.1 9.4l-0.4 2.6-3.4-2.7zM-593.6 65.4c-1.2-0.5-2.4-2.7-2.4-4.5 0-1 0.1-1.2 0.7-1.7 0.6-0.5 0.9-0.6 1.7-0.6 0.9 0 1.1 0.1 1.7 0.7 1.2 1.2 1.6 3.3 0.9 4.9-0.5 1.3-1.4 1.7-2.7 1.2zM-622.3 52.5c-0.3-0.3-0.9-1-1.2-1.6-0.8-1.8-0.6-3.6 0.6-4.6 0.4-0.4 0.5-0.4 1.2-0.1 1.4 0.7 2.8 3.7 2.5 5.3-0.3 1.4-1.8 1.9-3.1 1zM-631.7 87.9c-2.9-1.5-4.2-3.3-4.7-6.5-0.3-1.8 0-6.2 0.5-7 0.3-0.6 0.7-0.5 1.4 0.6 1.2 1.8 5 11.1 5.2 12.8 0.1 0.8 0.1 1-0.3 0.9-0.2 0-1.2-0.4-2.1-0.9l0 0zM-585.7 93.8c0-0.5 1.1-3.3 2.4-6 1.1-2.3 2.5-4.5 3.3-5.3 0.4-0.4 0.5-0.4 0.6 0 0.5 1.2-2.7 7.7-5.1 10.5-0.8 1-1.3 1.2-1.3 0.8zM-596 97.5c-0.6-0.2-1.6-0.7-2.1-1-2.8-1.7-2.6-2 1.1-2.1 2.8-0.1 5.2 0.2 6.2 0.8 0.9 0.4 0.7 1.1-0.3 1.9-0.7 0.6-1.1 0.7-2.3 0.7-1 0-1.8-0.1-2.6-0.3zM-618 111.1c-1.3-0.5-5.4-5.4-5.3-6.3 0.1-0.6 0.7-0.8 3.7-0.8 7.2-0.1 16.7 0.8 20 1.9 2.8 0.9 2 1.2-3.7 1.4-7 0.3-9.1 0.8-11.3 2.6-1.4 1.2-2.4 1.5-3.4 1.1zM-605.4 120c-2.9-0.8-6.8-2.6-8.2-3.7-0.6-0.5-1.3-1.6-1.3-2 0-0.4 0.9-0.2 4 0.8 5.3 1.8 9.7 4.3 9.2 5.2-0.2 0.4-2 0.3-3.7-0.2zM-586.8 105.8c0-0.5 0.7-1.5 1.4-2.2 0.9-0.8 2.3-1.3 3.1-1.1l0.6 0.2-0.6 0.6c-0.5 0.5-4 2.7-4.4 2.7-0.1 0-0.1-0.1-0.1-0.2zM-588.6 119.3c1.5-2.4 5.7-6.4 8.3-8 1.5-0.9 1.7-1 1.7-0.5 0 1.1-5.2 6-8.7 8.4-1.6 1-1.9 1.1-1.3 0.1zM-508.7 107c0-1 3.5-6.2 5-7.5 1.8-1.5 2.5-1.3 1.6 0.5-0.8 1.5-6.6 7.6-6.6 6.9zM-568.4 293.9c-2.2-2.4-5.7-6.9-7.9-9.9-4.1-5.7-11.1-19-10.7-20.3 0.1-0.4 2.3 2.8 4.8 7 5.4 9.2 9.5 15.4 14.6 22 2 2.7 3.6 5 3.4 5.2-0.2 0.2-2.1-1.7-4.2-4.1l0 0zM-497.7 297.2c-10.4-4.5-14.6-5.8-22.8-6.9-7.5-1-23.5-4.9-29.4-7.1-4.4-1.6-7.2-4.2-7.2-6.5 0-0.9 0.3-1.6 0.6-1.6 0.4 0 3.1 1.2 6.1 2.7 7 3.5 10.8 4.7 25.9 7.8 13.5 2.8 17.4 4 24.1 7.3 4.9 2.4 12.9 7.8 11.5 7.7-0.5 0-4.4-1.6-8.7-3.4zM-501.7 320c-9.2-8-10.8-8.7-25.6-11.5-10.1-1.9-13.4-3.2-16.8-6.4-2.9-2.8-7.6-8.8-7.2-9.2 0.2-0.2 1.8 1.4 3.6 3.5 1.8 2.1 4.5 4.3 5.9 5.1 1.4 0.7 6.4 2.1 11.1 3.1 10 2.1 18.1 4.8 22.9 7.5 3 1.7 12.2 10.8 12.2 12 0 1-1.1 0.3-5.9-4l0 0z" fill="#ececec"/></svg>