<svg xmlns:svg="http://www.w3.org/2000/svg" xmlns="http://www.w3.org/2000/svg" width="356.8" height="375.6" version="1.1"><g transform="translate(-155.88962,-161.72067)"><path d="m371.6 204.2 0 0c-0.7 0-1.4 0.1-2.4 0.2-1.2 0.1-2.5 0.5-3.8 1.1-1.3 0.5-2.6 1.2-3.8 2.1-1.2 0.8-2.2 1.9-3.1 3.1-0.5 0.6-0.8 1.3-1.1 1.9-0.4 0.7-0.6 1.4-0.7 2.1-0.2 1.3-0.4 2.6 0 4 0.2 1.5 0.8 3.2 1.8 5.3 0.9 2.1 2.2 4.7 4.1 7.9 1.9 3.2 4.1 7 7.1 11.7 3.3 5.2 6.6 10.2 9 13.7 1.2 1.8 2.1 3.3 2.8 4.4 0.6 1.1 0.9 1.7 0.8 1.8-0.7 0.5-1.7 1.2-2.2 1.7-0.7 0.5-1.2 0.9-1.3 0.7-2.4-2.1-8.2-6.4-16-12.8-5.3-4.5-9.9-8.2-14.1-11.1-2-1.5-4-2.8-5.8-4-1.8-1.2-3.5-2.1-5.2-3-1.7-0.8-3.2-1.5-4.6-2-1.4-0.5-2.8-0.8-4.1-1.1-1.3-0.2-2.6-0.2-3.8-0.1-1.2 0.1-2.5 0.4-3.7 0.7-1.4 0.5-2.7 1.1-3.9 1.8-1.2 0.7-2.2 1.5-3.2 2.5-0.9 0.9-1.8 1.9-2.4 3-0.6 1.1-1.2 2.2-1.5 3.4-0.4 1.2-0.6 2.5-0.6 3.9 0 1.3 0.1 2.7 0.4 4.1 0.4 1.4 0.8 2.8 1.4 4.4 0.7 1.4 1.5 3 2.6 4.5 1.7 2.4 3.3 4.7 4.8 6.9 1.7 2.1 3.2 4.3 4.8 6.1 1.7 1.9 3.3 3.8 5.2 5.4 1.8 1.7 3.8 3.3 5.8 4.8 2.2 1.7 4.1 3 5.9 4 1.8 1.1 3.2 1.9 4.7 2.7l4.3 2.5c1.4 0.8 3 1.9 4.6 3.1-0.7 2.2-1.4 4.4-1.9 6.5-1.1 4.1-1.7 8.3-1.9 12.3-0.1 3.9 0 7.7 0.5 11.3 0.2 1.8 0.6 3.7 1.1 5.4 0.9 3.7 2.1 7.3 3.5 10.5 2.8 6.6 5 12.2 6.6 17.1 1.7 5 2.8 9.2 3.5 13 0.7 3.5 1.2 7.1 1.4 10.4 0.1 3.2 0 6.1-0.2 9.3-0.7 6.7-1.5 13.6-1.9 19.9-0.4 6.9-0.5 11-0.8 13.7-0.2 5-4.4 6.9-7.6 8.9-6.1 6.7-7.3 15.5-5.3 23.1 0.1 0.2 0.2 0.4 0.4 0.5-0.2 0-0.5 0-0.7 0.1l-158 48.6 55.7 25.4 212.7-47.3c2.8 0.2 5.9 0.4 8.5-0.6 6.1-0.9 10.2-7.4 14.4-8.4 1.3-0.2 2.7-0.7 4-1.4 1.3-0.7 2.5-1.5 3.5-2.6 1.1-0.9 1.9-2.1 2.5-3.2 0.4-0.6 0.6-1.1 0.7-1.7 0.1-0.6 0.2-1.1 0.2-1.7 0-0.8-0.2-2.1-0.5-3.5-0.6-2.4-1.5-4.5-2-6.7-0.4-2 0.4-3.9 1.1-5.6 1.7-3 3.8-5.7 5.2-8.6 1.8-3.3 3-7 4-10.3 1.8-6.6 2.5-14.1 2.7-20.1 0.2-5.4 0.4-11.6 0.4-18.7 0.1-5.2 0-10.4 0.8-15.1 0.5-3.4 1.9-6.5 2.4-9.7 0.8-6.5 1.8-13.1 2.2-19.9 0.2-3.4 0.5-6.9 0.6-10.3 0.1-7.2-0.2-14.2-1.7-20.9-1.8-8.4-5.8-16.6-10.4-23.1-7.4-10.9-16.7-20.5-27.2-26.8-11.6-7-24.6-10.4-37.1-11.7-6-0.5-11.5-0.5-17.5-0.4-1.1-0.8-2.1-2.1-3.3-3.7-1.2-1.7-2.5-3.5-3.9-5.6-1.4-2-2.8-4.3-4.4-6.4-1.5-2.1-3.2-4.3-4.8-6-2.4-3.1-4.7-6-7.1-8.7-2.4-2.7-4.6-5.2-6.7-7.4-2.1-2.2-4.1-4.1-5.8-5.7-1.8-1.5-3.3-2.7-4.5-3.5-1.7-1.1-2.8-1.7-4-2-0.6-0.1-1.2-0.2-1.9-0.2z" fill="#666"/><path d="m220.3 260.3c-4.5 0.1-7 0-8.7-0.6-2.4-0.8-3.4-2.1-4.6-5.7-0.8-2.6-1.3-3.3-2.1-3.9-0.9-0.6-1.5-0.8-4-0.9-2.7-0.1-9.2-0.7-13-1.2-3.5-0.5-4.5-0.5-5.8-0.4-1.1 0-1.1 0.1-1.3 0.4-0.4 0.5-0.2 0.8 0.6 3.9 0.8 3.3 1.1 4.3 1.1 5.6 0 1.3 0 1.4-0.4 1.7-0.5 0.2-0.8 0.1-1.3-0.4-0.7-1.1-1.1-2.4-0.8-3 0.1-0.2 0.1-0.4-0.4-2.5-1.2-5.1-1.2-6.7-0.1-7.9 1.7-2 10.9-4.7 19.6-5.8 1.7-0.2 3.4-0.5 3.9-0.6 0.5-0.1 3.4-0.9 6.6-1.9 9.7-2.8 11.6-3.2 18.3-3.9 5.3-0.6 7.4-0.6 12.2-0.2 3 0.2 4.4 0.2 6-0.1 1.4-0.2 2.5-0.6 6-2.1 5.1-2.1 9.6-3.5 13.1-3.9 1.1-0.1 2.2-0.2 2.7-0.2 0.8 0 5.4 0.6 5.9 0.7 0.1 0 0.2 0.2 0.4 0.5 0.2 0.6 1.1 8.9 1.1 9.3 0 0.2-0.1 0.8-0.2 1.4-0.1 0.5-0.2 1.5-0.2 2.2-0.6 5.9-1.5 8.4-4.1 9.9-1.4 0.8-2.7 1.4-4.8 1.8-1.5 0.4-5.7 0.4-7.6 0.1-3-0.4-6.6-3.7-8.5-7.7-0.5-0.8-0.5-1.2-0.6-2.1-0.1-1.1-0.1-1.2 0.1-1.8 0.2-0.7 0.2-1.3-0.1-1.9-0.2-0.4-0.4-0.4-0.7-0.5-0.9-0.1-2.4 0.5-2.8 1.2-0.2 0.4-0.5 1.2-1.1 3.5-2.1 9.5-4 12.1-9.9 14.2-3.7 1.3-9.9 2.4-14.2 2.6zM220.1 260.1" fill="#000"/><path d="m220.1 260.1c-4.5 0.1-7 0-8.7-0.6-2.4-0.8-3.4-2.1-4.6-5.7-0.8-2.6-1.3-3.3-2.1-3.9-0.9-0.6-1.5-0.8-4-0.9-2.7-0.1-9.2-0.7-13-1.2-3.5-0.5-4.5-0.5-5.8-0.4-1.1 0-1.1 0.1-1.3 0.4-0.4 0.5-0.2 0.8 0.6 3.9 0.8 3.3 1.1 4.3 1.1 5.6 0 1.3 0 1.4-0.4 1.7-0.5 0.2-0.8 0.1-1.3-0.4-0.7-1.1-1.1-2.4-0.8-3 0.1-0.2 0.1-0.4-0.4-2.5-1.2-5.1-1.2-6.7-0.1-7.9 1.7-2 10.9-4.7 19.6-5.8 1.7-0.2 3.4-0.5 3.9-0.6 0.5-0.1 3.4-0.9 6.6-1.9 9.7-2.8 11.6-3.2 18.3-3.9 5.3-0.6 7.4-0.6 12.2-0.2 3 0.2 4.4 0.2 6-0.1 1.4-0.2 2.5-0.6 6-2.1 5.1-2.1 9.6-3.5 13.1-3.9 1.1-0.1 2.2-0.2 2.7-0.2 0.8 0 5.4 0.6 5.9 0.7 0.1 0 0.2 0.2 0.4 0.5 0.2 0.6 1.1 8.9 1.1 9.3 0 0.2-0.1 0.8-0.2 1.4-0.1 0.5-0.2 1.5-0.2 2.2-0.6 5.9-1.5 8.4-4.1 9.9-1.4 0.8-2.7 1.4-4.8 1.8-1.5 0.4-5.7 0.4-7.6 0.1-3-0.4-6.6-3.7-8.5-7.7-0.5-0.8-0.5-1.2-0.6-2.1-0.1-1.1-0.1-1.2 0.1-1.8 0.2-0.7 0.2-1.3-0.1-1.9-0.2-0.4-0.4-0.4-0.7-0.5-0.9-0.1-2.4 0.5-2.8 1.2-0.2 0.4-0.5 1.2-1.1 3.5-2.1 9.5-4 12.1-9.9 14.2-3.7 1.3-9.9 2.4-14.2 2.6z" fill="#000"/><path d="m179.3 230.8c0.4-1.1 0.4-1.1-11 1.7-4.7 1.1-8.7 1.9-8.8 1.8-0.1-0.1 0.2-0.8 0.7-1.4 1.4-1.5 10.6-21.5 10.9-23.6 5.1-13.9 5.2-10.6 6.1-12.3 4.1-6.3 2.9-4.6 6.9-9.7 1.4-1.7 2.7-3.1 3.1-3.1 0.3 0 2.1-1.6 4-3.5 11.3-12 22.7-17.3 36.9-17.2 12.5 0.1 27 5.1 37.5 13.1 1.9 1.4 3.7 2.5 4 2.3 0.3-0.2 1.9 0.9 3.6 2.5 6.2 5.8 11.4 14.7 11.3 19.3l-0.1 2.7-0.5-2.8c-0.3-1.5-0.8-3.3-1.2-3.9-0.7-1-0.7-1-0.3 0.1 0.7 2 1 6.1 0.6 7.7-0.3 1-0.9 1.6-2 1.9-0.9 0.2-3 0.9-4.7 1.5-4.2 1.5-11.2 2.9-15.5 3-2.6 0.1-4.7 0.7-7.8 2.1-3.9 1.9-4.6 2-10.5 2-4.4 0-7.4 0.3-9.9 1.1-2 0.6-6.3 1.6-9.6 2.1-11.9 2-13 2.2-14.8 3.3 5.8-0.5-10 4.8-29 9.3zm46-34.3c0.4-0.6 1.8-1.8 3.1-2.7 2.5-1.7 4-1.7 8.2-0.1 2.6 1 2.9 0.7 2.9-2 0-2.2-0.1-2.2-4.3-1-1.9 0.6-1.1-0.7 1.1-1.8 2-0.9 2.1-1.2 1.7-3-0.7-3.5-2.2-3.7-2.9-0.5-0.6 2.8-1.9 2.7-1.9-0.1 0-1.4 0.2-2.6 0.4-2.8 0.2-0.2 0.1-1.5-0.2-2.9-0.7-2.7-3.1-5.2-5.6-5.9-1.9-0.5-4.3 1.1-4.8 3.2-0.4 1.6 0.6 6.7 1.5 7.3 0.2 0.2 0.9 1.4 1.5 2.7l1.1 2.4-2.1-2c-2.5-2.4-3.5-2-3.2 1 0.1 1.7 0.5 2.2 1.4 2.4 0.7 0.1 1.9 0.3 2.7 0.5 1.3 0.3 1.4 0.4 0.4 0.9-0.7 0.4-1.3 0.4-2-0.1-0.7-0.6-1.1-0.6-1.9 0.2-0.9 0.9-0.9 1.1 0 3.1 1.1 2.4 1.8 2.6 2.9 1zm4.6-7.1c0.4-0.2 0.9-0.2 1.1 0 0.2 0.2-0.2 0.3-0.8 0.3-0.7 0-0.8-0.2-0.4-0.4zm-2.3-2.7c0.2-0.1 1.2-0.6 2.3-0.9 1.5-0.5 1.9-0.5 1.8 0-0.1 0.4-1.2 0.8-2.3 0.9-1.1 0.1-1.9 0.1-1.8 0zm0.9-3.9c-0.3-0.4-0.3-0.9-0.1-1.1 0.5-0.5 1.1 0.3 0.8 1.1-0.2 0.6-0.3 0.6-0.7 0zm-3.1-1.3c-0.6-1 0.8-2.1 1.6-1.3 0.7 0.7 0.3 2-0.7 2-0.3 0-0.7-0.3-0.9-0.7zm4.3-0.3c-0.8-0.8-0.4-2.1 0.6-1.9 0.6 0.1 1 0.6 1 1 0 0.9-1.1 1.5-1.7 0.9zm45.6 3.2c-0.1-0.1-1.1-0.8-2-1.6l-1.8-1.5 1.8 1.9c1 1.1 1.9 1.8 2 1.6 0.2-0.2 0.2-0.4 0-0.4zm-3.6-3.6c-0.1-0.1-0.8-0.6-1.4-1-1.1-0.8-1.1-0.8-0.4 0.2 0.5 0.6 1.1 1 1.4 1 0.3 0 0.5-0.1 0.4-0.2zm-115.7 49.7c0.7-7.3 5.6-22.6 7-21.7 0.3 0.2 0.5-0.2 0.4-0.8-0.1-0.6 0.1-1.1 0.3-1.1 0.5 0 2.1-2.6 2.2-3.5 0-0.3-0.3-0.3-0.7-0.1-0.4 0.2-0.2-0.4 0.4-1.5 0.6-1 1.3-1.9 1.6-1.9 0.3 0 0.5-0.3 0.5-0.7 0-0.4 0.6-1.2 1.3-1.8 0.7-0.7 1-1 0.5-0.8-0.5 0.3-0.7 0.2-0.6-0.3 0.1-0.4 0.4-0.6 0.6-0.5 0.5 0.3 2.9-1.9 2.9-2.6 0-0.3-0.3-0.4-0.6-0.2-0.3 0.2-0.4 0-0.2-0.6 0.3-0.7 0.5-0.8 0.8-0.3 0.3 0.4 1.3-0.4 2.7-2.2 1.3-1.6 4.2-4.8 6.5-7.2 3.8-4 4.9-5.8 1.9-3.3l-1.2 1 1.2-1.4c0.6-0.8 1.5-1.2 2-1 0.9 0.4 3.2-1.4 2.8-2.1-0.2-0.2 0.4-0.9 1.3-1.5 0.9-0.6 1.4-0.7 1.2-0.4-0.6 1 0.1 0.8 2.5-0.8 3.9-2.7 3.5-1.6-1.1 2.8-5.8 5.6-12.9 15-17.8 23.5-3.5 6.1-8.6 17.1-8.3 18 0.2 0.5 0.1 0.8-0.2 0.6-0.3-0.2-1.3 1.6-2.3 4-2.6 6.2-4.9 10.1-6.2 10.5-0.6 0.2-1 0.5-0.8 0.8 0.2 0.3 0 0.7-0.4 0.9-0.5 0.3-0.6-0.7-0.3-4zm34.1-54.9c0.2-0.3 0-0.4-0.6-0.2-1 0.4-1.2 0.8-0.4 0.8 0.3 0 0.7-0.3 0.9-0.6zm-2.7 7.3c0-1.3 12.7-13.2 14.1-13.2 0.4 0 1-0.4 1.5-1 1.5-1.9 14.8-6.9 17.9-6.8l1.5 0-1.5 0.5c-0.8 0.3-3.8 1.2-6.6 2-7.4 2.2-14.6 6.7-21.3 13.4-3.1 3-5.6 5.3-5.6 5z" fill="#000"/><g transform="matrix(0.89721949,-0.0377196,0.04854282,0.81900435,301.19744,-15.365573)"><g transform="matrix(0.72587009,0.35984202,-0.35984202,0.72587009,171.65334,131.51811)"><path d="m-35 449.2 0 8.9 6.9 27.9-2.1 9.9 11.1 3 31.3-6.6 13.1-7.3-0.8-5.1-3.3-4.8-4.5-13.1-6-27.8c-13.7 7.7-33 14.1-45.8 15z" style="fill:#e6e6e6;opacity:0.8"/><path d="m-31.5 448.7c-3.2 1.1 21.6-15.8 41.6-15.1-7.2 7.3-43.3 18.3-41.6 15.1z" style="fill:#e6e6e6;stroke-miterlimit:4;stroke-width:1;stroke:#ccc"/></g><path d="m6.4 493.2c6.8 0 12.2-1 14.4-2.7 1.7-1.4 1.9-2.9 0.9-6.5l-0.9-3.1 1.8-14c1-7.7 1.9-14.2 2-14.4 0.1-0.3 0.7-4.5 1.2-9.4 0.6-4.9 1.2-9.4 1.3-9.9 0.2-0.7 0.8-1.1 2.3-1.6 2.8-0.9 3.7-2.2 3.8-5.1 0-1.2 0.2-2.3 0.4-2.4 0.6-0.3 0.7-2.6 0.3-4.2-0.2-0.8-0.4-1.8-0.3-2.4 0.2-1.9-3.3-5-6-5.4-0.4 0-1.7-0.7-3-1.5-2.7-1.7-7.1-2.8-15.2-3.7-3.2-0.4-5.5-0.8-6-1.1-0.5-0.4-0.9-0.4-1.7 0.1-0.6 0.3-2.2 0.7-3.5 0.7-1.3 0.1-2.9 0.4-3.4 0.7-1.6 1-3.1 1-4.2 0-1.3-1.3-3.6-1.5-4.6-0.3-0.4 0.5-1.3 1.4-1.9 1.9-2.7 2.5-3.4 5.7-1.7 8.1 0.5 0.7 0.7 1.6 0.6 2.1-0.2 0.8-0.3 0.8-8 0.2-8.7-0.8-8.9-0.7-10.7 1.9-2.9 4.1-6.5 17.3-7 25.2-0.5 8.5 2.7 17 7.7 20.4 2.2 1.5 5.5 2.8 8 3.1 2.5 0.3 3.2 1.1 3.1 4-0.1 1.9-0.2 2.3-1.5 3.7-2.6 2.9-2.3 6.4 0.8 8.2 6.1 3.6 21.8 7.2 31 7.3zm-16.4-5.3c-3.9-0.9-7.2-1.9-6.9-2.2 0.3-0.2 14.3 1.4 17.4 2 1 0.2 3.2 0.6 4.8 0.9 1.6 0.3 2.8 0.7 2.7 0.8-0.8 0.6-13.1-0.4-18-1.5zm26.2 1.2c0.1-0.5 1.4-1.2 2.2-1.1 0.8 0.1 0.8 0.1-0.2 0.7-0.9 0.6-2 0.8-2 0.4zm-26.9-5.2c-0.9-0.3-0.4-0.3 1.8 0.1 2.5 0.4 3.1 0.4 3.3 0 0.4-0.8 0.2-0.9-4.1-2-2.1-0.6-5.6-1.8-7.8-2.9l-4-1.9-1.4 1.2c-0.8 0.7-1.5 1.6-1.5 2 0 0.4-0.2 0.7-0.4 0.7-0.5-0.1 0.5-2.3 1.5-3.1 0.5-0.4 0.9-1 0.9-1.3 0.1-0.5 0.3-0.5 2.6 0.4 11 4.2 23.4 5.9 34 4.6l4.4-0.6 0.5-2.2 0.5-2.2-0.2 2.5c-0.1 1.5 0 3.1 0.4 4.2 0.8 2.3 0.7 2.5-0.3 0.7-0.4-0.8-1-1.5-1.3-1.6-0.3 0-2 0.1-3.7 0.3-3.3 0.4-10.4 0.6-15.7 0.4-2.5-0.1-3 0-3 0.6-0.1 0.7 0.3 0.7 5.1 1.3 4.6 0.5 8.5 0.6 11.6 0.3 0.6-0.1 1 0.1 1 0.3 0 0.4-2.1 0.6-6.2 0.5-3.6-0.1-16-1.7-17.7-2.4zm-10.1-3c0.3-0.2 0.7-0.2 1.3 0.1 0.8 0.4 0.8 0.5-0.4 0.3-0.9-0.1-1.2-0.2-0.9-0.5zm13.2-4.1c-5.3-1.3-7.8-2.3-11.1-4.4l-2.8-1.8-0.3 2.3c-0.1 1.3-0.3 2.2-0.4 2.1-0.3-0.4 7.1-55.4 7.7-56.8 0.3-0.7 0.8-1.4 1.1-1.5 0.3-0.1 5.7 0.7 11.9 1.7 6.3 1 13.5 2 16 2.3l4.6 0.5 0.6 1.6c0.3 0.9 1.1 2 1.7 2.4 0.9 0.7 1.4 2.1 0.6 2-15.3-1.5-36.2-3.5-36.4-3.4-0.5 0.3 0.7 0.6 7.6 1.8 4.1 0.7 11.2 1.9 15.7 2.7l8.2 1.4-7.7-1c-4.2-0.6-11.3-1.6-15.7-2.3-4.4-0.7-8.1-1.2-8.3-1.1-0.2 0.1-0.9 4.8-1.7 10.4-0.8 5.7-2.2 15.6-3.1 22.1-2 13.6-2.2 12.1 2.3 14.4 6 3.1 8.4 3.8 17.7 4.8 9.3 1 11.8 1 16.1-0.6l2.2-0.8 2.6-21.1 2.6-21.1-1.1-1.4c-0.6-0.8-1.5-1.4-2-1.5l-1-0.2 1 0c0.8 0 1.3 0.3 2.4 1.7l1.4 1.8-1.7 12.8c-0.9 7.1-2.2 16.7-2.9 21.3l-1.2 8.5-2.8 0.9c-3.2 1-5.2 1.3-8.8 1.4-4 0.1-11.3-0.8-15.5-1.9zM18.3 422c0-0.2-4.4-0.9-9.8-1.7-5.4-0.8-12.5-1.8-15.6-2.3-4.3-0.7-5.9-0.8-6.2-0.5-0.2 0.2-0.3 0.6-0.2 0.8 0.2 0.5 31.8 4.1 31.9 3.6zm-21.3 52.6c-3.7-1-8.4-2.9-11.7-4.9l-2.6-1.6 1.6-12.6c0.9-6.9 2.1-16.3 2.7-20.9l1.1-8.3 2.4 1c2.1 0.9 4.2 1.3 16 2.8 7.5 1 14.1 2 14.8 2.3l1.3 0.5-2.2 20.3-2.2 20.3-1.5 0.6c-5.4 2-13.1 2.2-19.9 0.5zM-23.9 466.6c0.4-1.3 0.2-1.5-2.7-2.1-3.8-0.8-5.7-1.8-7.5-4.1-2-2.5-2.4-3.5-2.7-6.5-0.2-2-0.7-3-1-1.8-0.4 2-0.4 5.2-0.1 6.3 0.6 2.1 2.4 5 4.2 6.6 2.1 1.9 1.7 2.2-0.6 0.4-5.1-4.2-7.5-11.4-6.6-19.8 1-8.6 5.2-21.4 7.9-24 0.6-0.6 1.6-1 2.4-1.1 2.2-0.2 11.5 1 12.3 1.5 0.9 0.6 1.1 2.1 0.4 3.8l-0.6 1.4 0.4-1.7c0.6-2.5 0.3-2.7-5.5-3.2-7.2-0.6-7.6-0.3-9.6 7.9-0.7 3-1.5 7.3-1.9 11.6-0.7 5.9-0.7 7.2-0.3 10.1 1.2 8.1 3.1 10.4 8.6 10.8 2.4 0.2 2.9 0.3 3.3 1 0.5 0.8 0.5 2.4 0 3.4-0.5 0.9-0.6 0.6-0.2-0.5zm-7.1-7.4c-1.3-1.1-2.9-5.9-3.2-9.6-0.8-8.5 2.6-20.9 5.9-21.8 1.1-0.3 6.6 0.5 7.7 1.1 0.4 0.2 1 1.3 1.4 2.4l0.8 2-1.7 12.9-1.7 12.9-2.2 0.7c-3.5 1.1-5.2 0.9-7-0.6zm3.6-33.3c-1.1-0.2-1-0.2 0.6-0.5 1.9-0.3 4.5 0.2 5.4 1 0.5 0.4 0.1 0.4-2.2 0.1-1.5-0.2-3.2-0.5-3.9-0.6zm56.1 4.3c1.5-1.2 2-2.8 1.5-4.8-0.2-0.8-0.1-1.1 0.6-1.6 1.4-1 1.8-2.1 1.3-3.4-0.5-1.3-1.7-1.9-3.6-1.8-1.1 0.1-1.4-0.1-2.5-1.6-1.3-1.9-2-1.9-1.9-0.1l0.1 1.2-1.4-1.4c-1.6-1.6-4.9-3.7-6-3.8-0.4 0-1.7 0.1-2.8 0.3-2 0.4-2 0.3-3.3-0.8-1.6-1.4-2.7-1.8-4.3-1.7-0.7 0.1-2.2 0-3.4 0-1.5-0.1-2.6 0.1-3.7 0.6-1.3 0.7-1.7 0.7-3.1 0.2-1-0.3-2.4-0.5-4-0.4-2.2 0.1-2.5 0-3.1-0.7-0.4-0.5-1.2-0.9-1.7-1-0.9-0.2-1-0.7 0-0.6 0.3 0 0.6-0.2 0.8-0.5 0.4-0.8 1.9-0.5 2 0.3 0.1 0.5 0.5 0.7 2.1 0.9 1.1 0.1 2.4 0.4 2.9 0.6 0.8 0.3 1.1 0.2 1.9-0.9 1.4-1.8 2.7-2.1 9.6-1.6 5.3 0.3 6.3 0.5 7.3 1.2 1.1 0.7 1.4 0.7 2.5 0.3 2.1-0.8 6.4 0.8 7.9 3 0.5 0.7 0.9 0.9 2.2 0.8 2.1-0.1 4 1 4.7 2.6 0.3 0.7 0.3 1.6 0.2 1.9-0.2 0.5-0.1 0.8 0.4 1.2 1.1 0.8 1.1 3 0 4.2-0.9 1-0.9 1-0.4 2.4 0.4 1.3 0.4 1.6-0.2 2.9-0.5 1-1.2 1.8-2.1 2.2-2 1-2.2 0.8-0.5-0.5zM18 410.5c0.7-1.2 0.5-1.4-0.9-1.1-1.3 0.3-1.5 1.1-0.4 1.6 0.6 0.3 0.9 0.2 1.3-0.5zm6.1 18.5c-0.3-0.9-0.1-2.6 0.6-3.9 0.2-0.3-0.1-0.6-1-0.8-1-0.2-1.3-0.5-1.8-1.9-0.8-2.2-1.3-2.9-2.3-3.2l-0.8-0.3 0.8 0c0.8 0 2.6 2.2 2.5 3.1-0.1 0.7 1 1.8 2.1 2 0.9 0.2 0.9 0.3 0.6 2.3-0.3 1.8-0.2 2.3 0.6 3.5 0.9 1.4 0.9 1.4 0 0.7-0.5-0.4-1-1.1-1.3-1.7zm-40-17.3c0.4-0.9 0.9-1.5 1-1.4 0.1 0.1-0.2 0.8-0.6 1.6-0.4 0.8-0.7 1.9-0.7 2.6 0 0.7-0.1 1.3-0.2 1.5-0.6 0.5-0.2-2.7 0.6-4.2zm20.2 5.2c-4.9-0.8-5-0.8-1.3-0.4 2.1 0.2 6.1 0.8 8.8 1.2 4.9 0.8 5 0.8 1.3 0.4-2.1-0.2-6.1-0.8-8.8-1.2zm-12.1-2c1.1 0 2.9 0.2 4 0.4 1.1 0.2 0.2 0.2-2-0.1-2.2-0.2-3.1-0.4-2-0.4zm-6.6-0.7c0.1-0.1 0.5-0.1 0.7 0.1 0.3 0.2 0.2 0.2-0.3 0.2-0.4 0-0.6-0.1-0.5-0.3zm1.6-0.2c0.1-0.1 0.5-0.1 0.7 0.1 0.3 0.2 0.2 0.2-0.3 0.2-0.4 0-0.6-0.1-0.5-0.3z" fill="#333"/></g><g transform="matrix(1.1920121,0,0,1.1920121,161.8369,-728.14152)"><g transform="translate(-1.6610183,-56.474619)"><g transform="translate(-29.898328,-80.282547)"><path d="m84.7 1153.3c0 1.9-0.2 2.8-0.4 3.6 0 0-0.9 0-1.3 1.3-0.4 1.3-1.5 14.6-1.4 14.7 0.1 0.2 0.2 1.4 0.4 2.6 0.3 1.1 4.7 4.6 11.2 4.6 2.5 0 8 1.3 8.8 2.1-0.7 0.8 9.2 6.6 15.8 6.3 2.8 0.8 14.4-1.8 16.5-3.3 3.3-1.2 7.1-4.2 7.5-5.5 0.2-1.1 0.5-3.8-0.8-5.9-1.2-1.7-3.2-2.9-4.8-3-6-1.4-8.3-2.8-11.8-4.8l-1.6-1 0.2-0.5-0.7-0.5-0.5 0.4-1.2-1 0-0.5-1.5-1-0.4 0.2-0.9-1 0.4-0.6-2.1-1.5-0.5 0.4-0.8-0.9 0-0.9-2.1-1.8-0.5 0.3-1-1.2-1.1-2.1-1.9-1.3-2.2-0.1-1.5 0.4-2.6-0.4-2.5 1.7c-1 1.8-2.2 2.4-2.9 2.3-2.4-1.7-4.8-3.8-6.3-4.6l-3.7 1c-0.6 0.6-1.2 1.1-1.8 1.7z" fill="#1a1a1a"/><path d="m116.7 1161.5c-0.8 0.6-2.1 0.4-3.3 0.6-0.2 0.7-0.6 1.6-1 2.1-0.1 0.4-0.8-0.2-0.6-0.7 0.1-0.4 0.3-1 0.3-1-1.7 0.7-3.7 1.9-4.2 2.5-0.6 0.5-1-0.9-0.9-1.5 0.4-0.1 0.6-1.3 0.2-1.2l-10.5 12.8 3.5 1.6c0.9-5.8 10-12.9 10.2-12.7 1.2-0.1 1.2 0.4 3.4 0.6 0.4 0.1 0.9-0.2 1.4-0.5 0.4-1 1.6-1.8 2.5-2.8l1 1c-0.2 0.1-0.3 0.2-0.4 0.6 0 0.6 0.6 0.6 1.4 0.6 0 0.2 0.3 0.3 0 0.7-2.9 1.1-4.7 1-6.9 2.3l-0.7 2.2 2.4 1.3c0 0 1.3-0.3 1.3-0.8 0-0.5 0.4-0.9 0.4-0.9l1.3 0.3 1.6-2.1-2.6 1.1-1.9 1.3c-0.7-0.2-0.5-0.8-0.5-1.4l1-0.5c0.3-0.8 1.7-1.3 3.1-1.6l1.9-0.7 0.6-0.9 3.5 2.3c0 0.3-2.6 2.1-3.6 2.8l-0.4 0.6 1.9 0.1 1.5-1.4c0.2-0.3 0.5-0.6 0.8-1 0-0.3 0-0.7-0.2-0.8-0.1-0.1 0-0.1 0-0.2l2.6 1.5c3.5 1.9 7 3.1 11.9 4.2 1.6 1.4 3.5 2.8 1.6 4.3-3.1 2.6-5.6 2.6-8.4 3.7l-6.9 2c-2.8 0.2-5.4 0.7-8.2 0.5-0.1-0.4 0.4-1 0.8-1.6l2.6-3.1c0.2-0.6-0.2-0.1-0.7 0.2-0.7 0.9-1.2 1.2-1.6 1.4l-1.5 1.5c-0.3 0.6-1.5 0.9-1.7 0.7 0.7 0.4 0.9 1.8 0.6 2.9-0.2 0.7-0.5 0.6-1.5 0.5-45.9-13.2-13.8-39.2 2.9-23.4z" fill="#fff"/></g><g transform="translate(-29.898328,-80.282547)"><path d="m55.9 1163.1c-0.3 0.9-0.3 0.9-0.6 3.6 0 0-0.6 0.1-1.3 1.2-0.7 1.1-1.5 14.6-1.4 14.7 0.1 0.2 0.2 1.4 0.4 2.6 0.3 1.1 4.7 4.7 11.2 4.6 2.2-0.1 7.4 1.2 8.8 2.1 0.9 1.6 9.2 7 15.8 6.3 2.8 0.8 14.4-1.8 16.5-3.3 3.3-1.2 7.1-4.2 7.5-5.5 0.2-1.1 0.5-3.8-0.8-5.9-1.2-1.7-3.2-2.9-4.8-3-6-1.4-8.3-2.8-11.8-4.8l-1.6-1 0.2-0.5-0.7-0.5-0.5 0.4-1.2-1 0-0.5-1.5-1-0.4 0.2-0.9-1 0.4-0.6-2.1-1.5-0.5 0.4-0.8-0.9 0-0.9-2.1-1.8-0.5 0.3-1-1.2c-0.2-1.2-0.8-1.9-1.7-2.2-1.1-1.1-1.6-1.2-2.9-1.2-1.2-0.3-1.2 0.2-1.5 0.5-1.6-0.4-3.6-0.6-4.3 0.3-2 1.1-3.1 4.3-4.7 2.7-2.4-1.8-3.2-3.3-6.5-4.3-2.3 0.3-3.7 1.3-4.7 2.7z" fill="#000"/><path d="m54 1167.7c-0.3 0.9 3.7 7.1 5.6 6.8 1 0.5 5.8-3 5.8-3 7.4-9.5 15.6-2 20.7-1.5 0.1 0.5 0.9 0.8 1.5 0.8 0.3 0 0.1 0.6 0.1 0.6-0.8 0.6-2.1 0.4-3.3 0.6-0.2 0.7-0.6 1.6-1 2.1-0.1 0.4-0.8-0.2-0.6-0.7 0.1-0.4 0.3-1 0.3-1-1.7 0.7-3.7 1.9-4.2 2.5-0.6 0.5-1-0.9-0.9-1.5l3.1-1.9c-0.4 0.2-1.3 0.2-1.4-0.3 0-2.4-2.1-0.6-3.6-0.1 0.8-0.1 1.3 0 1.6 0.2l0.5 0.9-6.2 6.8-4.4 5.9 3.5 1.6c0.9-5.8 10-12.9 10.2-12.7 1.2-0.1 1.2 0.4 3.4 0.6 0.4 0.1 0.9-0.2 1.4-0.5 0.4-1 1.6-1.8 2.5-2.8l1 1c-0.2 0.1-0.3 0.2-0.4 0.6 0 0.6 0.6 0.6 1.4 0.6 0 0.2 0.3 0.3 0 0.7-2.9 1.1-4.7 1-6.9 2.3l-0.7 2.2 2.4 1.3c0 0 1.3-0.3 1.3-0.8 0-0.5 0.4-0.9 0.4-0.9l1.3 0.3 1.6-2.1-2.6 1.1-1.9 1.3c-0.7-0.2-0.5-0.8-0.5-1.4l1-0.5c0.3-0.8 1.7-1.3 3.1-1.6l1.9-0.7 0.6-0.9 3.5 2.3c0 0.3-2.6 2.1-3.6 2.8l-0.4 0.6 1.9 0.1 1.5-1.4c0.2-0.3 0.5-0.6 0.8-1 0-0.3 0-0.7-0.2-0.8-0.1-0.1 0-0.1 0-0.2l2.6 1.5c3.5 1.9 7 3.1 11.9 4.2 1.6 1.4 3.5 2.8 1.6 4.3-3.1 2.6-5.6 2.6-8.4 3.7l-6.9 2c-2.8 0.2-5.4 0.7-8.2 0.5-0.1-0.4 0.4-1 0.8-1.6l2.6-3.1c0.2-0.6-0.2-0.1-0.7 0.2-0.7 0.9-1.2 1.2-1.6 1.4l-1.5 1.5c-0.3 0.6-1.5 0.9-1.7 0.7 0.7 0.4 0.9 1.8 0.6 2.9-0.2 0.7-0.5 0.6-1.5 0.5-2.6-1-4.7-2.7-7.9-2.9-1.8-0.3-2.1-0.7-2.7-1.1-2.7-1.5-5.4-3-9.1-4.3-1-0.2-2.4-0.7-3-0.5-0.8 0.8 0.6 1.1 1.3 1.9-0.5 0.5-1.8-0.2-2.7-0.3-3.9 0.3-6.6-1.6-6.3-2.1-1.2-1.2-1-2.1-1.4-3.2 0.7-7.4 0.6-9.2 1.1-14.5z" fill="#fff"/><path d="m71.6 1186.1c-0.3-1.3 4-8.3 9.6-12 0.9-0.4 0.1-0.3 2.2 0.4" style="fill:none;stroke-dasharray:0.4;stroke-width:0.1;stroke:#333"/><path d="m60.9 1176.2c1.2 0.1 8.1-5.3 9.7-5.4 4 1.3 2.9 2.7 3.2 2.7-1.5 1.3-6.9 6.2-7.2 10.5" style="fill:none;stroke-dasharray:0.3;stroke-width:0.2;stroke:#000"/><path d="m60.7 1174.9c3-2.2 6.5-2.7 5.6-5.8" style="fill:none;stroke-dasharray:0.4;stroke-width:0.1;stroke:#000"/><path d="m80.7 1181.8c0 0-3.4 3-3.2 3.9 0.1 0.7 2.2-1.4 2.2-1.4 0.7-1.1 1.2-1.6 1.6-2.1m1.8 0.9 0 0c-0.2-0.1-3.4 5-2.5 5.5 1.2 0.1 1.3-3.1 2.7-4.4 0.1-0.3 0.2-0.5 0.4-0.7m1.8 0.3c0 0-1.6 6.3-1.1 6.5 0.5 0.7 1.4-4.6 1.5-4.7l0.3-1.3" class="s2" style="fill:none;stroke-width:0.1;stroke:#1a1a1a"/><path d="m82.7 1177.5c-0.2 1.3-0.5 2 0.4 2.2 3.3 2.7 5.4-1.7 5.3-1.1" style="fill:none;stroke-dasharray:0.3;stroke-width:0.1;stroke:#333"/><path d="m60.6 1181.8c-0.9-0.6-5.2-8-6.1-9.8 1.1 1.6 3.6 5 4.8 6.6 0.3 0.5 1.1 2.4 1.2 3.2zm29.3-1.5 0 0c-0.2 1.7 0.6 5.8 6.8 5.5 1.9 0.2 10.6-0.9 12.2-3.8-5.7 4.3-17.5 5.2-18.7 0z" fill="#000"/></g></g><path d="m24.2 853.8c32.7 6.7 47.2 14.4 67.9-2.3 2.3 0.6 4.6 1.2 7 1.8 19.3 5-3.3 87.8-1.9 86.8-2.6 37.4 1.9 86.8 1.9 86.8-7.6-4-37.8-1.5-38.4 5-4.3 1.6-27.9 6-46.4-1.3 3.1-2 7.1-31.2 2-85.7 0 0-32.4-30.4-3.8-87.9 2.9-1.5 9.3-3.1 11.7-3.2z" fill="#000"/></g><path d="m270.8 207.2c0.9-0.3-26.3-5.9-54.6 2.1-32.9 9.3-27.4 16.7-27.4 16.7l-12.6 81.2-1.9 42.7 6.3 20.8 9.5-12-2-59.2 0.9-27.2 2.9-44.1 73.4-10.8zM247 315.6" fill="#800000"/><path d="m247 315.6c-4.6 0.5-9.5 1.8-11.7 4.4-2.4 2.7-4.3 9.2-5.4 19-1.2 10.2-0.7 19.6 3.5 24.8 4.1 5 10.4 4.5 14.2 3.4 3.7-1.1 5.8-2.8 7.8-5.9 2.2-3.3 5.3-9.6 6.5-18.2 1.2-8.6 0.1-17.3-2.7-22.2-3-5.1-7.2-5.8-12.2-5.2zm-4.8 5.4c0.7 0 1.1 0.5 1.3 1.2 0.1 0.5 0.1 2.2 0 5.8-0.1 3.7-0.1 5.7 0.4 5.7 0.1 0 0.4 0 0.6-0.1 0.1 0 0.2-0.1 0.4-0.1 0.4-0.2 0.7-0.4 0.9-0.5 0.2-0.1 0.9-0.1 1.9-0.1 1.9 0 3.2 1.7 3.5 5.3 0.6 4.7-0.1 7.8-0.2 17 0 0.8 0 1.5-0.1 1.9-0.1 0.5-0.4 0.6-0.8 0.6-0.4 0-0.8-0.7-0.9-2.4-0.1-0.9-0.2-3.2-0.1-7.3 0.1-4.3 0.2-6.6 0.1-7.9-0.6-1.9-1.3-3.1-2.1-3.4 0 0 0 0 0 0-1.4 0-2.5 1.2-3.3 3.5-0.4 1.1-0.8 4-1.1 8.2-0.2 4.1-0.4 6.9-0.5 7.7-0.1 1.9-0.5 2.8-1.1 3-0.5 0.1-0.7 0-0.9-0.4-0.2-0.4-0.4-1.2-0.4-2.7 0-0.2 0-0.6 0-0.8 0-0.6 0-1.2 0-1.8 0-0.9 0.1-2.4 0.1-2.7 0-0.6 0.1-1.2 0.1-1.8 0-0.6 0.1-1.2 0.1-1.8 0.1-1.2 0.1-2.5 0.2-3.7 0-0.4 0-0.6 0.1-0.9 0-0.6 0.1-1.2 0.1-1.9 0-0.4 0-0.6 0.1-0.9 0-0.6 0.1-1.2 0.1-1.8 0-0.4 0-0.6 0.1-0.9 0-0.6 0.1-1.2 0.1-1.8 0-0.2 0-0.6 0.1-0.8 0-0.6 0.1-1.2 0.1-1.7 0-0.8 0.1-1.7 0.1-2.5 0.2-4.5 0.2-6.7 0.5-7.8 0.1-0.9 0.5-1.3 0.9-1.3 0 0 0 0 0 0z" fill="#800000"/><g transform="matrix(0.91545351,0.28090777,-0.2997684,0.8329278,366.4216,121.87232)"><path d="m0.4 261.1c-1.7 0.4 7.4-5.7 10.8-5.6 3.9-0.4 9.1 2.3 10.9 3.8 2 1.7 0.3 4.8 1 4.7-8.5-0.1-6.6-0.5-14.1 0-8.9 1.5-5.9 4.6-7.6 3.4-2.3-1-6.1-4.2-0.9-6.4zM0.7 267.4" style="fill:#fff;stroke-miterlimit:4;stroke-width:1.1;stroke:#808080"/><path d="m0.7 267.4c1.2-0.7 5.8-3.8 10.2-4.2 4.4-0.4 11.3 0.7 12.5 1.4 2.5 3.4-0.3 6.8 0.1 6.7-8.4 1-8.2 1.8-14.7 0.1-8.3 3.5-6.9 3.9-8.7 2.6-2.3-0.9-2.1-4.9 0.6-6.5z" style="fill:#fff;stroke-miterlimit:4;stroke-width:1.1;stroke:#808080"/><path d="m2.8 272.4c5.7-2.2 18.2-6.4 21 0.2 2.6 6.1-2.5 5.2-2.5 5.2-8.1 1.6-5.7 1.5-13.5 2-2.6 0.2-4.3 1.6-7.4 0-2.1-1.5-2.9-5.3 2.4-7.4z" style="fill:#fff;stroke-miterlimit:4;stroke-width:1.1;stroke:#808080"/><path d="m-6.7 260.2c-8.7 0.6-2.5 11.5-1.7 14.2 0.8 2.7 3.8 5 7 2.7l0.9-9.3c-0.7-3.4-1.5-8.5-6.2-7.6z" style="fill:#fff;stroke-miterlimit:4;stroke-width:1.2;stroke:#808080"/><path d="m3.2 285.9c1.3-0.1 9.8 2.2 19-2.8 4.1-2.2 1-6.4 1-5.6-11.7 0.9-9.6 0.1-21.5 3.6-1.6 1.7-0.3 4.2 1.5 4.8z" style="fill:#fff;stroke-miterlimit:4;stroke-width:1.1;stroke:#808080"/></g></g></svg>