<svg xmlns:svg="http://www.w3.org/2000/svg" xmlns="http://www.w3.org/2000/svg" version="1.1" viewBox="0 0 1240.7 1282.7" height="361.9" width="350"><style>.s0{fill:#000;}.s1{fill:#f00;}.s2{fill:#fff;}</style><style>.s0{fill:#000;}.s1{fill:#fff;}</style><style>.s0{fill:#000;}.s1{fill:#fff;}.s2{fill:none;stroke-width:0.1;stroke:#1a1a1a;}</style><path d="m740.7 102.3 0 0c-2.5 0-5 0.4-8.4 0.8-4.2 0.4-8.8 1.7-13.4 3.8-4.6 1.7-9.2 4.2-13.4 7.5-4.2 2.9-8 6.7-10.9 10.9-1.7 2.1-2.9 4.6-3.8 6.7-1.3 2.5-2.1 5-2.5 7.5-0.8 4.6-1.3 9.2 0 14.2 0.8 5.4 2.9 11.3 6.3 18.9 3.4 7.5 8 16.8 14.7 28.1 6.7 11.3 14.7 24.7 25.1 41.5 11.7 18.4 23.5 36 31.9 48.6 4.2 6.3 7.5 11.7 10.1 15.5 2.1 3.8 3.4 5.9 2.9 6.3-2.5 1.7-5.9 4.2-8 5.9-2.5 1.7-4.2 3.4-4.6 2.5-8.4-7.5-28.9-22.6-56.6-45.3-18.9-15.9-35.2-28.9-49.9-39.4-7.1-5.4-14.2-10.1-20.5-14.2-6.3-4.2-12.6-7.5-18.4-10.5-5.9-2.9-11.3-5.4-16.3-7.1-5-1.7-10.1-2.9-14.7-3.8-4.6-0.8-9.2-0.8-13.4-0.4-4.2 0.4-8.8 1.3-13 2.5-5 1.7-9.6 3.8-13.8 6.3-4.2 2.5-8 5.4-11.3 8.8-3.4 3.4-6.3 6.7-8.4 10.5-2.1 3.8-4.2 8-5.4 12.2-1.3 4.2-2.1 8.8-2.1 13.8 0 4.6 0.4 9.6 1.3 14.7 1.3 5 2.9 10.1 5 15.5 2.5 5 5.4 10.5 9.2 15.9 5.9 8.4 11.7 16.8 17.2 24.3 5.9 7.5 11.3 15.1 17.2 21.8 5.9 6.7 11.7 13.4 18.4 19.3 6.3 5.9 13.4 11.7 20.5 17.2 8 5.9 14.7 10.5 21 14.2 6.3 3.8 11.3 6.7 16.8 9.6l15.1 8.8c5 2.9 10.5 6.7 16.3 10.9-2.5 8-5 15.5-6.7 23.1-3.8 14.7-5.9 29.3-6.7 43.6-0.4 13.8 0 27.2 1.7 40.2 0.8 6.3 2.1 13 3.8 19.3 3.4 13 7.5 26 12.6 37.3 10.1 23.5 17.6 43.2 23.5 60.8 5.9 17.6 10.1 32.7 12.6 46.1 2.5 12.6 4.2 25.1 5 36.9 0.4 11.3 0 21.8-0.8 33.1-2.5 23.9-5.4 48.2-6.7 70.4-1.3 24.3-1.7 39-2.9 48.6-0.8 17.6-15.5 24.3-26.8 31.4-21.8 23.9-26 54.9-18.9 81.7 0.4 0.8 0.8 1.3 1.3 1.7-0.8 0-1.7 0-2.5 0.4l-559.9 172.3 197.4 90.1 754-167.6c10.1 0.8 21 1.3 30.2-2.1 21.8-3.4 36-26.4 51.1-29.8 4.6-0.8 9.6-2.5 14.2-5 4.6-2.5 8.8-5.4 12.6-9.2 3.8-3.4 6.7-7.5 8.8-11.3 1.3-2.1 2.1-3.8 2.5-5.9 0.4-2.1 0.8-3.8 0.8-5.9 0-2.9-0.8-7.5-1.7-12.6-2.1-8.4-5.4-15.9-7.1-23.9-1.3-7.1 1.3-13.8 3.8-19.7 5.9-10.5 13.4-20.1 18.4-30.6 6.3-11.7 10.5-24.7 14.2-36.5 6.3-23.5 8.8-49.9 9.6-71.2 0.8-19.3 1.3-41.1 1.3-66.2 0.4-18.4 0-36.9 2.9-53.6 1.7-12.2 6.7-23.1 8.4-34.4 2.9-23.1 6.3-46.5 8-70.4 0.8-12.2 1.7-24.3 2.1-36.5 0.4-25.6-0.8-50.3-5.9-74.2-6.3-29.8-20.5-58.7-36.9-81.7-26.4-38.6-59.1-72.5-96.4-95.1-41.1-24.7-87.2-36.9-131.6-41.5-21.4-1.7-40.7-1.7-62-1.3-3.8-2.9-7.5-7.5-11.7-13-4.2-5.9-8.8-12.6-13.8-19.7-5-7.1-10.1-15.1-15.5-22.6-5.4-7.5-11.3-15.1-17.2-21.4-8.4-10.9-16.8-21.4-25.1-31-8.4-9.6-16.3-18.4-23.9-26.4-7.5-8-14.7-14.7-20.5-20.1-6.3-5.4-11.7-9.6-15.9-12.6-5.9-3.8-10.1-5.9-14.2-7.1-2.1-0.4-4.2-0.8-6.7-0.8z" fill="#666"/><g transform="matrix(0.99914989,-0.04122497,0.04122497,0.99914989,967.14757,-53.118867)"><path d="m-712.4 467.7c-4.1-0.6-4.7-1.2-5.4-4.5-0.9-4.6-2.2-6.2-2.2-2.8 0 1.3-0.5 2.8-1.2 3.2-0.6 0.4-0.9 1.2-0.5 1.8 0.8 1.2-2.3 1.3-48.1 1.3-34 0-46.2-1.3-50.7-5.2-1.1-0.9-3.2-2.3-4.8-3-2.6-1.2-2.5-1.1 0.6 1.6l3.5 2.9-7.5 0c-10.2 0-11.7-1.1-7.2-5.2 1.9-1.7 4.1-4.6 4.9-6.5 1.4-3.4 3.4-4.5 3.4-1.9 0 0.8 2.7 2.3 5.9 3.3 5.7 1.8 5.9 1.8 8.2-0.6 3.8-4 12.7-17.2 13.1-19.4 0.5-2.8-6.1-9-14.2-13.2-3.7-1.9-6.9-3.6-7.2-3.8-0.3-0.2 0.9-1.6 2.7-3 2.7-2.1 3-2.8 1.4-3.3-1-0.4-1.8-1.6-1.7-2.8 0.1-1.9 0.2-1.9 0.7 0 0.3 1.1 1 2 1.5 2 1.7 0 2.4-5.8 1.1-8.3-1.3-2.5-1.4-2.5-3-0.3-1.6 2.2-1.7 2.1-0.9-0.3 0.7-2.3-0.3-3.1-8.4-7.2-9-4.5-14.3-9.3-15.9-14.1-1-3.1 0.2-4.3 2.1-2.1 1.4 1.7 13.1 8.8 24.7 15 5.2 2.8 15.9 7.3 35.4 15 3 1.2 9.3 2.7 13.9 3.5 4.6 0.7 10.4 2.3 12.9 3.6 2.4 1.2 4.7 2 5 1.7 0.6-0.6-9.8-6.6-11.6-6.6-0.7 0 0.3-1.3 2.2-2.9l3.5-2.8-2.3-4.3c-1.3-2.4-2.2-4.6-2.1-4.9 0.1-0.4 0.5-1.8 1-3.3 0.4-1.4 0.4-2.5-0.2-2.4-2 0.4-5-1.6-5-3.5 0-1-0.7-3-1.4-4.4-1.3-2.3-1.7-1.8-5.1 6.4-2.1 4.9-3 8-2.2 6.8 1.9-2.5 3.2-2.6 2.3-0.3-0.5 1.3-0.1 1.6 1.5 1.1 1.2-0.4 0.9 0.1-0.7 1.1-4.8 2.9-10.8 3.4-15.6 1.4-3.9-1.6-4.2-2-2.7-3.8 0.9-1.1 4.2-7.4 7.4-13.9 5.5-11.4 5.9-11.9 8.8-11.2 2.4 0.5 3.2 0.2 3.5-1.4 0.8-3.9-0.4-8-2.8-9.5-2-1.3-2.6-1.2-3.4 0.4-1.2 2.1-5.8 2.4-9.1 0.7-3.4-1.8-2.7-3.4 1.5-3.6l3.8-0.1-3.5-0.9c-6.1-1.6-8.4-1.2-11.9 1.7-2.6 2.2-3.4 3.9-3.4 6.8 0 5-4.3 16.7-7.6 20.8-2.2 2.8-2.9 3-5.7 2-5.9-2.2-3.5 1.1 2.6 3.6 3.2 1.3 5.8 2.7 5.8 3.1 0 1.9-11.3 0.5-15.2-1.9-2.3-1.4-4.5-2.6-4.9-2.6-1.3 0-12.9-7.8-14.9-10.1-1.8-2-2.1-5.3-2.5-23.6-0.3-11.7-1-22.6-1.7-24.2-0.9-2.1-1 3.5-0.6 20 0.4 14.5 0.2 22.9-0.5 22.9-0.7 0-1.3-8-1.6-20-0.4-17.9-0.7-20.5-3.1-25.7-4.5-9.7-6-13.3-5.4-13.3 0.3 0 1.9 2.5 3.5 5.5 1.6 3 2.6 4.2 2.2 2.6-1.2-4.6-4.5-9.8-6.3-9.8-1.9 0-4.5-6.5-4.4-11 0-1.8 0.5-1.1 1.2 2 0.6 2.7 1.6 4.9 2.3 4.9 0.6 0 0.9-0.9 0.6-2-1.6-5.3-3-12.9-3.2-17.6-0.2-5.1-0.2-5.1-0.7-0.8-0.3 2.4-0.9 4.1-1.5 3.7-1.8-1.1-2.4 1.5-1 4.6 1.2 2.6 1 3.3-1 5.3-2.2 2-2.4 3.3-2.1 13.6 0.2 6.2-0.1 18.4-0.6 27-0.5 8.6-1.2 27.9-1.6 42.8-1.7 73-2 78-3.9 79.6-4.2 3.3-4.9 1.9-5-11-0.1-6.8-0.2-14-0.4-15.9-0.8-11.6-0.9-110.4 0-111.8 0.8-1.3 0.7-1.4-0.7-0.3-1.4 1.2-1.6-0.2-1.3-10.1 0.4-12.1 2.5-16.2 2.5-4.8 0 3.7 0.5 7.4 1.1 8.4 0.8 1.2 1.1-0.2 1.1-5 0-7.4-1.4-11.2-4.2-11.2-1.5 0-1.7-1.3-1.2-8.2 0.8-10 3.4-15.4 9.9-20.4 3.4-2.6 4.3-3.8 2.8-3.8-1.8 0-1.8-0.2-0.4-1.1 1.2-0.7 1.3-1.1 0.3-1.1-0.8 0-1.4-0.9-1.4-2.1 0-1.1-2.6-7.3-5.7-13.6-3.1-6.3-6-13.6-6.4-16.2-0.4-2.5-1.2-5.7-1.7-6.9-0.5-1.3-2.4-6.4-4.1-11.4-2.5-7.3-2.8-9.3-1.6-10.1 1.3-0.8 1.3-1.8 0-5.9-3.8-12.8-4.7-16.2-6.5-26.4-5.3-30.2-2.4-61.1 7.6-81.2 1.8-3.6 3.3-7.7 3.3-9 0-1.3 0.8-2.7 1.7-3.1 1-0.4 1.7-1.4 1.7-2.3 0-0.9 0.5-1.6 1.1-1.6 0.6 0 2.5-1.2 4.3-2.7 1.8-1.5 4.9-3.6 6.8-4.8 3.4-1.9 3.8-2 7.6-0.2 4.6 2.2 16.1 12.1 14.1 12.2-0.7 0-1.6-0.6-1.9-1.4-0.6-1.8-5.5 2.2-5.5 4.5 0 0.9-0.5 1.6-1.2 1.6-0.6 0-1.2 0.8-1.2 1.7 0 1.3-2.6 0.4-10.1-3.5-5.6-2.9-10.9-5.2-11.9-5.2-1 0 1 1.4 4.4 3.2 7.1 3.6 18.5 12.5 20.3 15.9 0.7 1.2 2.4 3.2 3.9 4.4 7.2 6 9.8 18.2 9.6 46.4l-0.1 21.9 3.5-3.4c1.9-1.8 3.8-4.5 4.1-5.8 0.3-1.4 2.2-3.7 4.2-5.1 3.4-2.5 3.7-2.5 5.1-0.6 1.4 1.9 1.7 1.9 5.6-0.5 3.6-2.2 4-2.9 3.2-5.6-0.5-1.7-0.8-10.7-0.7-19.9 0.1-13.6 0.7-18.6 2.8-26 4.3-15.2 3.1-25.4-3.8-33.4-2.1-2.4-3.9-3.3-6.5-3.3-2 0.1-3.3-0.4-2.9-1 1-1.7-3.4-1.3-5.9 0.5-2.1 1.5-2 1.6 1.2 1.1 3.1-0.5 2.9-0.3-1.8 2.5-2.9 1.7-6.5 4.3-8.1 5.7-2.5 2.3-3.3 2.4-5.6 1.2-1.6-0.9-2.2-1.7-1.5-2.2 0.7-0.4 1.8-1.9 2.6-3.2l1.3-2.5-3.2 2.5-3.2 2.5-4.7-3.5c-2.6-1.9-5.6-3.5-6.8-3.5-3.8 0-2.2-2 8.6-10.7 12.5-10 19.4-14.5 29.8-19.2 23.9-10.8 61.1-17.1 85.8-14.4 21.4 2.3 65.4 18.7 78 28.9 12.9 10.5 21.3 19.8 23.1 25.5 0.5 1.4 1.3 2.6 1.8 2.6 1.6 0 7.8 18.5 9.7 28.9 1 5.4 2.1 13.7 2.5 18.5 0.9 11.3 1.8 16.5 3.2 18.2 0.6 0.8 0.8 1.9 0.5 2.5-0.4 0.6 1 5.7 3 11.3 3.5 9.6 3.7 11.3 3.8 25.9 0 11.5 0.7 18.8 2.6 27.8 3.2 15 3.7 35.1 0.8 34-1.1-0.4-1.5-1.5-1.1-2.7 0.4-1.4-0.1-2.2-1.6-2.6-2.2-0.6-2.3 0.7-0.3 4.3 1.7 3 3 25.8 1.7 27.5-0.6 0.8-1.5 2.9-1.9 4.7-0.5 2.2-1.3 3.1-2.5 2.6-1.1-0.4-1.7 0.1-1.7 1.6 0 1.9-0.8 2.3-4.5 2.3-12.4 0-20 3.1-14.8 6 1.1 0.6 1.9 1.9 1.9 2.8 0 1-0.5 1.4-1.1 1.1-1.1-0.7-3.5 2.8-3.5 5.1 0 2.5 2.3 1.2 2.4-1.4 0.1-2.1 0.2-2.2 0.7-0.5 0.8 3.2-3.1 12.6-4.9 11.9-0.9-0.3-1.9 0.4-2.2 1.6-0.5 1.4-1.4 2-2.7 1.6-1.2-0.4-1.5-0.2-0.8 0.3 2.6 2.2 3.7 5.7 2.7 8.5-0.6 1.6-1.1 4.3-1.2 6.1-0.1 1.8-0.8 3.8-1.7 4.5-0.9 0.7-1.6 2.2-1.6 3.4 0 1.2-0.5 2.4-1.2 2.8-0.6 0.4-1.2 1.5-1.2 2.5 0 1 0.5 1.4 1.2 1 1.5-0.9 1.5-0.5-1.1 27.8-1.3 13.4-2.8 24.5-3.5 24.7-0.6 0.2-1.2 1.1-1.2 2.1 0 0.9-0.8 2-1.7 2.3-1 0.4-1.4 1.1-1.1 1.7 0.3 0.6-0.2 0.7-1.2 0.3-1.1-0.4-1.8 0-1.8 1 0 2.1 4.3 3.4 5.1 1.6 0.3-0.7 0.6 0.1 0.6 1.8 0 1.7-0.5 3.5-1.2 3.9-0.8 0.5-1 2.6-0.7 5.5 0.6 4.2 0.2 5.1-3.1 8.2-2.4 2.2-7 4.5-12.4 6.2-4.7 1.5-10.1 3.2-12 3.8-1.8 0.6-4.6 1.1-6.1 1.1-2.3 0-2.7 0.6-2.7 3.8 0 4.8 1 6.3 4.6 6.8 4.8 0.7 4.2 4.5-1.8 11.2-5 5.6-5.1 5.8-1.7 3.9 3.3-1.9 3.8-1.9 5-0.2 0.8 1 1.9 1.9 2.5 1.9 2.1 0.2 1.9 2.4-0.2 3.5-1.2 0.6-6.3 1.4-11.4 1.9-5.1 0.4-10.6 0.9-12.2 1.1-1.6 0.2-5 0.1-7.5-0.3zm15.9-10.3c1.7-1.9 1.7-2.6 0-8.4-1-3.5-2-6.5-2.1-6.7-0.2-0.2-3 1.3-6.3 3.3-6.9 4.3-7 5.9-0.1 2.5 2.6-1.3 4.9-2 5.1-1.6 0.2 0.4 0.3 3.5 0.2 6.8-0.3 6.6 0.3 7.2 3.1 4zm-59.4-15.3c-2.2-1.4-3.5-1.4-3.5 0 0 0.6 1.2 1.1 2.6 1.1 2.1 0 2.3-0.2 0.9-1.1zm43.3-4.4c1.5-0.4 1.9-0.2 1.4 0.7-1.2 2 1.1 1.6 2.8-0.4 1.2-1.5 0.9-1.7-1.9-1.7-1.8 0-4.6 0.8-6.2 1.8-1.9 1.2-2.1 1.5-0.6 1 1.3-0.4 3.3-1.1 4.5-1.4zm-21.9-7.9c-15.5-5.4-28.7-9.7-30-9.7-3.7 0.1 12.2 6.6 24.9 10.3 10.8 3.1 14.4 2.7 5-0.6zm-15.8 0.6c-0.2-0.7-0.9-1.2-1.5-1.2-0.6 0-1.3 0.6-1.5 1.2-0.2 0.7 0.5 1.2 1.5 1.2 1.1 0 1.7-0.6 1.5-1.2zm-30.6-8.1c-1.8-6.4-4-9.2-7.2-9.2-1.1 0-0.5 1.2 2 3.4 2.1 1.9 3.7 4.2 3.7 5.2 0 1.9 2.5 7.9 3 7.3 0.2-0.2-0.5-3.2-1.5-6.7zm-13.1-4c0-8.7-1.7-10-2.8-2.2-0.8 5.3-0.8 5.3-3.3 3.2-1.4-1.2-0.7-0.2 1.5 2.2 2.2 2.4 4.1 4.3 4.3 4.3 0.2 0 0.4-3.4 0.4-7.5zm48.6-1.7c-1-0.6-2.3-1.1-2.9-1.1-0.6 0-0.4 0.5 0.6 1.1 1 0.6 2.3 1.1 2.9 1.1 0.6 0 0.4-0.5-0.6-1.1zm19.8-8.2c3.6-2.5 7.3-8.5 6.6-10.6-0.2-0.7-1.3 0.8-2.5 3.4-2.7 6-7.7 8.4-17.8 8.6-6.6 0.1-7.2 0.3-3.7 1.1 6 1.4 13.6 0.3 17.5-2.5zm52-2.7c0-0.3-0.5-0.8-1.2-1.2-0.6-0.4-1.2-0.2-1.2 0.5 0 0.7 0.5 1.2 1.2 1.2 0.6 0 1.2-0.2 1.2-0.5zm-74.1-3.1c0-0.6 1.3-3.1 2.9-5.5 1.9-2.8 2.7-5.4 2.3-7.2-1.6-8.4-2.9-23-2.3-26.2 0.9-5 6.6-9.6 11.7-9.6 3 0 4 0.5 4 2 0 1.7 0.2 1.7 1.1 0.3 1.3-2-4.2-5.7-9.8-6.6-3.3-0.5-4-0.1-7.3 5.1-2.9 4.5-3.7 7-3.7 11.7 0 3.3-0.5 6-1.2 6-0.6 0-1.2 1.8-1.2 4 0 2.6-1 5.2-3 7.5-1.6 2-2.4 3.6-1.8 3.6 2 0 4 4.8 3.8 9.1-0.2 4.4 1.7 8.7 3.3 7.7 0.6-0.4 1.1-1.2 1.1-1.8zm81 0.7c0-0.9-0.5-2-1.2-2.4-0.6-0.4-1.2 0.4-1.2 1.7 0 1.3 0.5 2.4 1.2 2.4 0.6 0 1.2-0.8 1.2-1.7zm-9.9-0.2c3.1-1.2 2-2.7-1.6-2.4-3.6 0.3-4.5 1.4-2 2.4 0.8 0.3 1.5 0.6 1.6 0.7 0.1 0.1 1-0.2 2-0.6zm6.7-2.5c0.3-1.1-0.4-4.9-1.4-8.4l-1.9-6.4-0.5 6.9c-0.3 3.8-0.3 7.6-0.1 8.4 0.7 2.1 3.4 1.8 3.9-0.6zm3.2-6.5c-1.3-3.6-2.7-6.5-3-6.5-0.9 0 0.9 7.2 2.9 11.4 2.8 5.9 2.9 2.5 0.1-4.8zm-42.1 0.6c-2.3-2.3-2.5-0.1-0.5 3.6 1.3 2.3 1.4 2.4 1.8 0.4 0.2-1.2-0.4-3-1.4-4zm-9.6-2.5c0.7-2.5-2.2-13.8-4-15.7-0.6-0.6-0.5 0.4 0.2 2.3 0.7 1.9 1 4.6 0.7 6-0.7 3 0.4 9.7 1.7 9.7 0.5 0 1.1-1 1.5-2.3zm66.6-6.3c-0.2-1.7-0.9-3.2-1.5-3.3-1.4-0.3-2.2 4.4-1.2 7 1.1 2.8 3.2 0 2.7-3.6zm-112.6-9.5c-0.9-2.5-1.7-4-1.7-3.3-0.1 1.8 2.4 8.8 3 8.2 0.2-0.2-0.3-2.5-1.2-5zm94.2 0c0-2.5-0.5-3.8-1.2-3.4-0.6 0.4-1.2 2.2-1.2 4.1 0 1.9 0.5 3.4 1.2 3.4 0.6 0 1.2-1.9 1.2-4.1zm-2.4-12.4c0.1-1.1-0.4-2-1-2-0.6 0-1.1 2.2-1 4.9 0.1 4.2 0.3 4.5 1 2 0.5-1.6 1-3.8 1-4.9zm20.6-1.1c-0.4-0.9-0.6-0.6-0.7 0.7 0 1.2 0.2 1.9 0.6 1.5 0.4-0.4 0.4-1.4 0.1-2.2zm-32-0.5c0-0.3-0.8-0.5-1.7-0.5-1 0-1.7 0.5-1.7 1.1 0 0.6 0.8 0.8 1.7 0.5 1-0.4 1.7-0.9 1.7-1.1zm-119.8-4.2c-6.3-7.5-12.4-14.1-11.5-12.4 2.4 4.4 12.6 16 14.3 16.2 0.2 0-1-1.7-2.8-3.7zm68.1 0.7c-0.8-0.3-2.3-0.3-3.5 0-1.1 0.3-0.5 0.6 1.4 0.6 1.9 0 2.8-0.2 2-0.5zm49.5-0.3c0-0.6-2.1-1.9-4.7-2.9-5.5-2.2-5.8-2.2-5.8-0.6 0 1.2 6.4 4.4 9 4.5 0.8 0 1.4-0.4 1.4-1zm7.4-0.8c0.8-2.2-0.2-4.2-1.7-3.3-1.4 0.9-1.4 5.2 0 5.2 0.6 0 1.4-0.8 1.7-1.8zm30.8-9.1c0-3-0.6-2-1.6 2.2-0.6 2.5-0.5 3 0.4 1.7 0.6-1 1.2-2.7 1.2-4zm-171.3-6.2c0-6.3-0.1-6.7-2.9-6.7-1.7 0-2.7 0.6-2.4 1.3 0.3 0.7 0.9 3.7 1.3 6.7 0.5 3.4 1.4 5.4 2.4 5.4 1.2 0 1.6-1.8 1.6-6.7zm20.8 5.7c0-0.5-1-1.9-2.3-3.1-2.6-2.4-3-1.6-0.9 1.8 1.5 2.4 3.2 3.1 3.2 1.3zm21-2.1c-1.4-2.3-1.7-1.6-0.6 1.3 0.4 1 1 1.6 1.3 1.3 0.3-0.3 0-1.5-0.7-2.7zm29.4 0.8c0.4-0.7-0.1-0.9-1.1-0.5-2 0.8-2.4 1.6-0.7 1.6 0.6 0 1.4-0.5 1.8-1.1zm44.7-5.9c-1.1-2.7-1.1-2.7-1.2-0.3 0 1.4 0.3 3.5 0.8 4.6 0.7 1.7 0.9 1.8 1.2 0.3 0.2-1-0.1-3.1-0.8-4.6zm-10.6-1.1c-2-3.6-2.5-2.1-0.9 2.5 0.9 2.6 1.5 3.3 1.8 2 0.2-1.1-0.2-3.1-0.9-4.4zm21-2c-1.1-1.9-1.2-1.9-1.2 0.3 0 1.3 0.4 3.6 0.8 5.2l0.8 2.9 0.4-3.2c0.2-1.7-0.2-4.1-0.8-5.2zm-30.7 1.2c-1.2-3-2-0.9-1 2.7 0.6 2.4 1 2.8 1.3 1.2 0.2-1.2 0.1-2.9-0.3-3.9zm56 2.2c0-1.7-0.2-1.7-1.1-0.2-1.5 2.3-1.5 3.8 0 2.9 0.6-0.4 1.1-1.6 1.1-2.7zm-65.1-3.4c-0.3-1.1-0.5-0.2-0.5 2 0 2.2 0.2 3.1 0.5 2 0.3-1.1 0.3-2.9 0-4.1zm-45 0.3c-0.1-1.6-0.7-2.4-1.2-1.9-0.5 0.5-0.6 1.8-0.2 2.9 1.1 2.8 1.7 2.4 1.4-0.9zm39.1 0.2c0.9 0.4 1.7 0.1 1.7-0.6 0-1.3-3.7-1.8-4.9-0.6-0.4 0.4-0.4 1.6 0.1 2.6 0.7 1.8 0.8 1.8 1.2 0 0.2-1.2 1.1-1.7 2.1-1.3zm-22.6-1.3c0-0.3-1.6-1.3-3.5-2.2-3.4-1.7-5.5-0.8-4.1 1.6 0.7 1.1 7.5 1.7 7.5 0.7zm-22-4.1c0-0.6-0.5-1.2-1.2-1.2-0.6 0-1.2 0.5-1.2 1.2 0 0.6 0.5 1.2 1.2 1.2 0.6 0 1.2-0.5 1.2-1.2zm27.2 0c0.4-0.6 0.2-1.2-0.4-1.2-0.6 0-1.5 0.5-1.9 1.2-0.4 0.6-0.2 1.2 0.4 1.2 0.6 0 1.5-0.5 1.9-1.2zm11.7-4.3 0.2-5.5-1.7 3.9c-1.3 3-1.4 4.3-0.3 5.5 0.7 0.9 1.4 1.6 1.5 1.6 0.1 0 0.2-2.5 0.3-5.5zm29.3 0.3c0-2.9-0.5-5.2-1.2-5.2-1.3 0-1.6 8.4-0.4 9.6 1.4 1.4 1.5 0.9 1.5-4.4zm24-6c-0.3-2.4-0.5-0.7-0.5 3.7 0 4.5 0.2 6.4 0.5 4.4 0.3-2.1 0.3-5.7 0-8.1zm-43 5.5c0.2-1.9-0.1-3.5-0.7-3.5-0.6 0-1.1 1.9-1.1 4.2 0 4.9 1.3 4.4 1.9-0.7zm30.7-1.2c0.3-4.9 0.2-5.5-1-3.8-1.7 2.3-2 9.6-0.4 9.6 0.6 0 1.2-2.6 1.4-5.8zm-21.5 1.2c0.1-1.9-0.3-3.5-0.8-3.5-1.3 0-2.5 4.4-1.7 5.8 1.3 2.1 2.3 1.2 2.4-2.3zm-95.6-4.6c0-3.6 1-7.3 2.9-11 1.6-3.1 2.6-6.4 2.3-7.6-0.4-1.2-3.6-4.6-7.1-7.7-3.6-3.1-8.2-7.2-10.4-9.2-2.1-2-3.9-3-3.9-2.2 0 2 5.6 10.2 7.9 11.5 4.7 2.7 7.1 6.4 7.1 10.7 0 8.8-1.3 13.2-4.2 14.3-3.1 1.2-3.6 4.3-1 5.3 1 0.4 1.5 1.1 1.2 1.5-0.3 0.5 0.7 0.6 2.3 0.3 2.6-0.5 2.9-1.1 2.9-6zm80.6 3.1c-0.3-0.8-0.6-0.1-0.6 1.4 0 1.6 0.3 2.2 0.6 1.4 0.3-0.8 0.3-2.1 0-2.9zm-25.7-2.3c0.8-0.6 0.9-0.9 0-0.9-1.8 0-4 2.5-4 4.6 0 1.3 0.4 1.2 1.3-0.5 0.7-1.3 1.9-2.7 2.6-3.2zm-65.8 1.1c2.2-2.6 2.2-2.6-0.2-0.6-2.8 2.4-5.3 2.6-7.2 0.6-0.8-0.8-1.4-0.9-1.4-0.2 0 3.6 5.8 3.7 8.8 0.1zm45.1-1.4c0-2.2-0.4-4-0.7-4.1-0.4 0-1.3-2.6-2.1-5.8-0.8-3.2-2-5.8-2.5-5.8-1.4 0-1.4 0.1 0.8 5.3 1 2.4 2 6 2.1 8 0.5 6.1 0.6 6.4 1.6 6.4 0.5 0 0.9-1.8 0.9-4zm116.8-3.7c-1-1.8-1.5-2.2-1.1-0.9 0.4 1.3 1.1 3.6 1.5 5.2 0.5 2.1 0.8 2.3 1.1 0.9 0.2-1.1-0.4-3.4-1.5-5.2zm26.4 3.1c0.3-1.3 0.1-2-0.4-1.7-0.6 0.4-1 1.4-1 2.3 0 2.4 0.8 2.1 1.5-0.6zM-762.8 321.7c0-0.6-0.2-1.2-0.5-1.2-0.3 0-0.8 0.5-1.2 1.2-0.4 0.6-0.2 1.2 0.5 1.2 0.7 0 1.2-0.5 1.2-1.2zm16.8-1.2c-3.2-1.4-4.3-1.4-3.5 0 0.4 0.6 1.9 1.1 3.3 1.1 2.4-0.1 2.5-0.1 0.2-1.1zm10.7-0.1c2.1-0.7 4.8-3.2 6.6-6.1l3.1-4.8-3.5 3.8c-1.9 2.1-4.2 3.8-4.9 3.8-1.1 0-1.1-0.3 0-1.4 0.8-0.8 1.3-3.2 1.3-5.5l-0.1-4.1-1.1 4.9c-0.6 2.9-2 5.4-3.3 6.1-1.2 0.7-2.2 2-2.2 2.9 0 2-0.1 2 4.4 0.5zm74.3 0.4c0-0.5-1.1-2.2-2.4-3.8l-2.4-2.9 1.8 3.8c1.7 3.6 3 4.8 2.9 2.9zm-56.7-4.3c0-0.3-0.5-0.8-1.2-1.2-0.6-0.4-1.2-0.2-1.2 0.5 0 0.7 0.5 1.2 1.2 1.2 0.6 0 1.2-0.2 1.2-0.5zm-34.7-5.3c1.8-3.3 0.6-2.7-1.8 0.8-1.1 1.7-1.4 2.7-0.7 2.3 0.7-0.4 1.8-1.8 2.5-3zm-5.6-3.8c0.1-3-0.4-6-1.1-6.7-0.9-0.9-1.1-0.5-0.6 1.5 0.6 2.5 0.5 2.6-1.2 1.2-1.7-1.4-1.9-1.2-1.5 1.7 0.4 3 3.1 8.8 3.9 8.1 0.2-0.2 0.4-2.8 0.5-5.8zm17.7-0.7c-1.1-2.9-3.2 1.7-2.2 4.8l0.8 2.6 1-2.8c0.6-1.5 0.7-3.6 0.3-4.6zm-99.2 2.3c-1.7-2.4-1.7-2.4-2.3-0.2-0.4 1.6-0.1 2.1 1 1.7 0.9-0.3 1.6 0 1.6 0.9 0 0.8 0.3 1.2 0.7 0.8 0.4-0.4-0.1-1.8-1-3.1zm172.7-3c0-2.9-0.8-6.8-1.8-8.7-1.5-2.9-2.1-3.3-4.1-2.2-1.3 0.7-2.9 0.9-3.6 0.4-0.8-0.5-1.1-0.1-0.8 0.8 0.3 0.9 1.8 1.8 3.3 2 3.4 0.5 4.7 2.3 3.8 5.4-1.3 4.4-4.6 6.5-9.3 5.7-2.4-0.4-5.7-0.2-7.3 0.5-2.3 0.9-0.4 1.2 8.4 1.2l11.3 0.1 0-5.3zm3-1.7c-0.6-3.8-1.5-6.9-2-6.9-1 0 0 7.3 1.4 11.3 1.6 4.3 1.8 3 0.6-4.3zm17.9-0.2c-1.3-2.1-2.4-3.5-2.4-3 0 1.6 3.6 8 4.2 7.4 0.3-0.3-0.5-2.3-1.8-4.4zm-206.4 1.1c-0.4-0.9-0.6-0.6-0.7 0.7-0.1 1.2 0.2 1.9 0.6 1.5 0.4-0.4 0.4-1.4 0.1-2.2zm102.5 0.2c0.3-1.3 0.1-2.3-0.4-2.3-0.6 0-1 1-1 2.3 0 1.3 0.2 2.3 0.4 2.3 0.2 0 0.7-1 1-2.3zm24.8-10.7c-0.3-2.1-0.5-0.4-0.5 3.8 0 4.1 0.2 5.8 0.5 3.8 0.3-2.1 0.3-5.5 0-7.5zm-106.6 8.6c-0.3-0.5-0.9-2.4-1.2-4.2-0.3-1.8-1-3.7-1.5-4.2-1.5-1.5-14 0.7-16.5 3-3.1 2.8-2.3 3.4 1.8 1.2 1.8-1 4.3-1.8 5.5-1.8 2.6 0 10 4.3 10 5.9 0 0.6 0.6 1.1 1.2 1.1 0.7 0 1-0.4 0.6-0.9zm99.6-1.6c-0.4-0.9-0.6-0.6-0.7 0.7-0.1 1.2 0.2 1.9 0.6 1.5 0.4-0.4 0.4-1.4 0.1-2.2zm-67.9-2.6c4.8-1.5 8.1-2.8 7.4-2.9-0.7-0.1-3.8 0.7-6.9 1.6-8.8 2.7-12.4 2.3-16.8-1.8-2.1-2-5.9-5.1-8.5-7-2.6-1.9-8.3-6.2-12.7-9.7-11.8-9.4-11.8-7.7 0.1 2.2 5.6 4.7 13.1 11.2 16.6 14.4 7.4 6.8 8.7 7 20.8 3.2zm54.4 1.7c0-0.6-0.5-1.4-1.2-1.8-0.6-0.4-1.2 0.1-1.2 1.1 0 1 0.5 1.8 1.2 1.8 0.6 0 1.2-0.5 1.2-1.1zm-9.1-3.2c-1-1.7-1.2-1.8-1.3-0.3 0 1.9 1.2 3.7 2 2.9 0.3-0.3-0.1-1.4-0.7-2.6zm-18.7-6.2c10.7-3.4 21-7.6 16.2-6.7-5.7 1.2-33.6 10.7-33.6 11.5 0 0.5 1.2 0.5 2.6 0 1.4-0.5 8.1-2.7 14.8-4.8zm49.6-4.9c-2.3-1.9-2.8-1.9-3.1-0.4-0.2 1 0.7 2.9 2 4.2 1.3 1.3 2.5 3 2.6 3.8 0.1 0.8 0.4-0.1 0.7-2 0.4-2.6-0.2-4-2.2-5.6zm-23 3.5c-0.1-2.4-0.1-2.5-1.1-0.2-1.4 3.2-1.4 4.3 0 3.5 0.6-0.4 1.1-1.9 1.1-3.3zm10.5-1.4c0-1-0.5-1.5-1.2-1.1-0.6 0.4-1.2 1.2-1.2 1.8 0 0.6 0.5 1.1 1.2 1.1 0.6 0 1.2-0.8 1.2-1.8zm50.4 0.9c1.8-1.2 3-4.9 1.6-4.9-0.6 0-1.5 0.9-1.9 2-0.4 1.1-1.3 2.4-2 2.9-0.7 0.5-0.8 0.9-0.1 0.9 0.6 0 1.7-0.4 2.4-0.9zm14.4-8.1-1.4-6.4-4.7 4.7c-5 5-5.3 7.4-0.4 4.3 3.3-2.2 5-0.7 3.2 2.8-1 1.9-0.8 2.3 1.4 2.6 3.5 0.5 3.7-0.5 2.1-8zm-60.5-2.9c-0.5-6.8-0.4-7.5 3-11.3 3.3-3.7 3.4-3.8 0.3-1.2l-3.3 2.9 0.8-3.5c0.6-2.6 0.5-3.1-0.5-1.7-1.1 1.5-1.2 1.5-1.3-0.2 0-1.6-0.5-1.5-2.9 0.9-1.7 1.7-4.2 2.8-6.3 2.8-1.9 0-3.7 0.5-4.1 1-0.3 0.6 1.7 0.8 4.5 0.4 5.9-0.7 6.6 0.2 8.1 11 1.2 8.4 2.2 7.6 1.5-1.2zm78.1 1.9c-1-1.8-1.1-1.7-1 1 0.1 1.7 0.6 2.6 1.2 2.1 0.5-0.5 0.5-1.9-0.2-3.1zm-214.3-4.2c0.8-1.4 0.8-2 0-2-0.6 0-2.3 2.2-3.6 4.9l-2.4 4.9 2.4-2.9c1.3-1.6 2.9-3.8 3.6-4.9zm160.9 5.2c1.4-1.8 1.4-1.9-0.4-0.4-1.1 0.9-2 1.8-2 2 0 1 1 0.3 2.5-1.6zm-159.2-2.4c-2.5-0.5-3.5 0.4-2.4 2.1 0.6 0.9 1.3 0.9 2.6-0.2 1.6-1.4 1.6-1.5-0.2-1.9zm38.1-9.3c0.6-10.3 0.8-11 4.8-15.8l4.2-5.1-1.9-9.7c-1.3-6.5-1.9-14.6-1.7-24.6 0.2-14.8 0.2-14.9-2.9-17.5-1.7-1.5-3.9-2.7-4.8-2.7-3.4 0-16.5 6.8-18.3 9.4-2.1 3.2-3.8 14.1-3.6 22.7 0.1 3.3 0 6.1-0.3 6.1-0.2 0-1.5-2.2-2.8-4.9l-2.3-4.9 0.5 6.9c0.6 8.4 3.9 18 11.2 33.8 4.2 9 6.3 12.2 8.9 13.5 1.9 1 4.1 2.6 4.9 3.6 2.5 3 3.5 0.5 4.1-10.8zm-12.6-18c-3.1-1.5-6-3.4-6.6-4.2-1.3-2.1 0.8-5.7 3.3-5.7 2.2 0 7.2 4.7 9.3 8.9 2.4 4.7 1.9 4.8-6 1zm-8.1-35c-0.4-0.4-0.8-2.5-0.8-4.5 0-4.1 4.8-10.9 7.6-10.9 2.5 0 3.2 5.1 1.2 9-3 5.8-6.1 8.3-8 6.4zm23.7-1.2c-0.1-1.4-1.1-5.2-2.4-8.4-1.2-3.2-1.8-5.5-1.2-5.2 1.8 1.1 4.8 10.7 4.3 13.4-0.5 2.7-0.5 2.7-0.7 0.2zm121.4 60.3c0.6-1.7 0.9-3.3 0.7-3.5-0.3-0.3-1 1.1-1.7 3.1-1.5 4.3-0.6 4.7 1 0.5zm-111.6-2.3c-0.4-1.1-1-1.7-1.3-1.4-0.3 0.3-0.2 1.5 0.2 2.5 0.4 1.1 1 1.7 1.3 1.4 0.3-0.3 0.2-1.5-0.2-2.5zm59.5 1.2c3.6-1.9 4.3-2.9 2-2.8-1.6 0-7.8 4.5-6.3 4.6 0.5 0 2.5-0.8 4.3-1.7zm60.1-1.7c-0.7-1.4-1.6-2.3-1.9-1.9-0.3 0.3 0.1 1.6 0.9 2.9 1.9 3.1 2.7 2.3 1-1zm29.5-4.6c1.2-2 8-4.7 11.6-4.7 3.1 0 6.5 1.6 10.4 4.8 2.9 2.4 8.1 4.1 7 2.3-0.8-1.3 0.8-1.6 8.6-1.8 3.8-0.1 4-0.3 3.9-4-0.1-2.1-0.8-4.5-1.5-5.2-0.7-0.7-5.5-1.5-10.5-1.7-5.1-0.2-8.9-0.9-8.6-1.5 0.4-0.6 0.1-1-0.5-1-0.6 0-1.5 0.5-1.9 1.2-0.4 0.7-1.7 0.9-2.9 0.5-1.4-0.4-3.1 0.2-4.7 1.9l-2.5 2.5-2-2.7-2-2.7 0.6 3.1c0.9 4.7-1 3.6-5.3-3-2.1-3.3-5.7-8.1-7.9-10.6l-4.1-4.6 3.8 5.8c2.1 3.2 5.2 7.6 6.9 9.9 3.4 4.3 3.5 9 0.4 11.7-0.9 0.7-1.6 3-1.5 5l0.1 3.6 0.9-3.6c0.5-2 1.3-4.2 1.8-5zm-5.5 2c-0.4-0.9-0.6-0.6-0.7 0.7-0.1 1.2 0.2 1.9 0.6 1.5 0.4-0.4 0.4-1.4 0.1-2.2zm-150.6-5.6 2.3-2.9-2.6 2.2c-1.4 1.2-2.6 2.7-2.6 3.4 0 0.6 0.1 1 0.3 0.7 0.2-0.3 1.3-1.8 2.6-3.4zm9.4-0.9c-0.8-0.8-3 0.8-3 2.2 0 0.8 0.7 0.7 1.8-0.2 1-0.8 1.5-1.7 1.2-2zm141.3 1.1c-0.5-3.1-7.7-17.8-10.4-21.1-2.7-3.4-2.8-3.5 2.9 8.5 2.4 5 4.3 9.7 4.3 10.5 0 1.2 2.2 4.1 3.1 4.1 0.2 0 0.2-0.9 0-2zm2.8-0.6c-1.1-1.1-1.3-1-0.6 0.6 0.4 1.1 1.1 1.8 1.4 1.4 0.4-0.4 0-1.3-0.8-2.1zM-727.3 246.9c7.1-10.5 9.7-14.7 8.3-13.4-0.8 0.8-2.4 1.4-3.5 1.4-2.2 0-4-3.4-1.9-3.5 0.8 0 0.2-0.6-1.4-1.2-3.3-1.3-4.4-0.6-2.5 1.8 2 2.4 0.4 8.9-2.4 9.6-2.2 0.6-3.1 2.6-1.2 2.6 0.6 0 1.3 1.1 1.7 2.4 0.4 1.6 0.2 2.2-0.7 1.9-0.9-0.4-1.4 1.4-1.4 5.4l-0.1 5.9 1.4-4.8c0.8-2.7 2.4-6.3 3.6-8.1zm-2-0.4c0-0.6 0.6-1.2 1.2-1.2 0.7 0 0.9 0.5 0.5 1.2-0.4 0.6-0.9 1.2-1.2 1.2-0.3 0-0.5-0.5-0.5-1.2zm-140.3-3.9c0-5.3-0.5-10.4-1-11.3-0.6-1-1 1.6-1 7.1 0 7.7 0.8 13.9 1.7 13.9 0.2 0 0.3-4.3 0.3-9.7zm229.4 5c0-2.8-1.8-3-2.8-0.2-0.4 1.1-1 2.7-1.4 3.6-0.6 1.3-0.2 1.3 1.7 0.2 1.3-0.7 2.4-2.3 2.4-3.6zm-9.3-0.5c0-1.8-2.1-3.5-3.1-2.5-0.3 0.3-0.3 1.7 0.2 3 0.8 2.6 2.9 2.2 2.9-0.5zm26.4 0c-0.7-1.6-1.5-2.7-1.8-2.4-0.8 0.8 0.9 5.3 2.1 5.3 0.6 0 0.5-1.3-0.3-2.9zm-187.6-3.1c-1.8-1.1-2.2-0.5-1.3 1.9 0.6 1.6 1 1.7 1.7 0.5 0.5-0.9 0.4-1.9-0.4-2.3zm141.5 3.3c0-0.2-1.4-1.6-3.2-3.2l-3.2-2.8 2.8 3.2c2.6 3 3.6 3.7 3.6 2.8zm-149.3-15.1c-1.8-16.4-1-29.8 2.2-37.2 2.7-6 3.1-8.7 1.3-8.7-5 0-8.2 23.8-6 44.2 0.8 6.8 1.7 13.2 2.1 14.2 1.6 4.2 1.8-0.2 0.4-12.6zm188.7 10.8c0-0.6-1.2-1.1-2.6-1.1-2.5 0.1-2.5 0.1-0.3 1.1 1.3 0.5 2.4 1 2.6 1.1 0.2 0 0.3-0.4 0.3-1.1zm17.4-4.9c0-0.5-0.6-0.9-1.4-0.9-0.7 0-1 0.3-0.6 0.7 0.4 0.4 0.2 1.8-0.4 3.2-1.1 2.4-1.1 2.4 0.6 0.2 1-1.2 1.8-2.7 1.8-3.2zm-9.6-0.5c-1.1-1.1-9.9-1.9-12.9-1.1-1.7 0.4-2.7 1.3-2.2 2 0.5 0.9 1 0.8 1.7-0.2 1.1-1.7 11.1-0.5 12.3 1.5 0.6 1 1 0.9 1.3-0.1 0.3-0.8 0.2-1.7-0.1-2.1zm12.6-5.7c-2-7.6-4.1-10.8-4.1-6.3 0 6 4.4 17.3 5.5 14.1 0.2-0.6-0.4-4.1-1.4-7.9zm-202.2 4.7c-0.7-1.6-1.5-2.7-1.8-2.4-0.5 0.5 1.8 5.3 2.6 5.3 0.3 0-0.1-1.3-0.8-2.9zm120.9-2.9c-0.7-2.8-1.9-2.9-4-0.4-1.4 1.7-1.3 1.9 0.4 1.2 1.1-0.4 2.3-0.2 2.7 0.4 1.1 1.8 1.5 1.3 0.9-1.2zm-40.3 0c0.9-1.5-0.6-1.5-2.9 0-1.5 1-1.5 1.1 0.2 1.1 1.1 0 2.3-0.5 2.7-1.1zm-134.2-9.2c-0.9-1.5-4.1-1.7-4.1-0.3 0 0.5 0.6 1.6 1.4 2.3 1.6 1.6 3.9-0.1 2.7-2zm155.1-1.2c-0.4-0.7-1.2-1-1.8-0.6-0.6 0.3-1.6-0.4-2.3-1.7-1.5-2.7-7-5.8-10.4-5.8-3.8 0-2.7 2 1.5 2.8 2.2 0.4 5.5 2.4 7.8 4.8 2.4 2.4 4.3 3.6 5 3 0.6-0.6 0.7-1.6 0.3-2.3zm15.6 1.7c0-0.3-0.5-0.8-1.2-1.2-0.6-0.4-1.2-0.2-1.2 0.5 0 0.7 0.5 1.2 1.2 1.2 0.6 0 1.2-0.2 1.2-0.5zm2.5-8.8c-1.3-5.8-5.6-16.2-6.6-16.2-0.3 0 0.6 2.7 1.9 6.1 2.5 6.2 3.7 11.1 3.8 15.6 0.1 1.6 0.5 2.1 1.2 1.5 0.7-0.7 0.6-3.3-0.3-6.9zm-162.5-3.2c-0.4-2.6-0.6-2.8-1.4-1.1-0.5 1.1-0.5 4 0 6.4 0.9 4 1 4.1 1.4 1.1 0.2-1.8 0.2-4.6 0-6.4zm76.7-2.2c0-2.6-0.3-2.8-1.7-1.6-1 0.8-1.7 2.2-1.7 3 0 0.9 0.8 1.6 1.7 1.6 1.1 0 1.7-1.1 1.7-3zm53.2-0.4c0-0.6-0.2-1.2-0.5-1.2-0.3 0-0.8 0.5-1.2 1.2-0.4 0.6-0.2 1.2 0.5 1.2 0.7 0 1.2-0.5 1.2-1.2zM-865.4 204.3c-2.2-1-3.9-2.6-4.2-4.3-0.4-2.1-0.5-1.9-0.7 1-0.2 3.9 0.9 4.8 5.6 4.9 2.7 0 2.6-0.1-0.8-1.5zm207.5-2.1c-0.3-0.8-0.6-0.1-0.6 1.4 0 1.6 0.3 2.2 0.6 1.4 0.3-0.8 0.3-2.1 0-2.9zm-163.9-5.9c0-1.5-0.7-2.7-1.5-2.7-1.2 0-1.3 0.6-0.3 2.7 1.6 3.4 1.8 3.4 1.8 0zm-39.1-4.2c0.3-1.9 0.1-3.5-0.4-3.5-0.5 0-1 1.6-1 3.5 0 1.9 0.2 3.5 0.4 3.5 0.2 0 0.7-1.6 1-3.5zm26-1.4c-0.1-0.8 0.3-5.2 0.9-9.8 0.7-6 1.4-8.4 2.6-8.4 0.9 0 1.9 0.7 2.3 1.7 0.4 0.9 1.3 1.4 2.1 1.1 1-0.4 1.8 1.1 2.3 4.9 0.4 3 1.3 6.5 1.9 7.9 1.1 2.4 1.3 2.3 6.1-2.2 7.1-6.6 9.9-11.7 9.9-18.1 0-5.4-1.9-12.6-3.3-12.6-1.9 0.1-20.4 13.6-20.2 14.7 0.1 0.7-0.6 1.2-1.7 1.1-2.5-0.2-7.9 3.3-8.9 5.7-0.8 2 3.7 15.4 5.2 15.4 0.5 0 0.8-0.7 0.8-1.4zm117.5 0.7c-0.8-0.3-2.1-0.3-2.9 0-0.8 0.3-0.1 0.6 1.4 0.6 1.6 0 2.2-0.3 1.4-0.6zm5.1-11.3c-0.2-0.6-1.1 0.5-2 2.5-0.9 2-2 3.4-2.5 3.1-0.5-0.3-1.5-0.2-2.2 0.2-0.8 0.5-0.3 1.3 1.4 2.3 2.6 1.4 2.8 1.2 4.2-2.7 0.8-2.3 1.3-4.7 1.1-5.4zm-143.5 1.9c-0.3-1.1-0.6-0.5-0.6 1.4 0 1.9 0.2 2.8 0.5 2 0.3-0.8 0.3-2.3 0-3.5zm53.4 0.8c2.5-3.3 2.2-4.4-0.5-2.6-1.2 0.8-3.4 6.1-2.5 6.1 0.2 0 1.6-1.6 3-3.5zm38.4 2.3c-1-0.6-2.3-1.1-2.9-1.1-0.6 0-0.4 0.5 0.6 1.1 1 0.6 2.3 1.1 2.9 1.1 0.6 0 0.4-0.5-0.6-1.1zm126.8-13c0.5-0.5-0.3-0.9-1.7-0.9-3.3 0-12.8 2.4-13.4 3.4-0.6 1 14-1.4 15.1-2.5zm-9.6-0.9c5.5-1.6 6.6-2.6 4.3-4-1.1-0.7-0.7-14.3 0.6-22.8 0.4-2.8 0.1-3.2-2.7-3.2l-3.2 0 0.1 8.2c0.1 5.2-0.4 8.6-1.4 9.4-0.8 0.7-1.4 2.7-1.4 4.5 0 1.8-0.6 3.3-1.2 3.3-0.7 0-1 0.4-0.7 0.9 1.2 1.9-1.4 3.9-6.1 4.5-2.7 0.4-5 1-5.3 1.4-0.7 1.1 10.4-0.4 17-2.3zm26.7 1.8c0.4-1 0-1.7-0.9-1.7-0.9 0-1.9 0.8-2.2 1.7-0.4 1 0 1.7 0.9 1.7 0.9 0 1.9-0.8 2.2-1.7zm-181-4.7c0-1.6 0.8-4.7 1.7-7 1-2.3 1.7-5.1 1.7-6.2 0-1.3 1-2.3 2.6-2.6 1.4-0.3 0.4-0.6-2.2-0.7l-4.8-0.2 0.2 4.3c0.1 2.4-0.2 7.1-0.7 10.5-0.6 4.2-0.5 5.9 0.3 5.4 0.7-0.4 1.2-2 1.2-3.6zm5.4 0.4c-0.3-0.8-0.6-0.1-0.6 1.4 0 1.6 0.3 2.2 0.6 1.4 0.3-0.8 0.3-2.1 0-2.9zm31.6 3.3c0-0.3-0.5-0.8-1.2-1.2-0.6-0.4-1.2-0.2-1.2 0.5 0 0.7 0.5 1.2 1.2 1.2 0.6 0 1.2-0.2 1.2-0.5zm13.9-7.6c0-0.6-0.6-1.2-1.2-1.2-0.7 0-0.9 0.5-0.5 1.2 0.4 0.6 0.9 1.2 1.2 1.2 0.3 0 0.5-0.5 0.5-1.2zm71.8-2.3c0-0.6-0.8-1.2-1.8-1.2-1 0-1.5 0.5-1.1 1.2 0.4 0.6 1.2 1.2 1.8 1.2 0.6 0 1.1-0.5 1.1-1.2zm-176.2-11 0-3.5-0.9 3.5c-0.5 1.9-0.9 4.8-0.9 6.4l0 2.9 0.9-2.9c0.5-1.6 0.9-4.5 0.9-6.4zm6.1 4.1c0.6 0 1.1-0.5 1.1-1.2 0-1.7-3.2-1.4-3.8 0.3-0.3 0.8-0.2 2.2 0.2 3.2 0.5 1.4 0.7 1.4 1.1-0.3 0.2-1.1 0.9-2 1.5-2zm-28.2-9.5c-0.3-2.1-0.5-0.4-0.5 3.8 0 4.1 0.2 5.8 0.5 3.8 0.3-2.1 0.3-5.5 0-7.5zm78.9 1.8c-3.9-0.4-4.1-0.7-3.9-4.3 0.1-2.1 0.6-4.4 1.1-5.2 1.1-1.8 3-0.5 2.3 1.5-0.3 0.9 0.4 2.2 1.8 2.9 3.1 1.7 3.1 0 0-3.9-2.8-3.5-2-5.3 1.3-3.2 3 1.9 2.9 0.9-0.4-2.3-3.7-3.6-5.8-8.7-3.9-9.4 2.1-0.9-3.9-5.3-7.3-5.3l-2.9 0 2.9 2.3c1.6 1.2 3.4 2.3 4 2.3 0.6 0 0.8 0.3 0.5 0.6-0.3 0.3-2.2 0.1-4.2-0.5-3.7-1.1-5.4 0.5-1.9 1.8 1.9 0.7 2.3 7.3 0.7 11.4-1 2.6-0.3 5.5 1.1 4.6 0.8-0.5 4.2 4.1 3.6 5-1.1 1.7 0.7 2.6 4.7 2.4 4.8-0.2 4.8-0.2 0.8-0.6zm-49.7-5c0-1.3-0.5-2.3-1.2-2.3-0.6 0-1.2 1-1.2 2.3 0 1.3 0.5 2.3 1.2 2.3 0.6 0 1.2-1 1.2-2.3zm211 0.6c0.4-1 0-1.7-1-1.7-1 0-1.4 0.7-1 1.7 0.4 1 0.8 1.7 1 1.7 0.2 0 0.6-0.8 1-1.7zm-1.8-5.2c1.5 0 1.7-1.5 1-9.5-0.7-8.6-1-9.8-3.9-12.1-2.9-2.4-3.3-2.4-3.9-0.6-0.4 1.1-1 6.9-1.5 12.8l-0.7 10.8 3.6-0.7c2-0.4 4.4-0.7 5.4-0.7zm-140.3-2.3c-0.4-0.6-1.3-1.1-2.1-1.1-0.8 0-0.7 0.5 0.4 1.1 2.2 1.4 2.6 1.4 1.7 0zm-74.5-12.5c-0.9-2.6-1.1-2-1.1 3.9 0 6.4 0.1 6.6 1.1 3.1 0.7-2.5 0.7-5 0-6.9zm7.5 8.4c0.9-2.4-0.6-3.8-2-1.7-1.4 2.2-1.4 3.4 0.1 3.4 0.7 0 1.5-0.8 1.9-1.8zm37.4-4.1c0-0.6-0.5-0.8-1.2-0.4-0.6 0.4-1.2 1.2-1.2 1.9 0 0.6 0.5 0.8 1.2 0.4 0.6-0.4 1.2-1.2 1.2-1.9zm-38.1-9.5c-0.9-0.9-1.3-0.6-1.3 1.1 0 3.1 1.6 4.7 2.1 2.1 0.2-1.1-0.2-2.5-0.9-3.2zm-28.3 0.9c-0.4-1-0.2-1.5 0.5-1.1 0.7 0.4 1.1-0.7 1.1-2.6 0-4.3 2.5-7.7 6.9-9.6 2-0.8 3.3-1.7 3.1-2-0.3-0.3-2.7 0.6-5.3 2-3.2 1.7-5.4 3.8-6.5 6.4-2 4.7-2.1 8.6-0.4 8.6 0.7 0 1-0.8 0.6-1.8zm0.3-25.6c0.3-0.2-0.1-0.4-0.7-0.4-0.7 0-2.5 1.1-4 2.4l-2.7 2.4 3.5-2c1.9-1.1 3.7-2.2 4-2.4zm23.8-15.4c0.4-0.6 0.2-1.2-0.5-1.2-0.7 0-1.2 0.5-1.2 1.2 0 0.6 0.2 1.2 0.5 1.2 0.3 0 0.8-0.5 1.2-1.2zm12.6-9.8c0.4-1.1 0-1.7-1-1.7-0.9 0-1.7 0.8-1.7 1.7 0 1 0.5 1.7 1 1.7 0.6 0 1.3-0.8 1.7-1.7zm193.7-0.1c-0.4-0.4-1.4-0.4-2.2-0.1-0.9 0.4-0.6 0.6 0.7 0.7 1.2 0.1 1.9-0.2 1.5-0.6zM-815.2 52.4c-1.1-0.3-2.9-0.3-4.1 0-1.1 0.3-0.2 0.5 2 0.5 2.2 0 3.1-0.2 2-0.5zm156.6 411.7c-0.7-1.3-1.2-9.8-1.2-19.5l0-17.2 3.1-1.4c3.7-1.7 4.8-0.4 4.1 4.6-0.4 2.5-0.8 3.1-1.5 2-0.5-0.9-1-1-1-0.3 0 0.7 0.5 1.8 1.2 2.5 1.8 1.8 2.1 29.5 0.3 28.8-0.8-0.3-1.1 0.1-0.7 1.1 1 2.6-2.8 2.1-4.2-0.6zm-139.2-73.6c-1.8-0.9-3.2-2-3.2-2.3 0-0.3 1.8-4.1 3.9-8.4 2.2-4.3 4.8-10.5 5.9-13.9 1.7-5.3 2.3-6.1 5.1-6.1 1.8 0 3.7 0.9 4.5 2.2 1.2 1.9 0.4 4.3-5.5 16.2-3.8 7.7-7 13.9-7.2 13.9-0.2 0-1.8-0.8-3.5-1.8zm33 0c1.1-1.2 2.3-1.8 2.7-1.4 0.4 0.4-0.5 1.3-2 2.1-2.6 1.3-2.6 1.3-0.7-0.7zm-64.2-256.5c-0.4-6.6-0.2-12.4 0.4-13.1 0.7-0.8 0-5.4-1.7-12.3-3-11.7-5-16.5-9.6-22.6-1.5-2.1-2.3-3.8-1.7-3.8 0.6 0 2.7 2.4 4.7 5.4 3.3 5 6.6 13.8 9.4 25.5 0.8 3.4 1.7 4.7 2.8 4.3 1.8-0.7 7.6 10.9 7.6 15.3 0 6-5.6 13.2-10.3 13.2-0.5 0-1.2-5.3-1.6-11.9zm4.9 6.7c0-0.3-0.5-0.8-1.2-1.2-0.6-0.4-1.2-0.2-1.2 0.5 0 0.7 0.5 1.2 1.2 1.2 0.6 0 1.2-0.2 1.2-0.5zm-1.5-15.4c-0.3-1.8-0.5-0.6-0.5 2.6 0 3.2 0.2 4.6 0.5 3.2 0.3-1.4 0.3-4 0-5.8z" fill="#ccc"/><path d="m-709 468.7c-2.3-1-2.3-1 0-1.1 1.9-0.1 2-0.3 0.6-1.2-1-0.6-1.4-1.1-0.9-1.1 0.4 0 0.1-1.4-0.8-3.1-1.1-2-2.6-3.1-4.6-3.2-1.6-0.1-3 0.2-3 0.7 0 0.5-1 1.2-2.3 1.6-1.3 0.4-2.6 2-3 3.5-0.4 1.5-1 2.7-1.4 2.6-0.4-0.1-1.5 0.2-2.5 0.6-1 0.4-18.4 0.6-38.8 0.3-39.2-0.5-45.8-1.3-53.8-6.3-5.1-3.2-8.7-3.5-4.9-0.3l2.6 2.2-4.9 0.5c-2.7 0.3-5.3 0.3-5.8 0-0.5-0.3 0.7-2.3 2.6-4.5 1.9-2.2 3.5-5.1 3.5-6.5 0-2.2 0.2-2.3 1.4-0.6 1 1.4 16.6 7.8 18.8 7.8 0.2 0 3.2-7.2 5.3-12.5 0.6-1.6 1.6-2.3 2.4-1.8 0.8 0.5 1 0.3 0.5-0.5-0.5-0.7-0.3-1.3 0.4-1.3 0.7 0 1.2-0.9 1.2-2.1 0-1.1 0.6-2.7 1.3-3.4 1.5-1.5-0.5-5.3-5.1-9.6-3.1-3-14.2-10.2-17.6-11.5-2.3-0.9-2.3-1 0.8-2.4 1.8-0.8 3.2-1.9 3.2-2.3 0-2.2 3.6-1.8 7.1 0.7 2.1 1.5 3.1 2.8 2.1 2.8-1.6 0 3.9 5.3 10.8 10.5l3.2 2.4-0.3-8.5c-0.3-6.6-0.7-8.5-2.1-8.5-1 0-2.5-0.7-3.5-1.7-1.5-1.5-1.8-1-2.3 3.7-0.5 4.4-0.9 5.2-2.3 4.3-1.1-0.7-1.6-2.7-1.4-6.1 0.3-4.6 0-5.2-2.9-6.5-4.1-1.8-10.8-6.3-10.8-7.2 0-0.4 6.1 2.3 13.6 5.9 37.2 18 56.2 25.9 70.5 29.5 13.6 3.4 12.9 1.4-1.3-3.4-10.8-3.7-11.6-4.1-11.6-6.4 0-1-1.3-1.9-2.9-2.1-1.6-0.2-3.5-0.9-4.3-1.5-0.9-0.7-2.2-0.7-3.9 0.2-1.4 0.7-2.8 1-3.2 0.7-0.4-0.4 0.1-0.7 1-0.7 1.3 0 1.3-0.2-0.1-1.1-1-0.6-2.5-1.1-3.5-1.1-1.5 0-1.5 0.1 0 1.1 1 0.6 1.2 1.1 0.5 1.1-0.7 0-2.5-1.3-4-2.9-1.5-1.6-6-3.9-10-5.1-4-1.2-8.2-2.8-9.3-3.5-1.2-0.7-8.6-4.1-16.6-7.4-10.3-4.4-14.9-5.8-15.9-5-1.1 0.9-1.3 0.7-0.7-0.7 0.4-1 0.3-2-0.3-2-0.5-0.1-2.3-0.2-3.9-0.3-1.6-0.1-4.2-0.9-5.8-1.9-1.6-0.9-3.3-1.6-3.8-1.4-0.5 0.1-0.9-0.3-0.9-0.9 0-0.6-0.4-1.1-0.9-1-2.6 0.4-4-0.5-6.1-3.9-3-4.9-3.1-7.7-0.3-5.3 3.9 3.3 31.2 18.3 37.4 20.5 3.4 1.2 10.6 4 15.9 6.3 5.3 2.3 13.6 4.7 18.5 5.5 4.9 0.8 11.2 2.6 14.1 4 5.7 2.8 18.5 6.9 16.7 5.4-0.6-0.5-2.9-1.7-5.2-2.6-2.2-0.9-6.5-3-9.6-4.8-3.1-1.8-6-3.2-6.7-3.2-0.6 0-1.1-0.5-1.1-1.2 0-1.6 2.7-1.5 4.4 0.2 1.7 1.7 0.9-6.1-1-9.7-0.7-1.4-0.8-2.1-0.1-1.7 0.6 0.4 1.5-0.1 1.9-1.1 1-2.6 0.9-2.8-1.1-2.8-1 0-1.5 0.5-1.1 1.2 0.4 0.6 0.1 1.2-0.6 1.2-0.8 0-1.1-1-0.7-2.6 0.4-1.4 0.7-3 0.7-3.5 0-0.5 0.8-0.9 1.7-0.9 2.8 0 5.3 4.9 5.3 10.5 0 3.1 0.7 5.9 1.6 6.7 1.8 1.5 3.1 0.6 3.1-2 0-0.9 1.4-3.5 3-5.7 3.8-4.9 5.1-12.7 2.3-13.7-1.6-0.6-1.9-2.6-1.9-11.7 0-10.8 0.1-11 3.6-14.3 2-1.8 4.5-3.4 5.7-3.4 3.3 0 5.8 1.3 5.8 3 0 1.2 0.5 1.1 2.1-0.4 2-2 2-2.1-0.7-3.3-1.5-0.7-3.2-1.9-3.7-2.7-0.5-0.8-3-1.6-5.6-1.8-4.3-0.4-5-0.1-7.6 3.8-4.2 6-5.3 9.8-4.6 14.6 0.4 2.7 0.2 4.1-0.6 4.1-0.7 0-1.3 1.8-1.3 3.9 0 4-3.2 9.1-6.9 11.2-2.3 1.2-5.8 0.4-5.8-1.2 0-0.5 0.8-0.7 1.8-0.3 1.5 0.6 1.3-0.5-0.7-6.1-2.8-7.5-3.1-8-3.9-7.2-0.3 0.3 0.2 2.8 1.2 5.6 1 2.7 1.6 5.2 1.3 5.4-0.3 0.3-1.1-1.3-1.8-3.4l-1.3-3.8-4 9.2c-2.2 5-4 9.8-4 10.6 0 2.3-5.5 3-9.8 1.2l-4.1-1.7 6.2-12.7c3.4-7 6.4-13.3 6.7-14 0.3-0.9 1.3-1 3.6-0.1 2.7 1 3.2 0.9 3.2-0.8 0-1.1 0.3-3.2 0.6-4.7 0.3-1.7-0.5-3.6-2.3-5.5-1.6-1.6-2.3-2.8-1.7-2.8 0.6 0 0.8-0.5 0.4-1.2-0.5-0.8-1.3-0.8-2.4 0.1-1.2 1-2.6 1-5.3 0.1-6.4-2.2-11.5-1.6-15.1 1.8-1.8 1.7-3.2 4.1-3.2 5.3 0 1.9-0.3 2-2.2 0.6-1.2-0.9-5.9-6.2-10.4-11.8-6.5-8.1-8.2-11.1-8.3-14.4-0.1-3.5-0.3-3.7-0.7-1-0.7 4.4-3.8 4.2-3.8-0.3 0-2.2 0.6-3.5 1.6-3.5 1.6 0 3-4.8 3-10.3 0-1.7 1-4.6 2.3-6.5 4-6 3.2-7.7-9-18.9-9.1-8.4-11.4-10-11.7-8.2-0.4 2.2-1.4 2.7-5.1 2.3-1.1-0.1-2 0.3-2 1 0 0.7 0.5 1.2 1.2 1.2 2.5 0 0.9 1.9-4.1 4.9-2.9 1.7-5.2 3.7-5.2 4.3 0 1.5 0.1 1.5 5.2-0.6 5.5-2.3 9.3-0.9 15 5.4 3 3.3 4.2 5.9 4.8 10.3 0.6 4.2 1.3 5.9 2.7 5.9 1.4 0.1 1.3 0.3-0.4 1-1.6 0.7-2.8 0.4-3.8-0.9-1.3-1.6-1.4-1.4-1.4 1.2 0 3.8-3.6 6.1-6.9 4.4-3.4-1.8-4.1-1.4-1.8 1.1 2.7 3 3.2 2.9 7.4-0.7l3.6-3-0.7 3.4c-0.4 2.2-0.1 4 1.1 5.1 1.2 1.2 1.6 3.5 1.4 7.1-0.3 4 0.1 5.4 1.2 5.4 0.9 0 1.6 1.1 1.6 2.5 0 2.1-0.5 2.4-3.2 1.8-1.8-0.4-4.2-1-5.4-1.5-1.4-0.6-2-0.4-1.5 0.4 0.4 0.7 0 1.5-1 1.9-2.2 0.9-2 10.7 0.2 11.6 1.1 0.4 1.3-0.4 0.8-2.9-1-5.1 2.1-8 8.5-8 3.4 0 5.3-0.6 5.7-1.7 0.4-1 1.2-1.7 1.8-1.7 0.6 0 0.9 0.7 0.6 1.5-0.3 0.8 1.2 4.1 3.3 7.2 4.3 6.3 5 8.6 1.9 6.2-1.1-0.9-0.2 0.3 2 2.6 2.4 2.5 4.5 3.8 5.1 3.2 0.6-0.6 1.6-1 2.3-1 0.7 0 0.4 0.5-0.5 1.2-1.5 1-1.5 1.3 0.2 2.7 1.8 1.4 1.8 1.8-0.1 6.1-2.7 6-5.1 7.9-8.8 7-4.1-1-3.9 2.5 0.3 4 1.8 0.6 4.2 1.7 5.5 2.3 2.1 1 2 1.1-0.6 0.6-1.6-0.3-3.6-0.1-4.5 0.4-1.8 1.1-19.2-8.1-25-13.3l-3.8-3.4-0.7-22c-0.7-22.1-1.3-27.2-3.3-27.2-0.6 0-0.8 3.1-0.5 7.2 0.5 6.5 0.5 6.7-0.5 2.6-0.6-2.5-1.3-6.7-1.5-9.3-0.5-5.5-2.2-10.2-5.3-14.1-2-2.5-2.1-3.1-0.6-4.6 2.3-2.3 2.1-3.9-0.5-3.9-1.9 0-2.3-1.1-2.9-7.8-0.4-4.3-1.1-9.6-1.5-11.9l-0.8-4.1-0.4 4.9c-0.3 3.3-0.9 4.9-2.1 4.9-1.9 0-2.2 3.2-0.5 5.8 0.8 1.2 0.4 2.4-1.1 4.1-2 2.1-2.3 4.7-2.7 24.9-0.7 29.9-3.2 118.7-3.5 123.8-0.1 2.2-0.4 6.6-0.5 9.6-0.2 5.1-0.5 5.5-2.8 5.2-2.6-0.4-2.6-0.7-2.8-17.7-0.1-9.5-0.5-35.2-0.9-57-0.6-34.9-0.5-39.5 1-38.9 2.1 0.8 2.3 2.3 0.3 3.1-1.2 0.4-1.2 0.8 0 2.1 1.2 1.3 1.4 1.2 1.4-0.4 0-1.1 0.7-2 1.4-2 0.8 0 0-1.3-1.7-2.8-3-2.6-4.5-6.2-2-4.6 0.6 0.4 1.2-0.1 1.2-1 0-0.9-0.6-1.9-1.3-2.2-0.7-0.2-1.1-1.1-0.8-2 0.4-1.2 1-1.1 2.5 0.5 1.1 1.1 2.3 1.8 2.6 1.4 0.3-0.3-0.8-1.7-2.5-3-1.7-1.3-2.9-3-2.6-3.8 0.3-0.9 1-0.8 2.3 0.5 1.6 1.6 1.8 1.5 1.7-1.5-0.1-2.7-0.5-3.1-2.1-2.2-1.8 0.9-2 0.4-1.8-5.2 0.1-4.7 0.6-6.1 1.7-5.7 1.6 0.6 1.9-1.1 1.6-8.9-0.3-9.2-1.6-17.4-2.7-17.4-0.6 0-0.9 1.6-0.7 3.5 0.3 1.9 0.1 3.5-0.4 3.5-1.2 0-1.3-1.3-1-8.1 0.5-11 4.1-17.4 12-21.6 2.9-1.5 4-2.6 2.7-2.6-1.2 0-1.8-0.6-1.4-1.2 0.4-0.6 0.2-1.2-0.5-1.2-0.7 0-1.2-0.9-1.2-2 0-1.1-0.8-3.5-1.7-5.3-1.3-2.4-1.7-7.1-1.7-17.1 0-12.7 0.2-13.8 2.2-13.8 2.2 0 4-2.6 2.7-3.9-0.4-0.4-2.4-0.7-4.6-0.7-3.5 0-3.8-0.2-2.7-2.3 1.1-2.1 0.9-2.2-2.2-1.6-2.9 0.6-3.8 0.1-6.4-3.8-1.7-2.4-3-5.1-3-5.9 0-0.8-1.5-6.1-3.4-11.7-3.7-11.2-7.6-32.1-8.7-47.6-1.3-16.8 2.9-41.1 9.8-56.7 1.8-4.1 3.6-9 4-10.7 0.9-4.1 3.8-4.1 10.9 0 12.5 7.2 21.1 14.9 19 17-0.4 0.4-2.6 0.7-4.9 0.7-4.3 0-14.7 4.8-17.1 8-2.8 3.7-3.8 10.5-3.9 28.6-0.1 17.8 1.4 32.3 5.2 50.6 0.8 4 1.3 9 1 11.3-0.3 2.5 0.1 4.6 1.1 5.4 2.3 1.9 8.7 3 9.5 1.7 0.4-0.6-0.9-1.5-2.8-1.9-1.9-0.4-3.9-1.6-4.5-2.7-1.1-2-3.1-13.9-2.6-15.6 0.1-0.5-0.6-5-1.6-9.8-2.5-11.8-4.1-38.5-2.9-46.5 2.9-18.9 3.4-20.4 8-22.9 2.3-1.3 6.9-3.1 10.1-4.1 4.9-1.5 6.3-1.5 8.8-0.2 7.1 3.7 10.6 20.5 10 48.6-0.2 10.5-0.2 19 0 19 1.8 0 8.3-6.9 8.3-8.8 0-1.3 1.6-3.6 3.6-5l3.6-2.6 0.6 2.4c0.8 3 0.6 3 6.8-0.6 4.7-2.7 5-3.2 3.7-5.5-2.4-4.2-1.4-34.6 1.3-43 1.9-5.9 2.2-6.4 2.3-3.3 0.1 2.9 1 4.2 4.1 6.2 2.2 1.4 4.6 2.2 5.2 1.7 0.8-0.5 0.9-3.6 0.5-8.5-1.7-18.7-5.4-29.1-13.3-37.8-4.9-5.3-5-5.3-11.8-5.1-3.8 0.1-7.4 0.8-7.9 1.5-0.6 0.7-1.8 2.3-2.7 3.6-1.5 2.2-1.7 2-1.7-2.6 0-4.7-0.1-4.9-2.5-3.5-1.4 0.8-3.3 2-4.4 2.6-2.6 1.6-9.2 8-7 6.9 1-0.5 2.7-1.7 3.8-2.7 3.5-3 5 0.1 1.8 3.8l-2.7 3.1-6.6-4-6.6-4 3.7-3.5c7.3-6.9 23.3-17.8 32.5-22.2 26.4-12.6 64.8-18.5 95-14.7l8.1 1-4.6 1.5c-4.6 1.5-4.6 1.5 4.7 1.6 7.8 0.1 11.8 1 24.8 5.4 22.1 7.5 32.6 12.9 43.7 22.5 5.3 4.5 9.5 8.8 9.5 9.5 0 0.8-2 1.1-6.1 0.6-5.8-0.6-5.8-0.6 1.9 1.3 7.6 1.8 8.1 2.2 10.7 7.1 1.5 2.8 3.2 5.4 3.7 5.8 2.3 1.4 8.1 21.4 9.8 33.7 1.6 11.6 2.9 20.7 4.8 34.2 0.5 3.6 2.8 10.7 7 21.6 1.7 4.5 1.9 5.9 0.7 7.8-0.8 1.3-1.4 3.9-1.4 5.8 0 1.9-0.9 5.2-1.9 7.2-1.7 3.2-1.7 3.5-0.1 2.2 1.5-1.3 1.9-1.2 2.4 0.6 1.3 4.7 1.7 12.8 0.9 17.7l-0.9 5.2-0.9-4c-0.5-2.2-1.7-4.7-2.5-5.6-1.4-1.4-1.6-0.8-1.6 3.4 0 2.8 0.5 8.1 1.2 11.9 2.6 14.8 2.6 15.1 1.4 13.9-0.7-0.6-1.4-2.2-1.7-3.5-0.3-1.3-0.5-0.2-0.5 2.3 0 2.5-0.4 5.7-0.9 6.9-1 2.2-0.9 2.2 1.4 0.2 2.3-2 2.4-2 3 0.4 0.4 1.7 0.2 2.3-0.9 1.9-2-0.8-1.7 7.9 0.3 9.9 0.8 0.8 1.4 3.4 1.4 5.8 0 2.4 0.5 4.4 1.2 4.4 0.8 0 0.9 2.2 0.5 6.1-1.1 9.3-1.3 9.6-4.2 7.1-2.4-2.1-2.5-2.1-1.6 0.1 1.9 4.9 1.5 5.3-5.7 5.8-9.8 0.7-13 1.6-13.8 3.6-0.4 1 0.2 2.5 1.3 3.4 1.1 0.9 1.4 1.6 0.7 1.6-1.7 0-4 10.3-3 13.9 0.6 2.2 0.3 2.6-1.3 2-1.2-0.5-2.2-0.1-2.6 1-0.4 0.9-1.4 1.7-2.3 1.7-1.9 0-2.1 1.9-0.4 3 0.7 0.4 1 1.8 0.7 3-0.3 1.2-0.1 1.9 0.5 1.5 1.3-0.8 1.2 0.4-0.1 3.5-1 2.3-1 2.3-1.1 0.1-0.1-3-2-1-3 3.1-0.6 2.5-0.4 3.2 1.1 3.2 2.1 0 2.5 1.8 0.7 2.9-0.6 0.4-1.2 1.7-1.2 3 0 1.2-0.5 2.2-1 2.2-1.7 0-2.3 5.6-0.7 6.2 1.1 0.4 1.1 2-0.3 7.3-1 3.7-2.1 10.9-2.6 16-0.9 10.2-1.9 13.2-4.6 15.3-1.5 1.1-1.9 0.9-2.5-1.7-1.2-5-1.1-18.7 0.2-26.7 0.7-4.1 1-7.6 0.7-7.9-0.3-0.3-1.9 1.9-3.6 4.8-2.7 4.6-3.2 7-3.7 17.4-0.5 10.4-0.2 13.5 2 21.4 1.9 6.7 2.3 9.7 1.4 10.6-2.3 2.3-4.6 0-7.8-8.1-2.8-7.1-3.1-9.2-2.6-17.2 0.4-6.1 1.6-11.5 3.6-16.5 1.7-4.1 2.8-7.6 2.6-7.9-1.4-1.4-4.7 2.2-4.8 5.1 0 1.8-1.1 7.8-2.3 13.3-2.1 9.8-2.1 10.3-0.1 18.9 2.2 9.5 6 17.1 8.8 17.7 3.1 0.7 3.9 2.4 4.4 9.9 0.6 9.6-0.7 10.8-16.2 15-14 3.8-18.1 5.3-19.1 6.9-0.4 0.7-0.2 0.9 0.5 0.4 0.7-0.4 1.4 0.4 1.7 1.9 0.4 1.9 0 2.6-1.5 2.6-1.1 0-1.8-0.3-1.6-0.7 0.2-0.4-0.3-0.7-1.2-0.7-1.8 0-1.3 4.5 1.1 10.3l1.3 3.1 2.2-4.1c1.7-3.2 2.8-4 5.1-3.7 1.6 0.2 3.1 0.9 3.3 1.5 0.7 2.1-10.2 13.3-16.3 16.8-6.1 3.5-8.9 4-12.9 2.3zm14.9-7.9c2.1-2.3 2.1-2.6 0.1-10-1.1-4.2-2.2-7.6-2.3-7.6-0.4 0-12.3 7.8-15 9.8-2.2 1.7-2.1 1.7 0.9 0.6 6.4-2.3 7.4-1.7 7.2 4.1-0.1 2.9 0.2 5.2 0.7 5.2 0.5 0 0.6 0.8 0.2 1.9-0.6 1.7-0.4 1.7 2.6 0.1 1.8-1 4.3-2.8 5.5-4.1zm-174.8 1.6c-0.4-1-0.9-1.7-1.1-1.7-0.3 0-0.5 0.8-0.5 1.7 0 1 0.5 1.7 1.1 1.7 0.6 0 0.8-0.8 0.5-1.7zm139-1.7c2.1-0.9 2-1-0.6-0.9-1.6 0-4.5 0.5-6.4 0.9l-3.5 0.9 4.1 0.1c2.2 0 5.1-0.4 6.4-0.9zm9.3-2.3c2.9-1.3-0.1-1.3-4.1 0-2.3 0.7-2.4 0.9-0.6 1 1.3 0 3.4-0.4 4.6-1zm-29.5-12.6c0-1.3-4.1-2.4-8.6-2.4-4.3 0-2.6 1.9 2.3 2.6 6.1 0.9 6.4 0.9 6.4-0.2zm43.5-4.8 4.5-2.8-3.7-0.4c-2-0.2-5.4 0.6-7.5 1.7-2.1 1.1-5.4 2.7-7.3 3.4-3.2 1.2-3 1.3 3 1.1 4.6-0.1 7.8-1 11-3zm-7.6 1.2c1-0.6 2.3-1.1 2.9-1.1 0.6 0 0.4 0.5-0.6 1.1-1 0.6-2.3 1.1-2.9 1.1-0.6 0-0.4-0.5 0.6-1.1zm-60.7-8.4c-0.9-1.4-2.4-5.5-3.3-8.9-1.1-4.3-2.6-7.1-4.7-8.6-4.2-3.1-5.6-1.2-1.6 2.2 1.8 1.5 3.2 3.4 3.2 4.3 0 2.4 5.8 13.6 7.1 13.6 0.6 0 0.3-1.2-0.6-2.6zm28-0.6c0.6-1.9-3-3.3-4.5-1.7-0.7 0.7-0.8 1.8-0.4 2.5 1 1.7 4.3 1.1 4.9-0.8zm-122.4-0.3c0-0.6-0.2-1.2-0.5-1.2-0.3 0-0.8 0.5-1.2 1.2-0.4 0.6-0.2 1.2 0.5 1.2 0.7 0 1.2-0.5 1.2-1.2zm-0.5-5.5c-1.2-1.2-2.1 0.6-1.2 2.2 0.7 1.2 1 1.2 1.4 0 0.3-0.8 0.2-1.8-0.2-2.2zm0.5-4.4c0-1-0.5-1.5-1.2-1.1-0.6 0.4-1.2 1.2-1.2 1.8 0 0.6 0.5 1.1 1.2 1.1 0.6 0 1.2-0.8 1.2-1.8zm0-3.9c0-0.6-0.5-1.4-1.2-1.8-0.6-0.4-1.2 0.1-1.2 1.1 0 1 0.5 1.8 1.2 1.8 0.6 0 1.2-0.5 1.2-1.1zm62.5-2.8c0-0.2-0.9-1.2-2-2-1.8-1.4-1.9-1.4-0.4 0.4 1.5 1.9 2.5 2.5 2.5 1.6zm-63-3.9c-1.2-1.2-2.1 0.6-1.2 2.2 0.7 1.2 1 1.2 1.4 0 0.3-0.8 0.2-1.8-0.2-2.2zm145.1-0.3c4.7-2.4 8.5-8 7.8-11.3-0.3-1.3-1.2-0.5-2.9 2.8-3.1 5.9-8.8 8.5-19.1 8.7-5.7 0.1-6.5 0.3-3.7 1 6.5 1.7 13.3 1.2 18-1.2zm-145.8-8.4c-1.2-1.1-1.3-0.9-0.7 1.2 0.5 1.6 0.3 2.6-0.5 2.6-0.7 0-0.9 0.6-0.5 1.4 0.6 0.9 1.2 0.6 2-1.2 0.8-1.9 0.7-3-0.3-4zm200.1 5.2c0-0.5-0.7-1.6-1.4-2.5-1.2-1.3-1.1-1.4 0.7-0.8 1.2 0.4 2.6 0.7 3.3 0.7 0.6 0 0.8 0.5 0.4 1.2-0.4 0.6-0.1 1.2 0.5 1.2 2.3 0 2.7-3.7 0.8-6.9-3.6-6.1-7-22.6-5.5-27.2 1.8-5.8 2.7-14.5 1.5-14.5-3.4 0-4 3.7-3.4 21.9 0.4 12.3 0.2 18.8-0.6 19.6-0.7 0.7-3.1 1.3-5.3 1.3l-4.1 0.1 4.1 1.8c2.2 1 4.5 2.5 5 3.4 1 1.7 4.3 2.3 4.3 0.7zm-20.8-3.7c0-0.6-1.3-1.2-3-1.2-1.7 0-2.7 0.5-2.2 1.2 0.4 0.6 1.7 1.2 3 1.2 1.2 0 2.2-0.5 2.2-1.2zm-12.7-3c0-1.9-3.9-7.8-4.4-6.5-0.9 2.6 0.8 7.2 2.6 7.2 0.9 0 1.7-0.3 1.7-0.6zm-12.2-7.2c0.6-3-1.1-11-3.9-18.1-2-5-2.5-3.1-0.8 2.8 0.8 2.8 1.3 6.8 1 8.9-1.1 7.4 2.2 13.2 3.7 6.4zm-153.2-3.7c0-0.6-0.5-1.4-1.2-1.8-0.6-0.4-1.2 0.1-1.2 1.1 0 1 0.5 1.8 1.2 1.8 0.6 0 1.2-0.5 1.2-1.1zm159.2-8.2c0-4.5-0.4-8.1-0.9-8.1-1 0-1.1 9.9-0.1 13.6 0.4 1.4 0.8 2.6 0.9 2.6 0.1 0 0.2-3.6 0.2-8.1zm-159.2 4c-0.9-1.1-1.1-2.1-0.4-2.6 1.9-1.4 1.9-8 0-8.7-2-0.8-2.5 1-0.6 2.2 0.7 0.5 0.8 1.3 0.2 2.1-2.2 2.8-2.4 6.5-0.4 7.7 2.7 1.6 3 1.4 1.3-0.6zm50.4-7.4c-1.2-1.3-2.4-2-2.8-1.6-0.4 0.4 0.3 1.4 1.6 2.3 3.2 2.3 3.7 2 1.2-0.7zm-50.9-8c-0.4-0.6 0-1.3 0.8-1.6 0.8-0.3 1.1-0.9 0.6-1.4-0.4-0.5-1.6-0.1-2.5 0.9-1.7 1.7-1.4 3.2 0.7 3.2 0.6 0 0.7-0.5 0.4-1.1zm105.8-1.5c0-1.9-0.3-2.2-1.3-1.3-0.7 0.7-0.9 1.9-0.5 2.5 1.2 1.9 1.8 1.5 1.8-1.3zm49.2 0.1c-0.4-1.3-1.1-4.8-1.6-7.8-0.6-3.7-1-4.7-1.4-3.1-0.6 2.3 2 13.3 3.2 13.3 0.3 0 0.3-1.1-0.1-2.4zm-46.3 0.2c0.4-0.6 0.1-1.4-0.5-1.8-0.6-0.4-1.2 0.1-1.2 1.1 0 2 0.7 2.3 1.7 0.7zm52.5-5.9 0-2.9-0.9 2.9c-0.5 1.6-0.9 3.9-1 5.2 0 2.3 0 2.3 1 0 0.5-1.3 1-3.6 1-5.2zm59.2 1.7c0-1.6-0.2-2.9-0.4-2.9-0.2 0-0.7 1.3-1 2.9-0.3 1.6-0.1 2.9 0.4 2.9 0.5 0 1-1.3 1-2.9zm-221-0.6c0-0.6-0.2-1.2-0.5-1.2-0.3 0-0.8 0.5-1.2 1.2-0.4 0.6-0.2 1.2 0.5 1.2 0.7 0 1.2-0.5 1.2-1.2zm189.7-1.7c0.3-1.3 1.4-2.3 2.4-2.3 1 0 1.9-1.2 2.1-2.6 0.2-1.4-0.1-2.6-0.6-2.6-2 0.1-6.3 4.6-5.5 5.8 0.4 0.7-0.3 1.5-1.6 1.9-3.2 0.8-3.1 2.9 0.1 2.5 1.4-0.2 2.8-1.4 3.2-2.7zm-187.4-0.1c0-0.9-3.1-4-4-4-1.3 0-0.6 3.3 0.8 3.9 2.1 0.8 3.2 0.9 3.2 0.1zm139-0.9c-1.6-1.9-8-3.1-8.9-1.7-0.3 0.5 0.6 1 2.1 1 1.5 0 3.5 0.5 4.4 1.1 2.6 1.7 4 1.4 2.4-0.5zm-26.5-4.1c0.2-2.5 0.1-5.5-0.3-6.6-0.6-1.8-0.8-1.8-2 0.2-1.2 2.2-1.3 2.2-4.1-0.4-1.6-1.5-3.2-2.2-3.6-1.5-1 1.7 0.5 4.8 2.3 4.8 1.8 0 5.4 6.3 4.3 7.4-0.4 0.4 0.1 0.7 1.1 0.7 1.3 0 1.9-1.4 2.2-4.6zm71.6 2.8c0-1-1.8-2.5-4-3.5-5-2.1-6.4-2.1-6.4 0 0 1.3 3.6 3.2 10.1 5.2 0.2 0.1 0.3-0.7 0.3-1.7zm38.2-9.1c0-4.4-1.6-2.1-2.8 4-0.7 3.8-0.7 3.9 1 1.8 1-1.2 1.8-3.8 1.8-5.8zm-36.4 5.1c-0.4-0.6-1.2-1.2-1.8-1.2-0.6 0-1.1 0.5-1.1 1.2 0 0.6 0.8 1.2 1.8 1.2 1 0 1.5-0.5 1.1-1.2zm-66.6-3.8c0-0.5-0.5-0.9-1.1-0.9-0.6 0-1.1 1.2-1.1 2.6 0 2.1 0.2 2.3 1.1 0.9 0.6-1 1.1-2.1 1.1-2.6zm-46-1.2c-1-2.1-3.6-5.3-5.6-7.3-2.3-2.2-4-5.2-4.5-7.9-1.2-6.2 0-15.5 2.2-17.9 2.1-2.3 2.6-4.2 0.7-3.1-0.6 0.4-2.1 2.6-3.3 5-4.1 8.2-0.1 24.7 7.5 31.5 2.2 1.9 4.2 3.5 4.4 3.5 0.2 0-0.4-1.7-1.4-3.8zm88.8-3.5c-0.1-2.4-0.1-2.5-1.1-0.2-0.8 1.9-1 1.6-1.1-1.8-0.1-4.3-1.8-6.9-4.5-6.9-2.1 0-0.9 5 2.3 9.5 2.6 3.6 4.5 3.3 4.4-0.6zm-69.2-1.1c-0.9-0.9-1.3-0.8-1.3 0.5 0 2.3 1.6 3.9 2.1 2.1 0.2-0.7-0.1-1.9-0.8-2.6zm33.2 2c5.9-0.4 5.9-1.7 0-1.7-3.5 0-5.8 0.6-6.8 2-1.4 1.7-1.3 1.8 0.7 1 1.3-0.5 4-1.1 6.2-1.3zm24.2-2.8c-0.6-4.4-3.7-9.1-5.1-7.7-0.4 0.4-0.3 3 0.1 5.9 0.5 3.5 1.4 5.4 2.7 5.7 1.1 0.3 2.2 0.6 2.4 0.7 0.2 0.1 0.2-1.9-0.2-4.5zm17.5-6c-0.8-0.5-1.9-1-2.4-1-1.1 0 0.2 6.8 1.9 9.8 1.1 2 1.3 1.7 1.6-2.8 0.2-3.3-0.2-5.4-1.2-6.1zm21.9-0.1c-0.3-2.1-0.5-0.7-0.5 3.2 0 3.8 0.2 5.5 0.5 3.8 0.3-1.7 0.3-4.9 0-6.9zm-47.1 7.9c0-1.2-3.4-8.1-3.5-7.1-0.1 0.6-0.6 0.1-1.1-1.2-0.9-2-1-1.9-1.1 1.1-0.1 3.2 2.6 7.6 4.7 7.6 0.5 0 1-0.2 1-0.4zm37-1.1c0-3.4-1.5-8.8-2.5-8.8-1.2 0-1.3 4-0.3 7.8 0.8 2.8 2.7 3.6 2.7 1zm15.5-7.1c0.5-3 0.4-4-0.3-2.9-0.6 1-1.4 4.1-1.8 6.9-0.9 6.3 0.9 2.8 2-4.1zm-158.4 3.8c-1.3-6.3-2.8-7.8-2.8-2.9 0 2.7 0.5 4.3 1.4 4.4 1 0 0.9 0.4-0.3 1.1-1.5 0.9-1.4 1.1 0.4 1.1 1.8 0 2-0.6 1.3-3.7zm166.3 0.2c0.4-1.5 0.8-4.6 0.8-6.9 0-4 0-4-1.5 1.2-0.8 2.9-1.9 6.2-2.4 7.4-0.7 1.6-0.5 2 0.7 1.7 0.9-0.3 2-1.8 2.4-3.3zm-29.4-0.1c-0.4-0.9-0.6-0.6-0.7 0.7-0.1 1.2 0.2 1.9 0.6 1.5 0.4-0.4 0.4-1.4 0.1-2.2zm-41.8-0.2c1.2 0.5 1.7-0.2 1.7-2.4 0-2.4-0.5-3-2.9-3-3 0-3.6 1.5-2.1 5.3 0.4 1.1 1 1.5 1.2 0.7 0.2-0.7 1.2-1 2.1-0.7zm-37.4-6.3c1.4-1.8 0.4-1.9-2.7-0.2-1.9 1-2.1 1.6-0.8 3.8 1.4 2.5 1.4 2.5 1.9 0.2 0.3-1.3 1-3 1.6-3.8zm116.6 1.6c0-0.9 0.3-3.3 0.8-5.4 0.5-2.5 0.4-3.5-0.5-3-1.4 0.9-2.5 10-1.2 10 0.5 0 0.9-0.7 0.9-1.6zm-98.4-2.5c1.5-1.6 2.4-3.2 2-3.6-1.1-1.1-3.2 0.6-3.2 2.5 0 1.9-5.2 2.3-6.4 0.5-1.3-2-4.1-1.2-4.1 1.2 0 3.6 8 3.2 11.6-0.6zm44.3-4.3c-0.4-5.9-1.1-7.8-2.5-7.8-3.2 0-2.5 11.1 0.8 12 1 0.3 1.9 0.6 2 0.6 0 0.1-0.1-2.1-0.3-4.8zm10.1 0.4c0-2.5 0.5-5.9 1.1-7.5 1.3-3.5-0.4-4.1-2.2-0.7-1.5 2.9-1.6 12.8 0 12.8 0.6 0 1.2-2 1.2-4.6zm-79.9 1.6c0-1-0.5-1.5-1.2-1.1-0.6 0.4-1.2 1.2-1.2 1.8 0 0.6 0.5 1.1 1.2 1.1 0.6 0 1.2-0.8 1.2-1.8zm44.1-2.1c1.1-4 0.1-7.6-1.4-5.2-0.5 0.8-1 2.7-1 4.1 0 1.4-0.6 2.6-1.3 2.6-1.8 0-0.4-8.2 1.6-9.5 0.8-0.5 2.4-0.8 3.5-0.5 2 0.5 6.5-3.3 12.2-10.3 2.4-2.9 2.6-4.1 2.1-11.5-0.3-4.5-0.3-7.3 0-6.2 1.1 3.6 2.8 2.1 2.8-2.5 0-3.8-0.6-5-3.7-7.2l-3.7-2.6 0.8 4c0.5 2.2 1.1 8.1 1.4 13.2l0.6 9.3-4.2 4.6c-2.5 2.7-3.9 3.7-3.4 2.3 0.5-1.3 1-6.7 1.2-12.2l0.4-9.8-1.4 9.3c-2 12.9-4.6 16.7-9.7 14.8-1.8-0.7-1.8-0.5-0.4 1.2 1.9 2.3 1.9 2.3-3.1 0.9-2.9-0.8-3.7-0.7-3.4 0.3 0.3 0.8 1.6 1.6 3 1.8 3 0.4 3 0.3 0.8 4.4-3.1 5.9-2.1 8.9 2.8 8.3 2-0.2 3.1-1.3 3.7-3.6zm5.6-1.3c0-2.9-0.5-5.2-1-5.2-1.3 0-2.8 7.7-1.9 9.3 1.6 2.6 2.9 0.8 2.9-4.1zm9.3-1.4c0-4.6-0.2-5.1-1.7-3.8-1.7 1.4-2.4 8.2-1 9.6 1.6 1.6 2.7-0.7 2.7-5.8zm33.6-0.3c0-3.8 0.3-7.8 0.7-9 0.6-1.7 0.5-1.9-0.8-0.7-2 1.8-3.1 16.5-1.2 16.5 0.8 0 1.3-2.6 1.3-6.8zm6.6 1.4c-0.3-1.1-0.6-0.5-0.6 1.4 0 1.9 0.2 2.8 0.5 2 0.3-0.8 0.3-2.3 0-3.5zm8.4-3.9c-2-4.9-2.8-3.3-1 2 0.8 2.4 1.7 3.7 2 2.9 0.3-0.8-0.1-3.1-0.9-5zm-110.1 1.5c-0.2-1.8 0-3.8 0.5-4.5 0.5-0.8 0.3-1.7-0.3-2.1-0.7-0.4-2-2.6-3-5-1.6-3.9-1.6-4.4 0.2-5.7 1.5-1.1 1.6-1.5 0.3-1.5-4.2 0-5 1.8-3 6.8 1 2.6 1.9 6.1 1.9 7.7 0 2.9 1.8 7.4 3 7.4 0.3 0 0.5-1.4 0.3-3.2zm18.2 2.2c-0.3-0.6 0.2-1.7 1.3-2.6 1.7-1.4 1.8-1.3 1.3 1-0.4 1.4-0.2 2.6 0.4 2.6 0.6 0 1-1.3 1-3 0-2.4-0.5-2.9-2.6-2.6-2.7 0.4-4.6 5.6-2 5.6 0.7 0 1-0.5 0.7-1zm85-9.1c-1.1-1.7-1.2-1.3-0.6 1.9 0.4 2.1 0.7 5 0.9 6.4 0.1 1.4 0.4 0.5 0.6-1.9 0.2-2.4-0.1-5.2-0.9-6.4zm16.2 8.3c0-2.7-4.7-13.2-5.9-13.2-1.3 0-1.3 2 0 2.8 0.6 0.4 1.4 2.9 1.9 5.6 0.4 2.7 1 5.3 1.3 5.8 0.9 1.5 2.7 0.9 2.7-0.9zm-205.5-1.2c1.1-2.8 0.9-3.1-1-1.2-2 2-2.2 3.1-0.7 3.1 0.6 0 1.3-0.8 1.7-1.8zm214.8-1.7c0-0.7-0.5-0.9-1.2-0.5-0.6 0.4-1.2 0-1.2-0.8 0-1.9-4.6-9.5-5.3-8.7-0.3 0.3 0.2 2.1 1.2 3.9 0.9 1.8 2 4.3 2.3 5.4 0.6 2.2 4.1 2.8 4.1 0.8zm-118.5-4.4c-1.7-1.7-1.8-1.6-0.4 1.2 0.8 1.7 1.7 2.6 1.9 1.9 0.2-0.7-0.4-2.1-1.5-3.1zm90.4 1.9c-0.4-0.9-0.6-0.6-0.7 0.7-0.1 1.2 0.2 1.9 0.6 1.5 0.4-0.4 0.4-1.4 0.1-2.2zm-77.2-0.9c0-0.6-0.5-1.2-1.2-1.2-0.6 0-1.2 0.5-1.2 1.2 0 0.6 0.5 1.2 1.2 1.2 0.6 0 1.2-0.5 1.2-1.2zm-105.4-7.9c-0.1-7.6-0.7-6.9-1.4 1.8-0.3 3.3-0.1 5.8 0.5 5.4 0.5-0.3 0.9-3.6 0.9-7.2zm180.8 4.1c-1.1-1.1-1.3-1-0.6 0.6 0.4 1.1 1.1 1.8 1.4 1.4 0.4-0.4 0-1.3-0.8-2.1zm-62.6-11c1.2-2.7 3-4.9 3.9-4.9 2.1 0 2.4-1.8 0.5-3-1.5-0.9-5.6 3.8-5.6 6.5 0 1-1.6 4.1-3.5 6.9-1.9 2.9-3.5 5.7-3.5 6.3 0 1.9 5.9-6.7 8.2-11.8zm92.1 8.7c-0.3-0.8-0.6-0.1-0.6 1.4 0 1.6 0.3 2.2 0.6 1.4 0.3-0.8 0.3-2.1 0-2.9zm-61-0.3c-0.8-1-1.7-1.5-2-1.2-0.8 0.8 0.8 3 2.2 3 0.8 0 0.7-0.7-0.2-1.8zm-119.8-4.9c-0.5-1.1-0.8-2.9-0.6-4 0.4-3.3-1.1-2.3-2.8 2-2.1 5.1-2.1 6.5 0.1 3.5 1.7-2.3 1.7-2.2 2.5 0.5 0.4 1.6 1 2.2 1.2 1.4 0.3-0.8 0.1-2.3-0.4-3.4zm99-2.3c0-4.4-1.3-4.8-3.4-1-1.2 2.2-1.2 3.3-0.1 5.4 1.8 3.3 3.4 1.2 3.4-4.4zm-17.9 0.1c0.3-2.6-0.3-5.7-1.3-7.4-1.7-2.8-1.7-2.8-1.2-0.2 0.4 2.1 0.2 2.4-0.9 1.5-2.2-1.8-2.8-0.4-1.8 4.1 0.9 4 3.3 7.9 4.3 7 0.3-0.3 0.7-2.5 0.9-4.9zm87.1 2.9c4.6-0.1 8.4-0.6 8.4-1 0-0.5-1-6.3-2.2-12.9-3.8-20.3-3.9-24.7-0.6-28.7 1.9-2.2 4.4-3.6 7.4-4.1 4-0.7 5.4-0.2 11.2 3.7 6.3 4.2 7.3 4.5 16.8 4.8 10.1 0.4 10.1 0.4 10.9-2.6 1.1-4.3-0.5-15.1-3-21.1-1.2-2.8-2.5-5.1-2.9-5.1-0.4 0-0.4 2.7 0 6.1 0.4 3.3 0.3 6.7-0.3 7.6-1.2 1.8-4.9 0.6-4.2-1.4 0.3-0.8 0.1-3.6-0.5-6.2-0.7-3.2-0.7-5.1 0.2-6 1.6-1.6 1.1-2-3.4-2.9-2.8-0.6-3.8-0.3-4.4 1.3-0.5 1.3-0.1 2.6 1.3 3.5 6.2 4.3 7 7.3 0.9 3.5-2.5-1.5-4.3-3.8-4.8-5.7-0.5-2.4-1.4-3.2-3.5-3.2-2.6 0-2.7 0.1-1 2.7 2.4 3.6 0.8 4.9-1.8 1.5-5.2-6.6-10.2-3.9-7.5 4 1.6 4.6 1.6 5.2-0.7 8.3-1.3 1.8-2.7 3.2-3.2 3-1.2-0.5-19.4-20.9-25.2-28.2-4.7-5.8-7.3-8.4-7.3-6.9 0 0.4 2.1 3 4.7 5.7 2.6 2.8 4.9 6.3 5.2 7.7 0.5 2.8 8.3 14.7 12.8 19.6 1.8 2 2.3 3.4 1.6 4.6-0.6 0.9-0.7 2.2-0.3 2.9 0.4 0.7-0.2 0.5-1.3-0.4-1.8-1.4-2.2-1.4-3.1 0-0.9 1.4-1.1 1.4-1.1-0.1 0-3.3-8.1-18.3-12.9-23.8-2.6-3-5.3-6.6-5.9-8.1l-1.2-2.6-3.3 2.5c-1.8 1.4-3.3 2.9-3.3 3.5 0 0.6 0.8 0.4 1.7-0.3 3.3-2.8 6.8-0.4 10.7 7.2 2.1 4 5.1 9.6 6.6 12.4 1.5 2.8 3.3 6.6 4 8.4 0.6 1.8 1.6 3.3 2.3 3.3 0.6 0 0.8 1.1 0.5 2.4-0.3 1.3 0 2.8 0.7 3.3 0.7 0.5 2.1 5.3 3 10.8 0.9 5.5 1.9 10.5 2.3 11.1 0.4 0.6 0.2 1.4-0.4 1.8-1.4 0.8-3.2-5.6-4.2-15.3-0.4-4-1-7.2-1.4-7.2-0.3 0-2.6 2.3-5.2 5.2-2.5 2.9-5.2 5.2-6 5.2-2.6 0-4.9 4.1-5.1 9.3-0.1 2.9-0.4 7.8-0.7 11-0.3 3.2-0.2 6.2 0.1 6.8 0.3 0.5 2.7 0.7 5.4 0.3 2.6-0.4 8.6-0.8 13.2-0.9zm-12.5-8.2c-0.1-2.4-0.1-2.4-1-0.3-0.8 2.2-0.9 2.1-1.5-0.3-0.5-2-0.2-2.5 1.5-2.5 1.2 0 2.6 0 3-0.1 0.5 0 1 0.5 1.3 1.3 0.3 0.8-0.1 1.1-0.8 0.6-0.8-0.5-1.3 0-1.3 1.1 0 1.3 0.6 1.7 1.8 1.2 1-0.4 2-0.7 2.3-0.7 0.2 0 0.1-0.8-0.2-1.7-1-2.6 0.2-2.1 2.2 1 1.8 2.7 1.7 2.7-2.8 2.9-4 0.2-4.5-0.2-4.6-2.4zm6.6-9.5c-1-2.6 2.3-4.8 4.5-3 1.3 1.1 1.4 1.8 0.4 3-1.7 2.1-4.1 2-4.9-0.1zm-5.4-5.7c0-0.3 0.8-0.8 1.8-1.1 1-0.4 1.5-0.2 1.1 0.5-0.7 1.1-2.9 1.6-2.9 0.7zm48.6-16.9c-1.4-0.9-1.2-1.1 0.9-1.1 1.4 0 2.6 0.5 2.6 1.1 0 1.4-1.2 1.4-3.5 0zm-6.4-13.9c-1.8-0.8-1.4-1 2.1-1.1 2.7 0 4.1 0.4 3.7 1.1-0.8 1.4-2.6 1.4-5.8 0zm-7.5-5.8c0.7-1.3 1.5-2.3 1.8-2.3 0.3 0 0 1-0.7 2.3-0.7 1.3-1.5 2.3-1.8 2.3-0.3 0 0-1 0.7-2.3zm-23.6-2c-0.6-1.6-0.5-1.8 0.6-0.6 0.8 0.8 1.1 1.7 0.8 2.1-0.4 0.4-1-0.3-1.4-1.4zm25.3 55c-1.1-2.1-2.2-3.2-2.5-2.5-0.3 0.8 0.4 3.1 1.5 5.2 1.1 2.1 2.2 3.2 2.5 2.5 0.3-0.8-0.4-3.1-1.5-5.2zm-146.1-1.7c-1.4-2.3-1.7-1.6-0.6 1.3 0.4 1 1 1.6 1.3 1.3 0.3-0.3 0-1.5-0.7-2.7zm-7.8-2.9c3.7-1.2 7.6-2.2 8.7-2.2 3.3-0.1 35-11.1 34.9-12.2-0.1-1.5-0.4-1.5-16.8 4-8.3 2.7-18.2 5.7-22 6.7-3.8 0.9-7.9 2-9.1 2.3-1.3 0.4-1.9 0.2-1.5-0.5 0.4-0.6-0.4-1.2-1.9-1.2-5.8 0-8.9-1.3-14.8-6-6.9-5.4-8.6-7.6-6.9-8.7 0.6-0.4 1.2-5.3 1.2-10.9 0-8.7 0.4-10.6 2.4-13 1.8-2.1 2.3-2.2 1.7-0.6-0.4 1.3-0.2 1.8 0.5 1.4 0.6-0.4 1.1-1.3 0.9-2.1-0.1-0.7 0.6-3.1 1.8-5.2 1.1-2.1 1.7-4.4 1.3-5.2-0.4-0.8 0.3-0.1 1.4 1.5 3.9 5.5 7.2 8.1 9.8 8 2.4-0.1 2.4-0.2 0.3-0.7-3-0.7-6.2-3.6-8.1-7.3-0.9-1.7-1.8-9-2.2-16.8-0.5-9.2-0.3-13.1 0.4-11.5 0.8 1.6 0.9-0.6 0.5-6.9-0.7-10.8 2.4-23.3 5.8-23 1.1 0.1 2.2-1 2.6-2.7 0.8-3.4-0.2-4.8-2.1-2.9-2.7 2.7-3.3 1.3-0.9-2.1 1.5-2.1 3.1-3.2 4.1-2.8 1.1 0.4 2.6-0.9 4.1-3.5 2.5-4.3 3.8-5.5 2.7-2.5-0.5 1.3 0.4 1.7 4.4 1.6 2.8-0.1 6.8 0.2 9.1 0.5 2.2 0.4 3.1 0.4 2 0.1-1.1-0.3-2-1.5-2.1-2.5 0-1.1-2.4-3.9-5.2-6.4l-5.2-4.4-1.1 2.7c-0.8 2-1.1 2.2-1.2 0.6 0-1.1 0.4-2.9 1.1-4.1 0.6-1.1 1.7-3.4 2.3-5.2 0.9-2.6 1.8-3.2 4.9-3.2 2.1 0 4.6-0.5 5.5-1.1 1.2-0.8-0.4-1.1-5.4-1.1-10.1 0-10.8 0.4-10.8 6.8 0 5.6-2.6 19.4-3.9 20.7-1.5 1.5-1.7-0.6-0.5-4.6 1.4-4.5-0.4-16.3-2.7-17.7-1.2-0.8-13.6 6.7-25.2 15.2-7.1 5.2-7.3 5.6-6.7 9.4 0.4 2.2 1.6 5.9 2.7 8.3 1.8 3.8 2.6 4.3 6.4 4.3 3.1 0 5.1 0.8 6.9 2.8l2.6 2.8-3.1-1.9c-4.4-2.7-7.4-2.4-15.6 1.5-4.7 2.2-7.7 4.5-8.9 6.7-0.9 1.8-2.8 4.3-4.1 5.5-1.7 1.5-2.4 3.6-2.5 6.9 0 3.1-0.4 4.2-1 3.2-0.7-1.1-1.2 0.1-1.8 3.6-0.8 5.4 0.5 13.3 3.4 20.2 0.9 2.2 1.7 5.1 1.7 6.3 0 1.2 0.6 2.2 1.2 2.2 0.7 0 0.9 0.5 0.6 1-0.3 0.6 1.6 5.5 4.4 11 4 8 4.6 9.7 2.7 8.7-5.7-3 0.8 3.1 24.8 23.7 8.6 7.4 7.4 7.2 21.1 2.9zm-36.9-20.2c-1.9-1.5-3-2.8-2.3-2.8 1.6 0 7 4.3 6.3 5-0.3 0.3-2.1-0.7-4-2.2zm-4.1-28c-5.2-2.6-6.4-3.7-6.4-6 0-4.6 4.3-4.5 7.8 0.2 2.8 3.7 5.9 9.1 5.2 9-0.2 0-3.2-1.5-6.7-3.2zm18.6-16c0.1-1.3 0.3-1.6 0.7-0.7 0.3 0.8 0.3 1.8-0.1 2.2-0.4 0.4-0.7-0.3-0.6-1.5zm-1-9.7c0-2.2 0.2-3.1 0.5-2 0.3 1.1 0.3 2.9 0 4.1-0.3 1.1-0.5 0.2-0.5-2zm0.1-10.4c0-3.5 0.2-4.9 0.5-3.2 0.3 1.8 0.3 4.6 0 6.4-0.3 1.8-0.5 0.3-0.5-3.2zm-26.5-0.6c-1.1-2.8 0.6-7.5 3.7-10.6 3.5-3.5 5.2-2.7 5.2 2.4 0 6.5-7 13-8.8 8.2zm-3.8-3.6c0.1-1.3 0.3-1.6 0.7-0.7 0.3 0.8 0.3 1.8-0.1 2.2-0.4 0.4-0.7-0.3-0.6-1.5zm31.4-12.1c0-2.2 0.2-3.1 0.5-2 0.3 1.1 0.3 2.9 0 4.1-0.3 1.1-0.5 0.2-0.5-2zm1-7.1c-0.1-1 0.8-2.6 1.9-3.5 1.8-1.4 1.9-1.4 0.7 0.1-0.7 1-1.6 2.5-1.9 3.5-0.5 1.5-0.7 1.4-0.7-0.1zm67 108.1c0-2.5-1.9-5.7-2.8-4.8-0.7 0.7 1.3 6.8 2.3 6.8 0.3 0 0.6-0.9 0.6-2zm-114.6-3.1c0-0.3-0.5-0.8-1.2-1.2-0.6-0.4-1.2-0.2-1.2 0.5 0 0.7 0.5 1.2 1.2 1.2 0.6 0 1.2-0.2 1.2-0.5zm122.3-9.7 0.5-5.4-2.3 6.9c-2.8 8.5-3 10-0.5 6.5 1-1.5 2.1-5.1 2.3-8.1zm-122.9-3.9c2 0.4 2.9-0.1 3.5-1.9 0.9-2.7-0.2-5.1-1.8-4.1-0.6 0.4-0.8-0.2-0.4-1.1 1.3-3.3-1.9-1.8-4.2 2-2.7 4.5-4.1 10.5-2.7 12.7 0.6 1 1.3-0.1 1.9-3.2 0.8-4.2 1.3-4.7 3.7-4.2zm132.6 4.9c0-1.3-0.5-2.1-1.2-1.7-0.6 0.4-1.2 1.5-1.2 2.4 0 0.9 0.5 1.7 1.2 1.7 0.6 0 1.2-1.1 1.2-2.4zm6.5-9.9c1.2 0.5 1-0.2-0.7-2.4l-2.4-3.1 3.4-3.6c1.9-2 4-4.9 4.8-6.5 1.4-2.8 1.3-2.7-2.4 0.6-2.1 1.9-3.4 2.8-3 2 0.5-0.8 0.4-2.1-0.1-2.9-1.5-2.5-0.3-9.4 2.4-13.6 6.7-10.4 9.8-16.3 8.5-16-0.8 0.2-3-0.9-4.9-2.4-3-2.4-3.1-2.7-0.8-2 6.9 2 7.3 1.8 1.4-0.8-3.5-1.5-6.6-2.6-6.8-2.4-0.2 0.2 0.1 1.9 0.8 3.9 0.7 1.9 0.9 3.5 0.4 3.4-3.1-0.4-5.1 0.5-6 2.9-0.6 1.5-1.6 3.1-2.3 3.5-0.7 0.4-1.2 1.3-1.2 2.1 0 0.7 1.4 0 3.1-1.5l3.1-2.8-1.9 2.9c-1.9 2.9-2.7 5.8-1.1 4.2 1.6-1.6 3.4 9 2.4 14.4-1.1 6-2.8 7.6-9.1 8.7-6.8 1.2-7 3.1-0.1 2.2 3.7-0.5 6-0.3 6.5 0.5 0.4 0.7 1.4 5.8 2.2 11.4l1.4 10.2 0.4-6.8c0.3-5.5 0.7-6.6 2.1-6.1zm-2.5-31.7c-0.4-0.6-0.2-1.2 0.5-1.2 0.7 0 1.2 0.5 1.2 1.2 0 0.6-0.2 1.2-0.5 1.2-0.3 0-0.8-0.5-1.2-1.2zm-0.5-6.1c0.3-0.2 1.4-1 2.5-1.9 1.8-1.4 2-1.3 1.3 0.3-0.4 1-1.5 1.9-2.5 1.9-1 0-1.6-0.1-1.3-0.3zm80.9 47.1c0-1-0.5-1.4-1.2-1-0.6 0.4-1.2 1.5-1.2 2.5 0 1 0.5 1.4 1.2 1 0.6-0.4 1.2-1.5 1.2-2.5zm-51.5-11.9c1-4-0.3-4.5-1.7-0.7-0.7 1.8-2.2 4.6-3.5 6.4-3.5 4.9-2.7 5.7 1.2 1.1 1.9-2.2 3.7-5.3 4.1-6.8zm13.4 7.4c-0.8-1-1.9-1.4-2.5-1.1-0.6 0.4-0.2 1.4 1 2.2 2.6 1.9 3.5 1.2 1.6-1.1zm36.5-1.4c-0.4-1.7-1.5-4.7-2.5-6.7l-1.7-3.6 0.7 4.1c0.4 2.2 0.7 5.2 0.7 6.7 0 1.6 0.7 2.6 1.7 2.6 1.3 0 1.5-0.8 1-3.1zm-161.2-6.8c-0.3-1.6-1-3.2-1.6-3.5-1.7-1.1-2.5 2.9-1 4.7 2.1 2.6 3.2 2.1 2.6-1.2zm61.1-1.2c2.5-3.1-2.9-1.9-5.9 1.3l-2.7 2.9 3.6-1.3c2-0.7 4.2-2 5-2.9zm58.8 0.2c-1.4-3.1-3.8-4-5.1-1.9-0.4 0.6 0 1.2 0.8 1.2 0.8 0 2.2 1.1 3 2.4 2.1 3.3 2.9 2.1 1.2-1.7zm-125.6-10.9c1.3-1.4 1.8-2.6 1.1-2.6-1.9 0-7.4 7-6.5 8.3 0.4 0.7 1.2 0.3 1.9-1 0.6-1.2 2.2-3.3 3.5-4.8zm121.4 5.8c-2-0.4-2.6-1.3-2.7-4.2-0.1-3.4-0.2-3.5-1.1-1.1-1.5 3.8-0.2 6.1 3.3 5.9 2.7-0.1 2.8-0.2 0.5-0.7zm-113.7-5.4c-0.9-0.9-1.7-0.7-3 1-2.5 3.4-2 4.4 1.3 2.2 2.2-1.4 2.6-2.3 1.7-3.2zm-47.4 1.6c0-0.7 0.5-0.9 1.2-0.5 0.6 0.4 1.2 0 1.2-0.8 0-1.1 0.3-1.1 1.1 0.2 2.6 4.1 1.9-0.3-1.9-11-2.2-6.4-4.1-12.2-4.1-13-0.1-0.8-0.5-1.4-0.9-1.4-0.5 0-1.2-1.8-1.6-4-1.6-8.3-3-5.3-3 6.4 0 14.5 3.1 25.3 7.2 25.4 0.5 0 0.9-0.5 0.9-1.2zm51.3-7.1c-1.1-1.8-2.9 2-2 4.4 0.7 1.8 0.9 1.7 1.7-0.6 0.5-1.4 0.6-3.1 0.2-3.8zm53.3 2.7c1.5-1.7 1.6-2.3 0.5-2.7-1.7-0.6-4.4 1.7-4.4 3.7 0 1.9 1.7 1.5 3.9-1zm-56-3.2c0-2.9-2.9-1.6-3.1 1.3-0.1 2.4 0.1 2.7 1.4 1.6 0.9-0.7 1.6-2.1 1.6-2.9zm33.7-0.1c-1-1.7-1.2-1.8-1.3-0.3 0 1.9 1.2 3.7 2 2.9 0.3-0.3-0.1-1.4-0.7-2.6zm61.9-10.2c3.7-7.6 5-13.3 3.1-13.3-0.5 0-1 1.6-1.1 3.6-0.1 2-2.4 7.9-4.9 13-2.6 5.2-3.8 8.3-2.8 7.1 1-1.3 3.7-5.9 5.8-10.4zm-69.6 9.8c-0.4-0.6-1.2-1.2-1.8-1.2-0.6 0-1.1 0.5-1.1 1.2 0 0.6 0.8 1.2 1.8 1.2 1 0 1.5-0.5 1.1-1.2zm85.1-0.6c0-1-0.2-1.7-0.5-1.7-0.3 0-0.8 0.8-1.1 1.7-0.4 1-0.2 1.7 0.5 1.7 0.6 0 1.1-0.8 1.1-1.7zm42.8-5.4c-1.3-0.9-1.1-1.1 1-0.6 2.2 0.5 2.4 0.3 1.3-1.1-1.1-1.3-1.8-1.3-3-0.3-1.2 1-1.3 1.7-0.3 2.9 0.7 0.9 1.6 1.3 2 0.9 0.4-0.4-0.1-1.2-1-1.9zm-87.5-0.5c0.4-1 0.2-1.5-0.5-1.1-0.6 0.4-1.1 1.2-1.1 1.8 0 1.7 0.8 1.3 1.6-0.7zm-4.6-2.3c1.1-2.8 0.9-3-1.6-1.6-1.3 0.7-2 1.8-1.7 2.4 1 1.7 2.5 1.3 3.3-0.7zm132.6-0.4c0-0.6-0.5-1.4-1.2-1.8-0.6-0.4-1.2 0.1-1.2 1.1 0 1 0.5 1.8 1.2 1.8 0.6 0 1.2-0.5 1.2-1.1zm-192.4-2c0.2-0.7-0.4-1.5-1.4-1.9-1.3-0.5-1.8 0-1.8 1.7 0 2.4 2.4 2.6 3.2 0.2zm21.7 0.8c0.4-0.7-0.8-1.2-2.8-1.2-1.9 0-3.5 0.5-3.5 1.2 0 0.6 1.3 1.2 2.8 1.2 1.6 0 3.1-0.5 3.5-1.2zm-14.5-3.5c0-0.6-0.6-1.2-1.2-1.2-0.7 0-0.9 0.5-0.5 1.2 0.4 0.6 0.9 1.2 1.2 1.2 0.3 0 0.5-0.5 0.5-1.2zM-618.5 240.1c-0.7-2.1-9.9-3.4-14-2-4.8 1.7-7.3 1.7-8.1-0.1-0.5-1.2-0.8-1.2-1.4 0-0.4 0.8-1.4 1.4-2.3 1.4-0.9 0-1.6 0.5-1.6 1.2 0 1.6 12.4 1.5 13-0.1 0.3-0.9 2.1-1 5.4-0.5 3.7 0.6 5.2 1.5 5.6 3.2 0.6 2.3 0.7 2.3 2.2 0.2 0.9-1.2 1.4-2.7 1.2-3.4zm-187.1 2.8c0-0.6-0.5-1.2-1-1.2-0.6 0-1.7-1.6-2.5-3.5-1.8-4.3-4-6-2.9-2.1 1.7 5.6 6.4 10.6 6.4 6.8zm100.3-5.2c-0.4-1-1.2-1.8-1.9-1.8-0.9 0-0.8 0.7 0.1 2.4 1.4 2.7 2.9 2.2 1.9-0.6zm48.4-0.1c-1.9-0.9-4.5-1.6-5.8-1.6-1.5 0-0.9 0.6 1.7 1.6 5.3 2 8.5 2 4.1 0zm-79.6-3.6c-0.8-0.8-4.3 0.8-4.3 2 0 0.6 1.1 0.5 2.4-0.2 1.3-0.7 2.2-1.5 1.9-1.8zm122.6-5.3c-0.4-0.9-0.6-0.6-0.7 0.7 0 1.2 0.2 1.9 0.6 1.5 0.4-0.4 0.4-1.4 0.1-2.2zm-93.3-1.2c-2.2-5.6-4.7-9.6-4.7-7.4 0 2-0.2 1.9-3.1-0.3-1.7-1.3-4.6-2.4-6.5-2.4-4.6 0-3.6 2.6 1.4 3.6 2.3 0.5 5.4 2.5 7.7 4.9 4.4 4.8 6.7 5.5 5.2 1.6zm17.7-2.1c1.4-2 1.4-3.1 0.1-7.5-2.1-7.1-6.2-16.1-6.9-15.3-0.3 0.3 0 2 0.8 3.7 2 4.5 0.2 5.2-3 1.3l-2.7-3.4 0.6 3.1c0.6 3 3.9 5.2 6 3.9 0.6-0.4 1.6 1.5 2.3 4.2 1 3.7 0.9 5.1-0.3 6.1-1.8 1.5-3.1 4.8-2.1 5.8 1.4 1.4 3.7 0.6 5.3-1.7zm-3.5-0.5c0-0.9 0.4-1.4 1-1.1 0.5 0.3 0.7 1.1 0.3 1.7-0.9 1.5-1.3 1.3-1.3-0.6zM-613.5 223.2c0-1.3-0.5-2.1-1.2-1.7-0.6 0.4-1.2 1.5-1.2 2.4 0 0.9 0.5 1.7 1.2 1.7 0.6 0 1.2-1.1 1.2-2.4zm-250.2-0.1c-0.7-2.1-2.8-2.4-3.6-0.4-0.5 1.3 0 1.8 1.7 1.8 1.3 0 2.2-0.6 1.9-1.4zm73.9-1.8c-1.2-1.2-2.1 0.6-1.2 2.2 0.7 1.2 1 1.2 1.4 0 0.3-0.8 0.2-1.8-0.2-2.2zm62.6-0.5c-0.4-0.9-0.6-0.6-0.7 0.7-0.1 1.2 0.2 1.9 0.6 1.5 0.4-0.4 0.4-1.4 0.1-2.2zm-47.1-7.3c0-2.2-0.2-4.1-0.4-4.1-0.2 0-2 0.8-4.1 1.8-3.8 1.9-4.8 4-1.9 4 1 0 1.7 0.5 1.7 1.2 0 0.6 1 1.2 2.3 1.2 1.9 0 2.3-0.8 2.3-4.1zm63 3c0.4-0.6 0.1-1.4-0.5-1.8-0.6-0.4-1.2 0.1-1.2 1.1 0 2 0.7 2.3 1.7 0.7zm-9.8-4.1c0.8-1 0.9-1.7 0.3-1.7-0.6 0-1.8 0.8-2.6 1.7-0.8 1-0.9 1.7-0.3 1.7 0.6 0 1.8-0.8 2.6-1.7zm14.5-0.1c1.7-1.4 1.8-1.7 0.4-1.3-1.4 0.4-2.3-0.7-3.4-4.2-1.2-3.8-1.6-4.3-2-2.3-0.2 1.4 0.2 3.6 0.9 4.9 0.7 1.3 1 2.9 0.6 3.5-1.1 1.8 1.1 1.3 3.6-0.7zm70.4-4 0.8-2.9-1.7 2.9c-1.9 3.2-2.4 5.8-0.8 4 0.6-0.6 1.4-2.4 1.8-4zm-157.9 0.1c0-0.4-1.4-0.7-3.2-0.5-4.1 0.3-4 0.3-3.3 1.4 0.7 1.1 6.5 0.3 6.5-0.9zm139.6-0.7c0.4-1 0.4-2.5 0-3.5-0.5-1.4-1.2-1.5-3.6-0.4-3.1 1.4-3.9 3.9-1.5 4.8 2.7 1.1 4.4 0.8 5.1-1zm-134.1-4.7c-0.4-0.4-1.3 0.5-2.1 2-1.3 2.6-1.3 2.6 0.7 0.7 1.2-1.1 1.8-2.3 1.4-2.7zm144.6 1.6c-0.4-0.9-0.6-0.6-0.7 0.7 0 1.2 0.2 1.9 0.6 1.5 0.4-0.4 0.4-1.4 0.1-2.2zm-153-2.1c-0.4-0.6-1.2-1.2-1.9-1.2-0.6 0-0.8 0.5-0.4 1.2 0.4 0.6 1.2 1.2 1.9 1.2 0.6 0 0.8-0.5 0.4-1.2zm2.9-4.8c0-0.6-0.5-0.8-1.2-0.4-0.6 0.4-1.2 1.2-1.2 1.9 0 0.6 0.5 0.8 1.2 0.4 0.6-0.4 1.2-1.2 1.2-1.9zm164.9 0.1c0.4-0.6 0.2-1.2-0.5-1.2-0.7 0-1.2 0.5-1.2 1.2 0 0.6 0.2 1.2 0.5 1.2 0.3 0 0.8-0.5 1.2-1.2zm-229-2c0-1.1 0.5-3 1-4.2 0.7-1.6 0.5-2-0.7-1.6-1.7 0.6-3 7.9-1.4 7.9 0.5 0 1-0.9 1.1-2zm12-0.4c0-0.6-0.5-1.1-1.2-1.1-0.6 0-1.2 0.8-1.2 1.8 0 1 0.5 1.5 1.2 1.1 0.6-0.4 1.2-1.2 1.2-1.8zm132.6-1.7c-2.5-1.9-6.4-2.3-6.4-0.6 0 0.9 2.2 1.5 7.5 2.2 0.6 0.1 0.1-0.6-1.1-1.6zm-139.4-4.3 0.1-2.6 1.3 2.6c1.8 3.8 2.7 3.2 3-1.9 0.2-3.7-0.2-4.7-2.2-5.3-1.3-0.4-2.6-0.6-2.8-0.4-1 1.1-1.4 10.2-0.5 10.2 0.6 0 1.1-1.2 1.1-2.6zm2.3-2.7c0.1-1.3 0.3-1.6 0.7-0.7 0.3 0.8 0.3 1.8-0.1 2.2-0.4 0.4-0.7-0.3-0.6-1.5zm139.9 2.9c0-1.3 0.6-3.4 1.3-4.7 1.5-2.9 0.6-4.1-1.8-2.2-0.9 0.8-2.3 1.1-2.9 0.7-0.7-0.4-0.9 0-0.6 0.9 0.3 0.9-0.2 2-1.2 2.3-2.2 0.8-2.4 3.8-0.4 4.6 3.3 1.4 5.5 0.7 5.5-1.6zm79.5 0.5c-0.4-0.4-1.4-0.4-2.2-0.1-0.9 0.4-0.6 0.6 0.7 0.7 1.2 0.1 1.9-0.2 1.5-0.6zm-168.2-5.4c3.1-4.6 2.7-5.4-1.4-2.5-1.5 1.1-2.6 3-2.6 4.8 0 3.5 0 3.4 3.9-2.3zm39.5 3.2c-1.2-0.9-3.3-1.7-4.6-1.6-1.9 0.1-1.7 0.4 1.1 1.7 4.6 2.1 6.4 2.1 3.5-0.1zm10.9 0.7c0-0.6-1-1.4-2.3-1.8-1.3-0.4-2-1.3-1.6-1.9 0.5-0.8 1.1-0.6 1.7 0.4 0.7 1.1 1 1.1 1 0.2 0-2.1-2.3-3.1-3.8-1.6-1.5 1.5-4.3 1.7-4.3 0.4 0-0.5 1.6-1.8 3.5-2.8 3.6-2 4.6-4.4 1.9-4.4-1.6 0-6.6 6-6.6 7.9 0 0.6 2 1.9 4.3 2.9 5.2 2.1 6.1 2.3 6.1 0.8zm31.2-3c0-1-0.5-1.5-1.2-1.1-0.6 0.4-1.2 1.2-1.2 1.8 0 0.6 0.5 1.1 1.2 1.1 0.6 0 1.2-0.8 1.2-1.8zm53.2-1.7c1-0.6 1.2-1.1 0.6-1.1-0.6 0-1.9 0.5-2.9 1.1-1 0.6-1.2 1.1-0.6 1.1 0.6 0 1.9-0.5 2.9-1.1zm-101.8-1.7c-1.6-0.9-3.7-1.6-4.6-1.6-1 0-0.2 0.8 1.7 1.6 4.6 2.1 6.6 2.1 2.9 0zm113.7-2.9c3.6-1.3 9.4-2.6 13-3.1 6.4-0.7 10.1-2.8 5.2-2.8-2.1 0-2.3-0.3-1.1-1.7 1-1.2 1-2.3 0.2-3.8-0.7-1.1-1.2-1.6-1.3-0.9 0 0.6-0.6 0.4-1.2-0.6-1.4-2.1-1.5-13.9-0.1-16 0.7-1.1 1.4 0.2 2.3 4.1 0.8 3.1 2.2 8.4 3.1 11.8l1.8 6.2 5.8-0.6c5.5-0.5 9.8-3.3 6.3-4.1-0.9-0.2-1.9-2.2-2.4-4.5-0.6-3.2-1.1-3.8-2-2.5-0.9 1.3-1 1-0.6-1.1 0.3-1.6-0.3-4.2-1.6-6.4-2.6-4.2-3-8.3-0.8-7 1.1 0.6 1.1 0.4 0.2-0.5-2.5-2.7-14.6-3.7-22-1.8-6.8 1.8-10.8 3.9-6.7 3.6 1.5-0.1 2.1 0.5 1.9 2.1-0.1 1.3-0.4 3.6-0.6 5.2-0.2 1.8 0.2 2.8 1.1 2.6 0.8-0.2 1.4 0 1.4 0.3 0 1.6-4.1 10.6-5.1 11.3-0.8 0.6-0.8 0.9 0.2 0.9 2.7 0 0.1 3.4-2.9 3.7-1.9 0.2-3.2 1.2-3.5 2.5-0.4 1.9 0.1 2.1 3.8 1.4 2.3-0.4 5.1-1 6.2-1.4 1.1-0.3-0.7 0.7-3.8 2.3-7.1 3.5-5.6 3.8 3.1 0.7zm-77.6-2c-1-1.7-1.2-1.8-1.3-0.3 0 1.9 1.2 3.7 2 2.9 0.3-0.3-0.1-1.4-0.7-2.6zm113.3-2.1c0-1.2-1.2-1.7-4-1.5-3.2 0.1-3.8 0.5-2.8 1.7 1.8 2.1 6.8 2 6.8-0.2zm-144.7-1.2c0-1-0.6-1.7-1.2-1.7-0.7 0-0.9-0.5-0.5-1.2 0.4-0.6 1.2-0.9 1.8-0.5 0.6 0.4 0.8-0.1 0.4-1.1-0.5-1.3 0-1.6 1.7-1.1 1.4 0.4 2.4 0.1 2.4-0.7 0-0.7-0.6-1.3-1.2-1.3-0.7 0-0.9-0.5-0.5-1.2 0.4-0.6-0.7-1.7-2.3-2.3-4-1.5-3.8-1.6-4.6 2.3-0.4 1.9-1.5 3.5-2.4 3.5-2.3 0-2 2.2 0.4 3.1 1.1 0.4 2.4 1.4 3 2.3 1.2 2.1 3.1 1.9 3.1-0.2zm-91.8-3.2c-0.3-0.8-0.6-0.1-0.6 1.4 0 1.6 0.3 2.2 0.6 1.4 0.3-0.8 0.3-2.1 0-2.9zm226.4 3c-0.8-0.3-2.1-0.3-2.9 0-0.8 0.3-0.1 0.6 1.4 0.6 1.6 0 2.2-0.3 1.4-0.6zm-86.3-2.3c-1.1-1.1-10-1.3-9.4-0.2 0.3 0.5 2.7 0.9 5.3 0.9 2.6 0 4.4-0.3 4-0.7zm4.6-1.1c-0.4-0.4-1.4-0.4-2.2-0.1-0.9 0.4-0.6 0.6 0.7 0.7 1.2 0.1 1.9-0.2 1.5-0.6zm94.3-4.5c-0.3-1.6-1.3-3.5-2.2-4.2-1.3-1.1-1.6-0.8-1.6 1.5 0 2.6 1.9 5.6 3.5 5.6 0.4 0 0.5-1.3 0.2-2.9zm-132.2 0.5c0-0.6-0.8-1.2-1.7-1.2-1 0-1.7 0.5-1.7 1.2 0 0.6 0.8 1.2 1.7 1.2 1 0 1.7-0.5 1.7-1.2zm-107.1-3.4c2.4-4.7 2.3-13.1-0.3-15.9-1.1-1.2-1.6-1.5-1-0.7 1.7 2.6 0.2 15.1-2.1 17.7-1.9 2.1-1.9 2.4-0.2 2.4 1 0 2.7-1.5 3.7-3.4zm178.8 0.5c-0.8-1-2.2-1.7-3-1.7-0.9 0-1.6 0.8-1.6 1.7 0 1.1 1.1 1.7 3 1.7 2.6 0 2.8-0.3 1.6-1.7zm-170.5-4.1c2.4 0 1.8-4.3-0.7-4.9-3.1-0.8-3.6 0-3.5 5.4 0.1 4.2 0.2 4.5 1.3 2.1 0.7-1.4 2-2.6 2.8-2.6zm62.9 1.3c0-0.6-0.9-1.4-1.9-1.8-1.6-0.6-1.7-0.4-0.4 1 1.7 2 2.3 2.2 2.3 0.7zm15-16.3c-5.7-5.4-11.2-9.5-13.2-10-4-0.9-12.1-5.3-12.1-6.5 0-2.9-13.1-11.3-14.9-9.6-1.2 1.2-0.9 18.5 0.4 23.3 0.8 3.1 1.6 5 1.6 4.2 0.2-2.9 3.6-1.5 3.6 1.5 0 3.7 1.4 4.2 8.7 3.1l5.8-0.9-5.5-0.9c-8.2-1.3-7.1-3.8 1.4-3.1l2.8 0.2-3.2-4.2c-1.7-2.3-2.6-4.2-2-4.2 0.7 0 1.2 0.5 1.2 1.2 0 0.6 0.5 1.2 1.2 1.2 1.6 0 1.5-3.9-0.2-5.6-1-1-1-1.4 0-1.4 0.7 0 1.9 1 2.6 2.3 0.7 1.3 0.9 2.3 0.6 2.3-0.4 0 0.2 1.6 1.1 3.5 2.2 4.2 3.4 4.5 2.6 0.7-0.5-2.6-0.2-2.8 3.8-2.6 5.1 0.3 7.8 1.9 16.1 9.8 3.4 3.3 6.5 5.7 6.9 5.3 0.3-0.3-3.8-4.7-9.1-9.8zm39.4 7.2c-7.7-3.5-15.8-6.5-14.7-5.4 1.1 1.1 18.4 8.4 19.9 8.3 0.6 0-1.7-1.4-5.2-3zm-116.2-8.3c-1.4-2.3-3-1.3-3 1.9 0 2.9 0.1 3 1.9 1.3 1-1 1.5-2.4 1.1-3.1zm69.9 3.4c0-0.6-0.5-1.2-1.2-1.2-0.6 0-1.2 0.5-1.2 1.2 0 0.6 0.5 1.2 1.2 1.2 0.6 0 1.2-0.5 1.2-1.2zm126-4.7c3.9-0.8 10.6-1.1 15-0.8 5.2 0.4 8 0.1 8.2-0.7 1.1-5 1.2-22 0.2-23.1-0.7-0.7-1.2-2.2-1.2-3.3 0-1.1-0.7-2.1-1.7-2.1-1.2 0-1.5-1-1.2-3.5 0.4-2.9 0.1-3.5-1.6-3.2-1.1 0.2-2.2 0-2.3-0.5-0.5-2.2-5.4-10.4-5.9-10.1-1 0.7-6.9-5-6.9-6.7 0-0.9 0.5-1.3 1.2-0.9 0.6 0.4 1.1-0.5 1.1-2 0-2.1-0.2-2.3-1.1-1-0.9 1.5-1.2 1.4-1.8-0.3-0.4-1.1-1.5-2-2.3-2-1.2 0-1.3 0.9-0.5 3.8 1.4 4.8 1.4 16.3 0 15.4-1.8-1.1-2.4 2.7-2.4 14.8 0 6.5-0.5 14.9-1.1 18.7-0.7 3.8-1.2 7.1-1.2 7.2 0 0.2-0.8 0.3-1.7 0.3-0.9 0-2 0.6-2.5 1.4-0.6 0.9-0.2 1.1 1 0.7 1-0.4 5-1.3 8.9-2.1zm-203.1-4.6c1-2.6 1.9-6.2 1.9-8.1 0-4-3.3-12.7-4.8-12.7-1.5 0-1.2 1.4 0.7 4 2.2 2.9 2.2 11.9 0 16.1-2 3.8-2.2 5.4-0.7 5.4 0.6 0 1.9-2.1 2.9-4.7zm8.7-2.5c1-2.8 0.9-3.9-0.1-4.6-2.2-1.4-3.3 0-3.3 4.3 0 5 1.7 5.1 3.4 0.3zm160.6-2.4c-0.3-0.8-0.6-0.1-0.6 1.4 0 1.6 0.3 2.2 0.6 1.4 0.3-0.8 0.3-2.1 0-2.9zm1.2-6.9c-0.3-0.8-0.6-0.1-0.6 1.4 0 1.6 0.3 2.2 0.6 1.4 0.3-0.8 0.3-2.1 0-2.9zm-161.5-5.7c-0.7-1.2-1.3-3.2-1.3-4.5 0-1.4-0.5-2.1-1.2-1.6-0.8 0.5-0.9 2.6-0.4 5.6 1 6.2 1.7 7.3 3.2 4.8 0.8-1.4 0.7-2.7-0.2-4.2zm113.3 0.8c0-1.8-2.1-0.2-3.4 2.6l-1.4 3.2 2.4-2.6c1.3-1.4 2.4-2.8 2.4-3.2zm6.9 1.7c0-0.6-0.5-1.2-1.2-1.2-0.6 0-1.2 0.5-1.2 1.2 0 0.6 0.5 1.2 1.2 1.2 0.6 0 1.2-0.5 1.2-1.2zm44.9-13.9c0-2.9 0-2.9-1-0.3-0.6 1.4-1.3 5.3-1.6 8.7l-0.6 6.1 1.6-5.8c0.9-3.2 1.6-7.1 1.6-8.7zM-867.9 94.6c6.1-2 6.1-2 1.4-1.5-2.6 0.3-5.7 0.9-6.8 1.3-1.4 0.5-1.8 0.3-1.2-0.6 0.6-0.9 0.2-1.1-1.2-0.6-1.1 0.4-1.4 1-0.7 1.2 0.7 0.2-0.7 2.3-3.2 4.6-6.3 5.6-5.8 7.4 0.5 1.9 2.8-2.4 7.9-5.3 11.3-6.4zm55.6-36.6c-3.6-0.5-8.5 0.7-7.7 2 0.3 0.6 2.8 0.4 5.5-0.3 3.9-1 4.4-1.4 2.2-1.7zm23.2-1.6c-0.8-0.8-1.4-0.9-1.4-0.2 0 1.5 1.4 2.9 2.1 2.1 0.3-0.3 0-1.2-0.8-2zm-20.5-2.4c0.8-0.8 0.2-0.9-1.7-0.5-1.6 0.4-4.1 0.7-5.5 0.7-1.4 0-2.6 0.6-2.6 1.2 0 1.5 8.1 0.2 9.8-1.5zm-15.8-4.9c1.3-1.6 0.8-1.4-1.3 0.5-1.7 1.5-3.2 3.6-3.1 4.6 0 1.4 0.3 1.3 1.3-0.5 0.7-1.3 2.1-3.4 3.1-4.6zm48.7-6.8c0-0.2-1-0.7-2.3-1-1.3-0.3-2.3-0.1-2.3 0.4 0 0.6 1 1 2.3 1 1.3 0 2.3-0.2 2.3-0.4zm-6.3-6c-1.2-0.9-3.3-1.7-4.6-1.6-1.9 0-1.7 0.4 1.1 1.6 4.6 2.1 6.3 2.1 3.5 0zm54.1-5.9c-0.8-0.3-2.3-0.3-3.5 0-1.1 0.3-0.5 0.6 1.4 0.6 1.9 0 2.8-0.2 2-0.5zm73.9 437.2c-2.1-1.3-3.5-36.4-1.5-37.6 1.6-1 5.6 2.7 4.1 3.8-1.4 1-1.7 7.1-0.3 7.1 0.6 0 1-0.6 1-1.4 0-0.7 0.3-1 0.7-0.7 0.4 0.4 0.1 1.8-0.6 3.1-1 1.8-0.9 3.1 0 4.9 0.7 1.3 0.8 2.1 0.2 1.8-1.3-0.8-1.2 4.9 0.1 7.1 0.6 1 0.3 1.2-1.2 0.7-2-0.7-2-0.7-0.1 1.6 2.2 2.5 2.7 4.4 0.9 3.3-1.6-1-1.4 1 0.2 2.7 1 1 1 1.4 0.1 1.4-0.7 0-1.5 0.8-1.7 1.7-0.2 1.1-0.9 1.4-2 0.7zm-98.5-44c0-0.6 0.8-0.8 1.7-0.5 1 0.4 1.7 0.9 1.7 1.1 0 0.3-0.8 0.5-1.7 0.5-1 0-1.7-0.5-1.7-1.1zm-42.2-31.5c-1.3-0.7-2.4-1.4-2.6-1.5-0.2-0.1 1.4-3.3 3.4-7.1 2-3.8 4.8-10 6.1-13.8 2-5.8 2.8-6.9 5.1-6.9 1.5 0 3.3 0.9 4 2 1 1.6 0 4.6-5.4 15.3-3.6 7.3-7 13.3-7.5 13.3-0.5 0-1.9-0.6-3.2-1.3zm-45.6-21.3c0.1-1.3 0.3-1.6 0.7-0.7 0.3 0.8 0.3 1.8-0.1 2.2-0.4 0.4-0.7-0.3-0.6-1.5zm35.4-10.3c-6.5-7.1-12-15.6-10.1-15.6 0.7 0 1.2 0.4 1.2 1 0 2.1 11.6 16.2 15.2 18.5 2.9 1.9 3.3 2.5 1.6 2.5-1.2 0-4.8-2.8-8-6.3zm-68.7-48.6c0-3.8 0.2-5.2 0.5-3.2 0.3 2.1 0.3 5.2 0 6.9-0.3 1.7-0.5 0-0.5-3.8zm242.1-6.4c-0.4-0.6-0.2-1.2 0.5-1.2 0.7 0 1.2 0.5 1.2 1.2 0 0.6-0.2 1.2-0.5 1.2-0.3 0-0.8-0.5-1.2-1.2zm-239.4-57.5c-2.4-4.9-4.3-10.8-3.5-10.8 0.8 0 6.4 13.1 6 14.2-0.2 0.6-1.3-1-2.5-3.4zm45.6-109.7c0-5.4-0.3-10.5-0.7-11.5-0.7-1.7 3.2-6.5 5.2-6.5 1.4 0 5.4 7.8 6.3 12.5 1 5.2-1.7 11.2-6 13.4-1.9 1-3.8 1.8-4.1 1.8-0.3 0-0.6-4.4-0.6-9.7zm6.9 3.2c0-0.4-0.7-0.4-1.7 0-0.9 0.4-1.9 0-2.2-0.7-0.3-0.8-0.6-0.2-0.7 1.3-0.1 2.3 0.2 2.5 2.2 1.4 1.3-0.7 2.3-1.5 2.3-1.9zm-3.8-14c-0.3-2.4-0.5-0.7-0.5 3.7 0 4.5 0.2 6.4 0.5 4.4 0.3-2.1 0.3-5.7 0-8.1zm-33.2-39.6c0-0.7-0.8-1.3-1.7-1.3-0.9 0-4.1-1.3-7.1-2.9-3-1.6-6.1-2.9-7-2.9-3.6 0 0-3.8 8.9-9.4 3.2-2 6.9-1.3 10.6 2.1 1.9 1.7 1.9 2-0.9 4.1-1.6 1.3-2.7 2.5-2.4 2.8 0.8 0.8 6.6-2.2 6.6-3.3 0-0.5 1.3-0.1 2.9 0.9 1.6 1.1 2.7 2.2 2.3 2.5-0.3 0.3-1.4-0.1-2.4-0.9-1.5-1.3-2.4-0.9-5.8 2.3-2.2 2.1-3.7 4.3-3.3 4.9 0.4 0.6 1.2 0.4 1.8-0.5 0.9-1.3 1-1.3 0.7 0.1-0.5 2-3.2 3.1-3.2 1.3z" fill="#000"/><path transform="matrix(0.98369983,0,0,0.98369983,-1230.529,-620.41988)" d="m478.2 845.2c0 5.1-5.3 9.3-11.8 9.3-6.5 0-11.8-4.2-11.8-9.3 0-5.1 5.3-9.3 11.8-9.3 6.5 0 11.8 4.2 11.8 9.3zM478.2 845.2" fill="#f00"/><path transform="matrix(0.95890216,0,0,0.95890216,-1101.4875,-605.06801)" d="m478.2 845.2c0 5.1-5.3 9.3-11.8 9.3-6.5 0-11.8-4.2-11.8-9.3 0-5.1 5.3-9.3 11.8-9.3 6.5 0 11.8 4.2 11.8 9.3z" fill="#f00"/></g><g transform="matrix(4.2255125,0,0,4.2255125,-2.9765752,-3202.9007)"><g transform="translate(-1.6610183,-56.474619)"><g transform="translate(-29.898328,-80.282547)"><path d="m84.7 1153.3c0 1.9-0.2 2.8-0.4 3.6 0 0-0.9 0-1.3 1.3-0.4 1.3-1.5 14.6-1.4 14.7 0.1 0.2 0.2 1.4 0.4 2.6 0.3 1.1 4.7 4.6 11.2 4.6 2.5 0 8 1.3 8.8 2.1-0.7 0.8 9.2 6.6 15.8 6.3 2.8 0.8 14.4-1.8 16.5-3.3 3.3-1.2 7.1-4.2 7.5-5.5 0.2-1.1 0.5-3.8-0.8-5.9-1.2-1.7-3.2-2.9-4.8-3-6-1.4-8.3-2.8-11.8-4.8l-1.6-1 0.2-0.5-0.7-0.5-0.5 0.4-1.2-1 0-0.5-1.5-1-0.4 0.2-0.9-1 0.4-0.6-2.1-1.5-0.5 0.4-0.8-0.9 0-0.9-2.1-1.8-0.5 0.3-1-1.2-1.1-2.1-1.9-1.3-2.2-0.1-1.5 0.4-2.6-0.4-2.5 1.7c-1 1.8-2.2 2.4-2.9 2.3-2.4-1.7-4.8-3.8-6.3-4.6l-3.7 1c-0.6 0.6-1.2 1.1-1.8 1.7z" fill="#1a1a1a"/><path d="m116.7 1161.5c-0.8 0.6-2.1 0.4-3.3 0.6-0.2 0.7-0.6 1.6-1 2.1-0.1 0.4-0.8-0.2-0.6-0.7 0.1-0.4 0.3-1 0.3-1-1.7 0.7-3.7 1.9-4.2 2.5-0.6 0.5-1-0.9-0.9-1.5 0.4-0.1 0.6-1.3 0.2-1.2l-10.5 12.8 3.5 1.6c0.9-5.8 10-12.9 10.2-12.7 1.2-0.1 1.2 0.4 3.4 0.6 0.4 0.1 0.9-0.2 1.4-0.5 0.4-1 1.6-1.8 2.5-2.8l1 1c-0.2 0.1-0.3 0.2-0.4 0.6 0 0.6 0.6 0.6 1.4 0.6 0 0.2 0.3 0.3 0 0.7-2.9 1.1-4.7 1-6.9 2.3l-0.7 2.2 2.4 1.3c0 0 1.3-0.3 1.3-0.8 0-0.5 0.4-0.9 0.4-0.9l1.3 0.3 1.6-2.1-2.6 1.1-1.9 1.3c-0.7-0.2-0.5-0.8-0.5-1.4l1-0.5c0.3-0.8 1.7-1.3 3.1-1.6l1.9-0.7 0.6-0.9 3.5 2.3c0 0.3-2.6 2.1-3.6 2.8l-0.4 0.6 1.9 0.1 1.5-1.4c0.2-0.3 0.5-0.6 0.8-1 0-0.3 0-0.7-0.2-0.8-0.1-0.1 0-0.1 0-0.2l2.6 1.5c3.5 1.9 7 3.1 11.9 4.2 1.6 1.4 3.5 2.8 1.6 4.3-3.1 2.6-5.6 2.6-8.4 3.7l-6.9 2c-2.8 0.2-5.4 0.7-8.2 0.5-0.1-0.4 0.4-1 0.8-1.6l2.6-3.1c0.2-0.6-0.2-0.1-0.7 0.2-0.7 0.9-1.2 1.2-1.6 1.4l-1.5 1.5c-0.3 0.6-1.5 0.9-1.7 0.7 0.7 0.4 0.9 1.8 0.6 2.9-0.2 0.7-0.5 0.6-1.5 0.5-45.9-13.2-13.8-39.2 2.9-23.4z" fill="#fff"/></g><g transform="translate(-29.898328,-80.282547)"><path d="m55.9 1163.1c-0.3 0.9-0.3 0.9-0.6 3.6 0 0-0.6 0.1-1.3 1.2-0.7 1.1-1.5 14.6-1.4 14.7 0.1 0.2 0.2 1.4 0.4 2.6 0.3 1.1 4.7 4.7 11.2 4.6 2.2-0.1 7.4 1.2 8.8 2.1 0.9 1.6 9.2 7 15.8 6.3 2.8 0.8 14.4-1.8 16.5-3.3 3.3-1.2 7.1-4.2 7.5-5.5 0.2-1.1 0.5-3.8-0.8-5.9-1.2-1.7-3.2-2.9-4.8-3-6-1.4-8.3-2.8-11.8-4.8l-1.6-1 0.2-0.5-0.7-0.5-0.5 0.4-1.2-1 0-0.5-1.5-1-0.4 0.2-0.9-1 0.4-0.6-2.1-1.5-0.5 0.4-0.8-0.9 0-0.9-2.1-1.8-0.5 0.3-1-1.2c-0.2-1.2-0.8-1.9-1.7-2.2-1.1-1.1-1.6-1.2-2.9-1.2-1.2-0.3-1.2 0.2-1.5 0.5-1.6-0.4-3.6-0.6-4.3 0.3-2 1.1-3.1 4.3-4.7 2.7-2.4-1.8-3.2-3.3-6.5-4.3-2.3 0.3-3.7 1.3-4.7 2.7z" fill="#000"/><path d="m54 1167.7c-0.3 0.9 3.7 7.1 5.6 6.8 1 0.5 5.8-3 5.8-3 7.4-9.5 15.6-2 20.7-1.5 0.1 0.5 0.9 0.8 1.5 0.8 0.3 0 0.1 0.6 0.1 0.6-0.8 0.6-2.1 0.4-3.3 0.6-0.2 0.7-0.6 1.6-1 2.1-0.1 0.4-0.8-0.2-0.6-0.7 0.1-0.4 0.3-1 0.3-1-1.7 0.7-3.7 1.9-4.2 2.5-0.6 0.5-1-0.9-0.9-1.5l3.1-1.9c-0.4 0.2-1.3 0.2-1.4-0.3 0-2.4-2.1-0.6-3.6-0.1 0.8-0.1 1.3 0 1.6 0.2l0.5 0.9-6.2 6.8-4.4 5.9 3.5 1.6c0.9-5.8 10-12.9 10.2-12.7 1.2-0.1 1.2 0.4 3.4 0.6 0.4 0.1 0.9-0.2 1.4-0.5 0.4-1 1.6-1.8 2.5-2.8l1 1c-0.2 0.1-0.3 0.2-0.4 0.6 0 0.6 0.6 0.6 1.4 0.6 0 0.2 0.3 0.3 0 0.7-2.9 1.1-4.7 1-6.9 2.3l-0.7 2.2 2.4 1.3c0 0 1.3-0.3 1.3-0.8 0-0.5 0.4-0.9 0.4-0.9l1.3 0.3 1.6-2.1-2.6 1.1-1.9 1.3c-0.7-0.2-0.5-0.8-0.5-1.4l1-0.5c0.3-0.8 1.7-1.3 3.1-1.6l1.9-0.7 0.6-0.9 3.5 2.3c0 0.3-2.6 2.1-3.6 2.8l-0.4 0.6 1.9 0.1 1.5-1.4c0.2-0.3 0.5-0.6 0.8-1 0-0.3 0-0.7-0.2-0.8-0.1-0.1 0-0.1 0-0.2l2.6 1.5c3.5 1.9 7 3.1 11.9 4.2 1.6 1.4 3.5 2.8 1.6 4.3-3.1 2.6-5.6 2.6-8.4 3.7l-6.9 2c-2.8 0.2-5.4 0.7-8.2 0.5-0.1-0.4 0.4-1 0.8-1.6l2.6-3.1c0.2-0.6-0.2-0.1-0.7 0.2-0.7 0.9-1.2 1.2-1.6 1.4l-1.5 1.5c-0.3 0.6-1.5 0.9-1.7 0.7 0.7 0.4 0.9 1.8 0.6 2.9-0.2 0.7-0.5 0.6-1.5 0.5-2.6-1-4.7-2.7-7.9-2.9-1.8-0.3-2.1-0.7-2.7-1.1-2.7-1.5-5.4-3-9.1-4.3-1-0.2-2.4-0.7-3-0.5-0.8 0.8 0.6 1.1 1.3 1.9-0.5 0.5-1.8-0.2-2.7-0.3-3.9 0.3-6.6-1.6-6.3-2.1-1.2-1.2-1-2.1-1.4-3.2 0.7-7.4 0.6-9.2 1.1-14.5z" fill="#fff"/><path d="m71.6 1186.1c-0.3-1.3 4-8.3 9.6-12 0.9-0.4 0.1-0.3 2.2 0.4" style="fill:none;stroke-dasharray:0.4;stroke-width:0.1;stroke:#333"/><path d="m60.9 1176.2c1.2 0.1 8.1-5.3 9.7-5.4 4 1.3 2.9 2.7 3.2 2.7-1.5 1.3-6.9 6.2-7.2 10.5" style="fill:none;stroke-dasharray:0.3;stroke-width:0.2;stroke:#000"/><path d="m60.7 1174.9c3-2.2 6.5-2.7 5.6-5.8" style="fill:none;stroke-dasharray:0.4;stroke-width:0.1;stroke:#000"/><path d="m80.7 1181.8c0 0-3.4 3-3.2 3.9 0.1 0.7 2.2-1.4 2.2-1.4 0.7-1.1 1.2-1.6 1.6-2.1m1.8 0.9 0 0c-0.2-0.1-3.4 5-2.5 5.5 1.2 0.1 1.3-3.1 2.7-4.4 0.1-0.3 0.2-0.5 0.4-0.7m1.8 0.3c0 0-1.6 6.3-1.1 6.5 0.5 0.7 1.4-4.6 1.5-4.7l0.3-1.3" class="s2" style="fill:none;stroke-width:0.1;stroke:#1a1a1a"/><path d="m82.7 1177.5c-0.2 1.3-0.5 2 0.4 2.2 3.3 2.7 5.4-1.7 5.3-1.1" style="fill:none;stroke-dasharray:0.3;stroke-width:0.1;stroke:#333"/><path d="m60.6 1181.8c-0.9-0.6-5.2-8-6.1-9.8 1.1 1.6 3.6 5 4.8 6.6 0.3 0.5 1.1 2.4 1.2 3.2zm29.3-1.5 0 0c-0.2 1.7 0.6 5.8 6.8 5.5 1.9 0.2 10.6-0.9 12.2-3.8-5.7 4.3-17.5 5.2-18.7 0z" fill="#000"/></g></g><path d="m24.2 853.8c32.7 6.7 47.2 14.4 67.9-2.3 2.3 0.6 4.6 1.2 7 1.8 19.3 5-3.3 87.8-1.9 86.8-2.6 37.4 1.9 86.8 1.9 86.8-7.6-4-37.8-1.5-38.4 5-4.3 1.6-27.9 6-46.4-1.3 3.1-2 7.1-31.2 2-85.7 0 0-32.4-30.4-3.8-87.9 2.9-1.5 9.3-3.1 11.7-3.2z" fill="#000"/></g><path d="m298.9 497.1c-16.3 1.7-33.5 6.3-41.5 15.5-8.4 9.6-15.1 32.7-19.3 67.5-4.2 36-2.5 69.6 12.6 88 14.7 17.6 36.9 15.9 50.3 12.2 13-3.8 20.5-10.1 27.7-21 8-11.7 18.9-33.9 23.1-64.5 4.2-30.6 0.4-61.2-9.6-78.8-10.5-18-25.6-20.5-43.2-18.4zm-17.2 19.3c2.5 0 3.8 1.7 4.6 4.2 0.4 1.7 0.4 8 0 20.5-0.4 13-0.4 20.1 1.3 20.1 0.4 0 1.3 0 2.1-0.4 0.4 0 0.8-0.4 1.3-0.4 1.3-0.8 2.5-1.3 3.4-1.7 0.8-0.4 3.4-0.4 6.7-0.4 6.7 0 11.3 5.9 12.6 18.9 2.1 16.8-0.4 27.7-0.8 60.4 0 2.9 0 5.4-0.4 6.7-0.4 1.7-1.3 2.1-2.9 2.1-1.3 0-2.9-2.5-3.4-8.4-0.4-3.4-0.8-11.3-0.4-26 0.4-15.1 0.8-23.5 0.4-28.1-2.1-6.7-4.6-10.9-7.5-12.2 0 0 0 0 0 0-5 0-8.8 4.2-11.7 12.6-1.3 3.8-2.9 14.2-3.8 28.9-0.8 14.7-1.3 24.3-1.7 27.2-0.4 6.7-1.7 10.1-3.8 10.5-1.7 0.4-2.5 0-3.4-1.3-0.8-1.3-1.3-4.2-1.3-9.6 0-0.8 0-2.1 0-2.9 0-2.1 0-4.2 0-6.3 0-3.4 0.4-8.4 0.4-9.6 0-2.1 0.4-4.2 0.4-6.3 0-2.1 0.4-4.2 0.4-6.3 0.4-4.2 0.4-8.8 0.8-13 0-1.3 0-2.1 0.4-3.4 0-2.1 0.4-4.2 0.4-6.7 0-1.3 0-2.1 0.4-3.4 0-2.1 0.4-4.2 0.4-6.3 0-1.3 0-2.1 0.4-3.4 0-2.1 0.4-4.2 0.4-6.3 0-0.8 0-2.1 0.4-2.9 0-2.1 0.4-4.2 0.4-5.9 0-2.9 0.4-5.9 0.4-8.8 0.8-15.9 0.8-23.9 1.7-27.7 0.4-3.4 1.7-4.6 3.4-4.6 0 0 0 0 0 0z" fill="#800000"/><path d="" style="fill:#f00;stroke-width:32.4;stroke:#000"/><path d="" fill="#ececec"/><g transform="matrix(424.25675,0,0,-599.69229,-1435.7702,465.25831)"/></svg>